{
.appVersion = "1356";
DisplayStrings = (
"/one.tosf",
"+/minus ×÷=/notequal ></greaterequal/lessequal ±/approxequal ~¬^/plus.case/minus.case/multiply.case/divide.case/equal.case/notequal.case/greater.case/less.case/approxequal.case/logicalnot.case/asciitilde.case",

glyphs = (
{
color = 6;
glyphname = A;
lastChange = "2021-06-25 07:24:58 +0000";
layers = (
{
anchors = (
{
name = bottom;
position = "{285, 0}";
},
{
name = center;
position = "{282, 340}";
},
{
name = ogonek;
position = "{597, 0}";
},
{
name = top;
position = "{325, 680}";
},
{
name = topleft;
position = "{131, 680}";
}
);
hints = (
{
horizontal = 1;
place = "{-15, 213}";
type = Stem;
},
{
horizontal = 1;
place = "{675, -20}";
target = down;
type = TopGhost;
},
{
horizontal = 1;
place = "{181, 17}";
type = Stem;
}
);
layerId = "1E8F490F-00FE-4BD6-A503-902369003CC3";
paths = (
{
closed = 1;
nodes = (
"185 0 LINE",
"185 16 LINE",
"129 16 OFFCURVE",
"113 46 OFFCURVE",
"141 143 CURVE SMOOTH",
"256 547 LINE",
"240 547 LINE",
"340 127 LINE SMOOTH",
"362 33 OFFCURVE",
"354 16 OFFCURVE",
"293 16 CURVE",
"293 0 LINE",
"634 0 LINE",
"634 16 LINE",
"590 16 OFFCURVE",
"579 35 OFFCURVE",
"568 77 CURVE SMOOTH",
"397 715 LINE",
"378 715 LINE",
"352 649 OFFCURVE",
"300 614 OFFCURVE",
"246 600 CURVE",
"119 177 LINE SMOOTH",
"73 25 OFFCURVE",
"45 16 OFFCURVE",
"9 16 CURVE SMOOTH",
"4 16 LINE",
"4 0 LINE"
);
},
{
closed = 1;
nodes = (
"334 196 LINE",
"328 228 LINE",
"156 228 LINE",
"147 196 LINE"
);
}
);
width = 638;
},
{
anchors = (
{
name = bottom;
position = "{284, 0}";
},
{
name = center;
position = "{281, 340}";
},
{
name = ogonek;
position = "{576, 0}";
},
{
name = top;
position = "{311, 680}";
},
{
name = topleft;
position = "{110, 680}";
}
);
hints = (
{
horizontal = 1;
place = "{33, 21}";
target = up;
type = BottomGhost;
},
{
horizontal = 1;
place = "{723, -20}";
target = down;
type = TopGhost;
}
);
layerId = "07AD8005-5D45-4A63-B3CF-4E1D9502446D";
paths = (
{
closed = 1;
nodes = (
"130 0 LINE",
"130 7 LINE",
"81 7 OFFCURVE",
"77 11 OFFCURVE",
"117 124 CURVE SMOOTH",
"307 652 LINE",
"304 652 LINE",
"494 116 LINE SMOOTH",
"529 19 OFFCURVE",
"527 7 OFFCURVE",
"476 7 CURVE",
"476 0 LINE",
"604 0 LINE",
"604 7 LINE",
"569 7 OFFCURVE",
"562 13 OFFCURVE",
"527 110 CURVE SMOOTH",
"318 692 LINE",
"314 692 LINE",
"314 686 OFFCURVE",
"312 683 OFFCURVE",
"308 681 CURVE",
"108 126 LINE SMOOTH",
"66 9 OFFCURVE",
"54 7 OFFCURVE",
"27 7 CURVE SMOOTH",
"22 7 LINE",
"22 0 LINE"
);
},
{
closed = 1;
nodes = (
"460 220 LINE",
"457 228 LINE",
"152 228 LINE",
"149 220 LINE"
);
}
);
width = 626;
},
{
anchors = (
{
name = bottom;
position = "{288, 0}";
},
{
name = center;
position = "{285, 340}";
},
{
name = ogonek;
position = "{600, 0}";
},
{
name = top;
position = "{323, 680}";
},
{
name = topleft;
position = "{144, 680}";
}
);
hints = (
{
horizontal = 1;
place = "{10, 238}";
type = Stem;
},
{
horizontal = 1;
place = "{700, -20}";
target = down;
type = TopGhost;
}
);
layerId = "3FA0091B-41E8-4679-8383-4E36DA6A759B";
paths = (
{
closed = 1;
nodes = (
"176 0 LINE",
"176 12 LINE",
"121 12 OFFCURVE",
"107 46 OFFCURVE",
"138 143 CURVE SMOOTH",
"296 627 LINE",
"286 627 LINE",
"458 127 LINE SMOOTH",
"491 31 OFFCURVE",
"482 12 OFFCURVE",
"418 12 CURVE",
"418 0 LINE",
"637 0 LINE",
"637 12 LINE",
"598 12 OFFCURVE",
"585 21 OFFCURVE",
"565 77 CURVE SMOOTH",
"342 703 LINE",
"332 703 LINE",
"325 679 OFFCURVE",
"311 660 OFFCURVE",
"289 651 CURVE",
"128 177 LINE SMOOTH",
"77 28 OFFCURVE",
"56 12 OFFCURVE",
"12 12 CURVE SMOOTH",
"7 12 LINE",
"7 0 LINE"
);
},
{
closed = 1;
nodes = (
"434 238 LINE",
"427 258 LINE",
"163 258 LINE",
"157 238 LINE"
);
}
);
width = 644;
}
);
leftKerningGroup = A;
note = A.ss15;
rightKerningGroup = A;
rightMetricsKey = "=|";
unicode = 0041;
},
{
color = 4;
glyphname = AE;
lastChange = "2021-06-22 08:27:48 +0000";
layers = (
{
anchors = (
{
name = top;
position = "{529, 680}";
}
);
hints = (
{
horizontal = 1;
place = "{-15, 21}";
type = Stem;
},
{
horizontal = 1;
place = "{201, 17}";
type = Stem;
},
{
horizontal = 1;
place = "{325, 20}";
type = Stem;
},
{
horizontal = 1;
place = "{637, 13}";
type = Stem;
},
{
place = "{406, 181}";
type = Stem;
}
);
layerId = "1E8F490F-00FE-4BD6-A503-902369003CC3";
paths = (
{
closed = 1;
nodes = (
"185 0 LINE",
"185 16 LINE",
"131 16 OFFCURVE",
"124 43 OFFCURVE",
"171 140 CURVE SMOOTH",
"422 652 LINE",
"423 652 LINE",
"423 86 LINE SMOOTH",
"423 34 OFFCURVE",
"388 16 OFFCURVE",
"352 16 CURVE",
"352 0 LINE",
"850 0 LINE",
"850 179 LINE",
"834 179 LINE",
"834 81 OFFCURVE",
"789 36 OFFCURVE",
"705 36 CURVE SMOOTH",
"619 36 LINE",
"619 340 LINE",
"690 340 LINE SMOOTH",
"751 340 OFFCURVE",
"763 303 OFFCURVE",
"763 266 CURVE",
"779 266 LINE",
"779 440 LINE",
"763 440 LINE",
"763 391 OFFCURVE",
"746 375 OFFCURVE",
"689 375 CURVE SMOOTH",
"619 375 LINE",
"619 652 LINE",
"676 652 LINE SMOOTH",
"785 652 OFFCURVE",
"799 609 OFFCURVE",
"799 526 CURVE",
"815 526 LINE",
"815 680 LINE",
"304 680 LINE",
"304 664 LINE",
"360 664 OFFCURVE",
"378 640 OFFCURVE",
"355 594 CURVE SMOOTH",
"145 177 LINE SMOOTH",
"74 36 OFFCURVE",
"57 16 OFFCURVE",
"4 16 CURVE",
"4 0 LINE"
);
},
{
closed = 1;
nodes = (
"431 236 LINE",
"431 268 LINE",
"215 268 LINE",
"199 236 LINE"
);
}
);
width = 880;
},
{
anchors = (
{
name = top;
position = "{465, 680}";
}
);
hints = (
{
horizontal = 1;
place = "{33, 21}";
target = up;
type = BottomGhost;
},
{
horizontal = 1;
place = "{713, -20}";
target = down;
type = TopGhost;
},
{
place = "{717, 62}";
type = Stem;
}
);
layerId = "07AD8005-5D45-4A63-B3CF-4E1D9502446D";
paths = (
{
closed = 1;
nodes = (
"130 0 LINE",
"130 7 LINE",
"82 7 OFFCURVE",
"79 15 OFFCURVE",
"139 124 CURVE SMOOTH",
"439 670 LINE",
"442 670 LINE",
"442 66 LINE SMOOTH",
"442 14 OFFCURVE",
"437 7 OFFCURVE",
"391 7 CURVE",
"391 0 LINE",
"773 0 LINE",
"773 117 LINE",
"763 117 LINE",
"763 9 OFFCURVE",
"737 10 OFFCURVE",
"663 10 CURVE SMOOTH",
"471 10 LINE",
"471 356 LINE",
"623 356 LINE SMOOTH",
"681 356 OFFCURVE",
"693 350 OFFCURVE",
"693 298 CURVE",
"702 298 LINE",
"702 419 LINE",
"693 419 LINE",
"693 372 OFFCURVE",
"682 364 OFFCURVE",
"622 364 CURVE SMOOTH",
"471 364 LINE",
"471 671 LINE",
"629 671 LINE SMOOTH",
"718 671 OFFCURVE",
"728 658 OFFCURVE",
"728 585 CURVE",
"738 585 LINE",
"738 680 LINE",
"350 680 LINE",
"350 673 LINE",
"396 673 OFFCURVE",
"428 665 OFFCURVE",
"392 600 CURVE SMOOTH",
"130 126 LINE SMOOTH",
"74 24 OFFCURVE",
"59 7 OFFCURVE",
"22 7 CURVE",
"22 0 LINE"
);
},
{
closed = 1;
nodes = (
"452 240 LINE",
"452 248 LINE",
"202 248 LINE",
"198 240 LINE"
);
}
);
width = 834;
},
{
anchors = (
{
name = top;
position = "{512, 680}";
}
);
hints = (
{
horizontal = 1;
place = "{228, 30}";
type = Stem;
},
{
horizontal = 1;
place = "{357, 31}";
type = Stem;
},
{
horizontal = 1;
place = "{690, -20}";
target = down;
type = TopGhost;
},
{
place = "{444, 95}";
type = Stem;
},
{
horizontal = 1;
place = "{10, 248}";
type = Stem;
}
);
layerId = "3FA0091B-41E8-4679-8383-4E36DA6A759B";
paths = (
{
closed = 1;
nodes = (
"176 0 LINE",
"176 12 LINE",
"123 12 OFFCURVE",
"118 44 OFFCURVE",
"168 143 CURVE SMOOTH",
"436 668 LINE",
"439 668 LINE",
"439 74 LINE SMOOTH",
"439 22 OFFCURVE",
"404 12 OFFCURVE",
"368 12 CURVE",
"368 0 LINE",
"806 0 LINE",
"806 159 LINE",
"790 159 LINE",
"790 51 OFFCURVE",
"755 22 OFFCURVE",
"661 22 CURVE SMOOTH",
"524 22 LINE",
"524 347 LINE",
"646 347 LINE SMOOTH",
"707 347 OFFCURVE",
"719 326 OFFCURVE",
"719 281 CURVE",
"735 281 LINE",
"735 425 LINE",
"719 425 LINE",
"719 368 OFFCURVE",
"702 368 OFFCURVE",
"645 368 CURVE SMOOTH",
"524 368 LINE",
"524 664 LINE",
"632 664 LINE SMOOTH",
"741 664 OFFCURVE",
"755 619 OFFCURVE",
"755 546 CURVE",
"771 546 LINE",
"771 680 LINE",
"340 680 LINE",
"340 668 LINE",
"386 668 OFFCURVE",
"404 652 OFFCURVE",
"380 606 CURVE SMOOTH",
"158 177 LINE SMOOTH",
"88 42 OFFCURVE",
"62 12 OFFCURVE",
"7 12 CURVE",
"7 0 LINE"
);
},
{
closed = 1;
nodes = (
"444 238 LINE",
"444 258 LINE",
"210 258 LINE",
"200 238 LINE"
);
}
);
width = 855;
}
);
leftKerningGroup = AE;
leftMetricsKey = A;
note = AE;
rightKerningGroup = E;
rightMetricsKey = E;
unicode = 00C6;
},
{
color = 4;
glyphname = B;
lastChange = "2021-06-22 12:49:48 +0000";
layers = (
{
anchors = (
{
name = bottom;
position = "{302, 0}";
},
{
name = top;
position = "{303, 680}";
}
);
background = {
components = (
{
name = Serif;
transform = "{1, 0, 0, 1, 12, 0}";
}
);
};
hints = (
{
horizontal = 1;
place = "{-15, 21}";
type = Stem;
},
{
horizontal = 1;
place = "{325, 20}";
type = Stem;
},
{
horizontal = 1;
place = "{637, 13}";
type = Stem;
},
{
place = "{71, 180}";
type = Stem;
},
{
place = "{373, 173}";
type = Stem;
},
{
place = "{386, 181}";
type = Stem;
},
{
place = "{386, 160}";
type = Stem;
}
);
layerId = "1E8F490F-00FE-4BD6-A503-902369003CC3";
paths = (
{
closed = 1;
nodes = (
"317 0 LINE SMOOTH",
"499 0 OFFCURVE",
"593 50 OFFCURVE",
"593 177 CURVE SMOOTH",
"593 285 OFFCURVE",
"524 344 OFFCURVE",
"392 363 CURVE",
"392 367 LINE",
"490 380 OFFCURVE",
"572 430 OFFCURVE",
"572 525 CURVE SMOOTH",
"572 616 OFFCURVE",
"498 680 OFFCURVE",
"336 680 CURVE SMOOTH",
"11 680 LINE",
"11 664 LINE",
"67 664 OFFCURVE",
"82 646 OFFCURVE",
"82 594 CURVE SMOOTH",
"82 86 LINE SMOOTH",
"82 34 OFFCURVE",
"67 16 OFFCURVE",
"11 16 CURVE",
"11 0 LINE"
);
},
{
closed = 1;
nodes = (
"291 33 OFFCURVE",
"278 38 OFFCURVE",
"278 84 CURVE SMOOTH",
"278 344 LINE",
"300 344 LINE SMOOTH",
"348 344 OFFCURVE",
"397 319 OFFCURVE",
"397 189 CURVE SMOOTH",
"397 82 OFFCURVE",
"364 33 OFFCURVE",
"313 33 CURVE SMOOTH",
"311 33 LINE SMOOTH"
);
},
{
closed = 1;
nodes = (
"278 647 LINE",
"300 647 LINE SMOOTH",
"355 647 OFFCURVE",
"384 624 OFFCURVE",
"384 517 CURVE SMOOTH",
"384 415 OFFCURVE",
"356 375 OFFCURVE",
"300 375 CURVE SMOOTH",
"278 375 LINE"
);
}
);
width = 620;
},
{
anchors = (
{
name = bottom;
position = "{252, 0}";
},
{
name = top;
position = "{253, 680}";
}
);
background = {
components = (
{
name = Serif;
transform = "{1, 0, 0, 1, -7, 0}";
}
);
};
hints = (
{
horizontal = 1;
place = "{33, 21}";
target = up;
type = BottomGhost;
},
{
horizontal = 1;
place = "{713, -20}";
target = down;
type = TopGhost;
},
{
place = "{129, 62}";
type = Stem;
},
{
place = "{472, 66}";
type = Stem;
},
{
place = "{445, 67}";
type = Stem;
}
);
layerId = "07AD8005-5D45-4A63-B3CF-4E1D9502446D";
paths = (
{
closed = 1;
nodes = (
"219 0 LINE SMOOTH",
"380 0 OFFCURVE",
"478 66 OFFCURVE",
"478 186 CURVE SMOOTH",
"478 293 OFFCURVE",
"394 345 OFFCURVE",
"281 359 CURVE",
"281 361 LINE",
"368 377 OFFCURVE",
"452 425 OFFCURVE",
"452 528 CURVE SMOOTH",
"452 616 OFFCURVE",
"391 680 OFFCURVE",
"232 680 CURVE SMOOTH",
"51 680 LINE",
"51 673 LINE",
"97 673 OFFCURVE",
"102 666 OFFCURVE",
"102 614 CURVE SMOOTH",
"102 66 LINE SMOOTH",
"102 14 OFFCURVE",
"97 7 OFFCURVE",
"51 7 CURVE",
"51 0 LINE"
);
},
{
closed = 1;
nodes = (
"144 10 OFFCURVE",
"131 13 OFFCURVE",
"131 65 CURVE SMOOTH",
"131 355 LINE",
"209 355 LINE SMOOTH",
"352 355 OFFCURVE",
"446 306 OFFCURVE",
"446 191 CURVE SMOOTH",
"446 85 OFFCURVE",
"376 10 OFFCURVE",
"214 10 CURVE SMOOTH",
"179 10 LINE SMOOTH"
);
},
{
closed = 1;
nodes = (
"131 671 LINE",
"231 671 LINE SMOOTH",
"362 671 OFFCURVE",
"420 615 OFFCURVE",
"420 525 CURVE SMOOTH",
"420 434 OFFCURVE",
"361 364 OFFCURVE",
"210 364 CURVE SMOOTH",
"131 364 LINE"
);
}
);
width = 530;
},
{
anchors = (
{
name = bottom;
position = "{292, 0}";
},
{
name = top;
position = "{293, 680}";
}
);
background = {
components = (
{
name = Serif;
transform = "{1, 0, 0, 1, 6, 0}";
}
);
};
hints = (
{
horizontal = 1;
place = "{10, 32}";
type = Stem;
},
{
horizontal = 1;
place = "{357, 31}";
type = Stem;
},
{
horizontal = 1;
place = "{690, -20}";
target = down;
type = TopGhost;
},
{
place = "{116, 95}";
type = Stem;
},
{
place = "{462, 70}";
type = Stem;
},
{
place = "{462, 96}";
type = Stem;
},
{
place = "{435, 97}";
type = Stem;
}
);
layerId = "3FA0091B-41E8-4679-8383-4E36DA6A759B";
paths = (
{
closed = 1;
nodes = (
"260 0 LINE SMOOTH",
"420 0 OFFCURVE",
"540 57 OFFCURVE",
"540 183 CURVE SMOOTH",
"540 286 OFFCURVE",
"458 347 OFFCURVE",
"341 359 CURVE",
"341 363 LINE",
"436 385 OFFCURVE",
"508 429 OFFCURVE",
"508 523 CURVE SMOOTH",
"508 618 OFFCURVE",
"435 680 OFFCURVE",
"273 680 CURVE SMOOTH",
"31 680 LINE",
"31 668 LINE",
"87 668 OFFCURVE",
"102 658 OFFCURVE",
"102 606 CURVE SMOOTH",
"102 74 LINE SMOOTH",
"102 22 OFFCURVE",
"87 12 OFFCURVE",
"31 12 CURVE",
"31 0 LINE"
);
},
{
closed = 1;
nodes = (
"203 20 OFFCURVE",
"187 28 OFFCURVE",
"187 74 CURVE SMOOTH",
"187 348 LINE",
"241 348 LINE SMOOTH",
"383 348 OFFCURVE",
"448 304 OFFCURVE",
"448 191 CURVE SMOOTH",
"448 81 OFFCURVE",
"383 20 OFFCURVE",
"251 20 CURVE SMOOTH",
"231 20 LINE SMOOTH"
);
},
{
closed = 1;
nodes = (
"187 660 LINE",
"267 660 LINE SMOOTH",
"376 660 OFFCURVE",
"421 614 OFFCURVE",
"421 519 CURVE SMOOTH",
"421 435 OFFCURVE",
"386 368 OFFCURVE",
"246 368 CURVE SMOOTH",
"187 368 LINE"
);
}
);
width = 581;
}
);
leftKerningGroup = H;
leftMetricsKey = H;
note = B;
rightKerningGroup = B;
unicode = 0042;
},
{
color = 4;
glyphname = C;
lastChange = "2021-06-22 08:27:48 +0000";
layers = (
{
anchors = (
{
name = bottom;
position = "{346, 0}";
},
{
name = cedilla;
position = "{359, 0}";
},
{
name = center;
position = "{346, 340}";
},
{
name = top;
position = "{346, 680}";
}
);
background = {
components = (
{
name = O;
}
);
};
hints = (
{
horizontal = 1;
place = "{-26, 84}";
type = Stem;
},
{
horizontal = 1;
place = "{665, -20}";
target = down;
type = TopGhost;
},
{
place = "{15, 192}";
type = Stem;
},
{
horizontal = 1;
place = "{649, 11}";
type = Stem;
}
);
layerId = "1E8F490F-00FE-4BD6-A503-902369003CC3";
paths = (
{
closed = 1;
nodes = (
"448 -12 OFFCURVE",
"475 30 OFFCURVE",
"498 30 CURVE SMOOTH",
"509 30 OFFCURVE",
"513 20 OFFCURVE",
"525 -1 CURVE",
"541 -1 LINE",
"541 233 LINE",
"525 233 LINE",
"514 130 OFFCURVE",
"481 19 OFFCURVE",
"365 19 CURVE SMOOTH",
"261 19 OFFCURVE",
"234 123 OFFCURVE",
"234 329 CURVE SMOOTH",
"234 537 OFFCURVE",
"272 664 OFFCURVE",
"366 664 CURVE SMOOTH",
"462 664 OFFCURVE",
"514 549 OFFCURVE",
"525 466 CURVE",
"541 466 LINE",
"541 680 LINE",
"525 680 LINE",
"513 659 OFFCURVE",
"509 649 OFFCURVE",
"498 649 CURVE SMOOTH",
"475 649 OFFCURVE",
"449 690 OFFCURVE",
"348 690 CURVE SMOOTH",
"168 690 OFFCURVE",
"19 568 OFFCURVE",
"19 316 CURVE SMOOTH",
"19 49 OFFCURVE",
"188 -12 OFFCURVE",
"347 -12 CURVE SMOOTH"
);
}
);
width = 579;
},
{
anchors = (
{
name = bottom;
position = "{361, 0}";
},
{
name = cedilla;
position = "{374, -8}";
},
{
name = center;
position = "{361, 340}";
},
{
name = top;
position = "{361, 680}";
}
);
background = {
components = (
{
name = O;
transform = "{1, 0, 0, 1, 2, 0}";
}
);
};
hints = (
{
horizontal = 1;
place = "{22, 53}";
type = Stem;
},
{
horizontal = 1;
place = "{713, -20}";
target = down;
type = TopGhost;
},
{
place = "{70, 63}";
type = Stem;
},
{
horizontal = 1;
place = "{715, -20}";
target = down;
type = TopGhost;
},
{
horizontal = 1;
place = "{723, -20}";
target = down;
type = TopGhost;
}
);
layerId = "07AD8005-5D45-4A63-B3CF-4E1D9502446D";
paths = (
{
closed = 1;
nodes = (
"455 -12 OFFCURVE",
"523 48 OFFCURVE",
"544 48 CURVE SMOOTH",
"553 48 OFFCURVE",
"560 38 OFFCURVE",
"571 5 CURVE",
"578 5 LINE",
"578 180 LINE",
"570 180 LINE",
"553 57 OFFCURVE",
"450 -4 OFFCURVE",
"360 -4 CURVE SMOOTH",
"222 -4 OFFCURVE",
"91 111 OFFCURVE",
"91 334 CURVE SMOOTH",
"91 565 OFFCURVE",
"229 688 OFFCURVE",
"361 688 CURVE SMOOTH",
"451 688 OFFCURVE",
"549 627 OFFCURVE",
"566 524 CURVE",
"574 524 LINE",
"574 666 LINE",
"567 666 LINE",
"556 646 OFFCURVE",
"549 636 OFFCURVE",
"540 636 CURVE SMOOTH",
"519 636 OFFCURVE",
"456 696 OFFCURVE",
"359 696 CURVE SMOOTH",
"218 696 OFFCURVE",
"59 575 OFFCURVE",
"59 327 CURVE SMOOTH",
"59 100 OFFCURVE",
"192 -12 OFFCURVE",
"356 -12 CURVE SMOOTH"
);
}
);
width = 645;
},
{
anchors = (
{
name = bottom;
position = "{348, 0}";
},
{
name = cedilla;
position = "{382, 0}";
},
{
name = center;
position = "{348, 340}";
},
{
name = top;
position = "{348, 680}";
}
);
background = {
components = (
{
name = O;
},
{
name = G;
transform = "{1, 0, 0, 1, -8, 0}";
}
);
paths = (
{
closed = 0;
nodes = (
"347 674 LINE SMOOTH",
"453 674 OFFCURVE",
"518 600 OFFCURVE",
"537 496 CURVE",
"550 496 LINE",
"550 680 LINE",
"538 680 LINE",
"526 659 OFFCURVE",
"518 649 OFFCURVE",
"507 649 CURVE SMOOTH",
"486 649 OFFCURVE",
"443 690 OFFCURVE",
"352 690 CURVE SMOOTH"
);
}
);
};
hints = (
{
horizontal = 1;
place = "{-1, 70}";
type = Stem;
},
{
horizontal = 1;
place = "{690, -20}";
target = down;
type = TopGhost;
},
{
place = "{47, 95}";
type = Stem;
},
{
horizontal = 1;
place = "{700, -20}";
target = down;
type = TopGhost;
}
);
layerId = "3FA0091B-41E8-4679-8383-4E36DA6A759B";
paths = (
{
closed = 1;
nodes = (
"437 -11 OFFCURVE",
"496 32 OFFCURVE",
"515 32 CURVE SMOOTH",
"528 32 OFFCURVE",
"536 22 OFFCURVE",
"548 1 CURVE",
"560 1 LINE",
"565 213 LINE",
"552 213 LINE",
"533 98 OFFCURVE",
"466 5 OFFCURVE",
"360 5 CURVE SMOOTH",
"235 11 OFFCURVE",
"135 151 OFFCURVE",
"135 358 CURVE SMOOTH",
"135 566 OFFCURVE",
"242 676 OFFCURVE",
"357 676 CURVE SMOOTH",
"460 676 OFFCURVE",
"528 600 OFFCURVE",
"547 496 CURVE",
"560 496 LINE",
"560 680 LINE",
"548 680 LINE",
"536 659 OFFCURVE",
"528 649 OFFCURVE",
"517 649 CURVE SMOOTH",
"496 649 OFFCURVE",
"450 692 OFFCURVE",
"362 692 CURVE SMOOTH",
"222 692 OFFCURVE",
"39 581 OFFCURVE",
"39 331 CURVE SMOOTH",
"39 106 OFFCURVE",
"167 -11 OFFCURVE",
"352 -11 CURVE SMOOTH"
);
}
);
width = 620;
}
);
leftKerningGroup = O;
leftMetricsKey = O;
note = C;
rightKerningGroup = C;
unicode = 0043;
},
{
color = 4;
glyphname = D;
lastChange = "2021-06-22 08:27:48 +0000";
layers = (
{
anchors = (
{
name = bottom;
position = "{294, 0}";
},
{
name = center;
position = "{321, 340}";
},
{
name = top;
position = "{294, 680}";
}
);
background = {
components = (
{
name = B;
transform = "{1, 0, 0, 1, 12, 0}";
}
);
paths = (
{
closed = 0;
nodes = (
"413 217 LINE",
"414 216 OFFCURVE",
"414 216 OFFCURVE",
"415 215 CURVE SMOOTH"
);
}
);
};
hints = (
{
horizontal = 1;
place = "{-15, 21}";
type = Stem;
},
{
horizontal = 1;
place = "{636, 14}";
type = Stem;
},
{
place = "{71, 181}";
type = Stem;
},
{
place = "{392, 187}";
type = Stem;
}
);
layerId = "1E8F490F-00FE-4BD6-A503-902369003CC3";
paths = (
{
closed = 1;
nodes = (
"308 0 LINE SMOOTH",
"505 0 OFFCURVE",
"653 93 OFFCURVE",
"653 349 CURVE SMOOTH",
"653 604 OFFCURVE",
"462 680 OFFCURVE",
"316 680 CURVE SMOOTH",
"11 680 LINE",
"11 664 LINE",
"67 664 OFFCURVE",
"82 646 OFFCURVE",
"82 594 CURVE SMOOTH",
"82 86 LINE SMOOTH",
"82 34 OFFCURVE",
"67 16 OFFCURVE",
"11 16 CURVE",
"11 0 LINE"
);
},
{
closed = 1;
nodes = (
"291 33 OFFCURVE",
"278 44 OFFCURVE",
"278 79 CURVE SMOOTH",
"278 647 LINE",
"304 647 LINE SMOOTH",
"402 647 OFFCURVE",
"437 572 OFFCURVE",
"437 343 CURVE SMOOTH",
"437 80 OFFCURVE",
"378 33 OFFCURVE",
"317 33 CURVE SMOOTH",
"315 33 LINE SMOOTH"
);
}
);
width = 672;
},
{
anchors = (
{
name = bottom;
position = "{274, 0}";
},
{
name = center;
position = "{301, 340}";
},
{
name = top;
position = "{274, 680}";
}
);
background = {
components = (
{
name = O;
transform = "{1, 0, 0, 1, -96, 0}";
},
{
name = B;
transform = "{1, 0, 0, 1, -7, 0}";
}
);
};
hints = (
{
horizontal = 1;
place = "{33, 21}";
target = up;
type = BottomGhost;
},
{
horizontal = 1;
place = "{713, -20}";
target = down;
type = TopGhost;
},
{
place = "{129, 62}";
type = Stem;
},
{
place = "{572, 68}";
type = Stem;
}
);
layerId = "07AD8005-5D45-4A63-B3CF-4E1D9502446D";
paths = (
{
closed = 1;
nodes = (
"246 0 LINE SMOOTH",
"420 0 OFFCURVE",
"581 99 OFFCURVE",
"581 351 CURVE SMOOTH",
"581 603 OFFCURVE",
"420 680 OFFCURVE",
"246 680 CURVE SMOOTH",
"51 680 LINE",
"51 673 LINE",
"97 673 OFFCURVE",
"102 666 OFFCURVE",
"102 614 CURVE SMOOTH",
"102 66 LINE SMOOTH",
"102 14 OFFCURVE",
"97 7 OFFCURVE",
"51 7 CURVE",
"51 0 LINE"
);
},
{
closed = 1;
nodes = (
"147 9 OFFCURVE",
"131 14 OFFCURVE",
"131 66 CURVE SMOOTH",
"131 671 LINE",
"245 671 LINE SMOOTH",
"412 671 OFFCURVE",
"549 579 OFFCURVE",
"549 350 CURVE SMOOTH",
"549 121 OFFCURVE",
"411 9 OFFCURVE",
"245 9 CURVE SMOOTH",
"171 9 LINE SMOOTH"
);
}
);
width = 640;
},
{
anchors = (
{
name = bottom;
position = "{274, 0}";
},
{
name = center;
position = "{301, 340}";
},
{
name = top;
position = "{274, 680}";
}
);
background = {
components = (
{
name = B;
transform = "{1, 0, 0, 1, 6, 0}";
},
{
name = O;
transform = "{1, 0, 0, 1, -78, 0}";
}
);
};
hints = (
{
horizontal = 1;
place = "{10, 32}";
type = Stem;
},
{
horizontal = 1;
place = "{690, -20}";
target = down;
type = TopGhost;
},
{
place = "{116, 95}";
type = Stem;
},
{
place = "{539, 101}";
type = Stem;
}
);
layerId = "3FA0091B-41E8-4679-8383-4E36DA6A759B";
paths = (
{
closed = 1;
nodes = (
"288 0 LINE SMOOTH",
"452 0 OFFCURVE",
"619 97 OFFCURVE",
"619 352 CURVE SMOOTH",
"619 596 OFFCURVE",
"450 680 OFFCURVE",
"267 680 CURVE SMOOTH",
"31 680 LINE",
"31 668 LINE",
"87 668 OFFCURVE",
"102 658 OFFCURVE",
"102 606 CURVE SMOOTH",
"102 74 LINE SMOOTH",
"102 22 OFFCURVE",
"87 12 OFFCURVE",
"31 12 CURVE",
"31 0 LINE"
);
},
{
closed = 1;
nodes = (
"205 20 OFFCURVE",
"187 27 OFFCURVE",
"187 74 CURVE SMOOTH",
"187 660 LINE",
"261 660 LINE SMOOTH",
"428 660 OFFCURVE",
"521 559 OFFCURVE",
"521 349 CURVE SMOOTH",
"521 149 OFFCURVE",
"426 20 OFFCURVE",
"287 20 CURVE SMOOTH",
"244 20 LINE SMOOTH"
);
}
);
width = 658;
}
);
leftKerningGroup = H;
leftMetricsKey = H;
note = D;
rightKerningGroup = O;
rightMetricsKey = O;
unicode = 0044;
},
{
color = 4;
glyphname = Eth;
lastChange = "2021-06-22 08:27:48 +0000";
layers = (
{
components = (
{
name = D;
}
);
hints = (
{
horizontal = 1;
place = "{-15, 21}";
type = Stem;
},
{
horizontal = 1;
place = "{325, 20}";
type = Stem;
},
{
horizontal = 1;
place = "{636, 14}";
type = Stem;
},
{
place = "{71, 181}";
type = Stem;
},
{
place = "{392, 187}";
type = Stem;
}
);
layerId = "1E8F490F-00FE-4BD6-A503-902369003CC3";
paths = (
{
closed = 1;
nodes = (
"356 340 LINE",
"356 375 LINE",
"12 375 LINE",
"12 340 LINE"
);
}
);
width = 672;
},
{
components = (
{
name = D;
}
);
hints = (
{
horizontal = 1;
place = "{33, 21}";
target = up;
type = BottomGhost;
},
{
horizontal = 1;
place = "{713, -20}";
target = down;
type = TopGhost;
},
{
place = "{129, 62}";
type = Stem;
},
{
place = "{572, 68}";
type = Stem;
}
);
layerId = "07AD8005-5D45-4A63-B3CF-4E1D9502446D";
paths = (
{
closed = 1;
nodes = (
"330 353 LINE",
"330 363 LINE",
"31 363 LINE",
"31 353 LINE"
);
}
);
width = 640;
},
{
components = (
{
name = D;
}
);
hints = (
{
horizontal = 1;
place = "{10, 32}";
type = Stem;
},
{
horizontal = 1;
place = "{357, 32}";
type = Stem;
},
{
horizontal = 1;
place = "{690, -20}";
target = down;
type = TopGhost;
},
{
place = "{116, 95}";
type = Stem;
},
{
place = "{539, 101}";
type = Stem;
}
);
layerId = "3FA0091B-41E8-4679-8383-4E36DA6A759B";
paths = (
{
closed = 1;
nodes = (
"339 347 LINE",
"339 369 LINE",
"21 369 LINE",
"21 347 LINE"
);
}
);
width = 658;
}
);
leftKerningGroup = H;
note = Eth;
rightKerningGroup = O;
unicode = 00D0;
},
{
color = 4;
glyphname = E;
lastChange = "2021-06-22 11:15:53 +0000";
layers = (
{
anchors = (
{
name = bottom;
position = "{267, 0}";
},
{
name = ogonek;
position = "{481, 10}";
},
{
name = top;
position = "{267, 680}";
},
{
name = topleft;
position = "{20, 680}";
}
);
background = {
components = (
{
name = L;
transform = "{1, 0, 0, 1, 12, 0}";
}
);
};
hints = (
{
horizontal = 1;
place = "{-15, 21}";
type = Stem;
},
{
horizontal = 1;
place = "{325, 20}";
type = Stem;
},
{
horizontal = 1;
place = "{637, 13}";
type = Stem;
},
{
place = "{71, 181}";
type = Stem;
}
);
layerId = "1E8F490F-00FE-4BD6-A503-902369003CC3";
paths = (
{
closed = 1;
nodes = (
"519 0 LINE",
"519 179 LINE",
"503 179 LINE",
"503 71 OFFCURVE",
"469 35 OFFCURVE",
"385 35 CURVE SMOOTH",
"323 35 LINE SMOOTH",
"291 35 OFFCURVE",
"278 49 OFFCURVE",
"278 85 CURVE SMOOTH",
"278 342 LINE",
"359 342 LINE SMOOTH",
"420 342 OFFCURVE",
"432 305 OFFCURVE",
"432 268 CURVE",
"448 268 LINE",
"448 440 LINE",
"432 440 LINE",
"432 391 OFFCURVE",
"415 375 OFFCURVE",
"358 375 CURVE SMOOTH",
"278 375 LINE",
"278 645 LINE",
"371 645 LINE SMOOTH",
"470 645 OFFCURVE",
"484 599 OFFCURVE",
"484 521 CURVE",
"500 521 LINE",
"500 680 LINE",
"11 680 LINE",
"11 664 LINE",
"67 664 OFFCURVE",
"82 646 OFFCURVE",
"82 594 CURVE SMOOTH",
"82 86 LINE SMOOTH",
"82 34 OFFCURVE",
"67 16 OFFCURVE",
"11 16 CURVE",
"11 0 LINE"
);
}
);
width = 549;
},
{
anchors = (
{
name = bottom;
position = "{249, 0}";
},
{
name = ogonek;
position = "{435, 10}";
},
{
name = top;
position = "{249, 680}";
},
{
name = topleft;
position = "{37, 680}";
}
);
hints = (
{
horizontal = 1;
place = "{33, 21}";
target = up;
type = BottomGhost;
},
{
horizontal = 1;
place = "{713, -20}";
target = down;
type = TopGhost;
},
{
place = "{129, 62}";
type = Stem;
}
);
layerId = "07AD8005-5D45-4A63-B3CF-4E1D9502446D";
paths = (
{
closed = 1;
nodes = (
"433 0 LINE",
"433 117 LINE",
"423 117 LINE",
"423 9 OFFCURVE",
"397 10 OFFCURVE",
"323 10 CURVE SMOOTH",
"184 10 LINE SMOOTH",
"144 10 OFFCURVE",
"131 14 OFFCURVE",
"131 68 CURVE SMOOTH",
"131 354 LINE",
"283 354 LINE SMOOTH",
"341 354 OFFCURVE",
"353 350 OFFCURVE",
"353 298 CURVE",
"362 298 LINE",
"362 419 LINE",
"353 419 LINE",
"353 372 OFFCURVE",
"342 364 OFFCURVE",
"282 364 CURVE SMOOTH",
"131 364 LINE",
"131 671 LINE",
"309 671 LINE SMOOTH",
"398 671 OFFCURVE",
"408 658 OFFCURVE",
"408 585 CURVE",
"418 585 LINE",
"418 680 LINE",
"51 680 LINE",
"51 673 LINE",
"97 673 OFFCURVE",
"102 666 OFFCURVE",
"102 614 CURVE SMOOTH",
"102 66 LINE SMOOTH",
"102 14 OFFCURVE",
"97 7 OFFCURVE",
"51 7 CURVE",
"51 0 LINE"
);
}
);
width = 494;
},
{
anchors = (
{
name = bottom;
position = "{257, 0}";
},
{
name = ogonek;
position = "{459, 10}";
},
{
name = top;
position = "{257, 680}";
},
{
name = topleft;
position = "{25, 680}";
}
);
hints = (
{
horizontal = 1;
place = "{10, 32}";
type = Stem;
},
{
horizontal = 1;
place = "{357, 31}";
type = Stem;
},
{
horizontal = 1;
place = "{690, -20}";
target = down;
type = TopGhost;
},
{
place = "{116, 95}";
type = Stem;
}
);
layerId = "3FA0091B-41E8-4679-8383-4E36DA6A759B";
paths = (
{
closed = 1;
nodes = (
"469 0 LINE",
"469 159 LINE",
"453 159 LINE",
"453 51 OFFCURVE",
"418 22 OFFCURVE",
"324 22 CURVE SMOOTH",
"238 22 LINE SMOOTH",
"202 22 OFFCURVE",
"187 40 OFFCURVE",
"187 77 CURVE SMOOTH",
"187 347 LINE",
"293 347 LINE SMOOTH",
"354 347 OFFCURVE",
"382 324 OFFCURVE",
"382 281 CURVE",
"398 281 LINE",
"398 432 LINE",
"382 432 LINE",
"382 388 OFFCURVE",
"354 368 OFFCURVE",
"292 368 CURVE SMOOTH",
"187 368 LINE",
"187 658 LINE",
"328 658 LINE SMOOTH",
"427 658 OFFCURVE",
"439 619 OFFCURVE",
"439 546 CURVE",
"455 546 LINE",
"455 680 LINE",
"31 680 LINE",
"31 668 LINE",
"87 668 OFFCURVE",
"102 658 OFFCURVE",
"102 606 CURVE SMOOTH",
"102 74 LINE SMOOTH",
"102 22 OFFCURVE",
"87 12 OFFCURVE",
"31 12 CURVE",
"31 0 LINE"
);
}
);
width = 518;
}
);
leftKerningGroup = H;
leftMetricsKey = H;
note = E;
rightKerningGroup = E;
unicode = 0045;
},
{
color = 4;
glyphname = F;
lastChange = "2021-06-22 10:54:13 +0000";
layers = (
{
anchors = (
{
name = bottomright;
position = "{278, 0}";
},
{
name = top;
position = "{260, 680}";
}
);
hints = (
{
horizontal = 1;
place = "{-15, 21}";
target = up;
type = BottomGhost;
},
{
horizontal = 1;
place = "{325, 20}";
type = Stem;
},
{
horizontal = 1;
place = "{637, 13}";
type = Stem;
},
{
place = "{71, 181}";
type = Stem;
}
);
layerId = "1E8F490F-00FE-4BD6-A503-902369003CC3";
paths = (
{
closed = 1;
nodes = (
"11 0 LINE",
"368 0 LINE",
"368 16 LINE",
"293 16 OFFCURVE",
"278 34 OFFCURVE",
"278 86 CURVE SMOOTH",
"278 331 LINE",
"369 331 LINE SMOOTH",
"433 331 OFFCURVE",
"442 293 OFFCURVE",
"442 256 CURVE",
"458 256 LINE",
"458 430 LINE",
"442 430 LINE",
"442 381 OFFCURVE",
"428 365 OFFCURVE",
"368 365 CURVE SMOOTH",
"278 365 LINE",
"278 646 LINE",
"365 646 LINE SMOOTH",
"462 646 OFFCURVE",
"478 598 OFFCURVE",
"478 526 CURVE",
"494 526 LINE",
"494 680 LINE",
"11 680 LINE",
"11 664 LINE",
"67 664 OFFCURVE",
"82 646 OFFCURVE",
"82 594 CURVE SMOOTH",
"82 86 LINE SMOOTH",
"82 34 OFFCURVE",
"67 16 OFFCURVE",
"11 16 CURVE"
);
}
);
width = 517;
},
{
anchors = (
{
name = bottomright;
position = "{131, 0}";
},
{
name = top;
position = "{239, 680}";
}
);
hints = (
{
horizontal = 1;
place = "{33, 21}";
target = up;
type = BottomGhost;
},
{
horizontal = 1;
place = "{713, -20}";
target = down;
type = TopGhost;
},
{
place = "{129, 62}";
type = Stem;
}
);
layerId = "07AD8005-5D45-4A63-B3CF-4E1D9502446D";
paths = (
{
closed = 1;
nodes = (
"51 0 LINE",
"198 0 LINE",
"198 7 LINE",
"137 7 OFFCURVE",
"131 14 OFFCURVE",
"131 66 CURVE SMOOTH",
"131 343 LINE",
"283 343 LINE SMOOTH",
"344 343 OFFCURVE",
"353 337 OFFCURVE",
"353 285 CURVE",
"362 285 LINE",
"362 406 LINE",
"353 406 LINE",
"353 357 OFFCURVE",
"339 351 OFFCURVE",
"282 351 CURVE SMOOTH",
"131 351 LINE",
"131 671 LINE",
"289 671 LINE SMOOTH",
"378 671 OFFCURVE",
"388 658 OFFCURVE",
"388 585 CURVE",
"398 585 LINE",
"398 680 LINE",
"51 680 LINE",
"51 673 LINE",
"97 673 OFFCURVE",
"102 666 OFFCURVE",
"102 614 CURVE SMOOTH",
"102 66 LINE SMOOTH",
"102 14 OFFCURVE",
"97 7 OFFCURVE",
"51 7 CURVE"
);
}
);
width = 452;
},
{
anchors = (
{
name = bottomright;
position = "{187, 0}";
},
{
name = top;
position = "{269, 680}";
}
);
guideLines = (
{
angle = 180;
position = "{273, 368}";
}
);
hints = (
{
horizontal = 1;
place = "{10, 21}";
target = up;
type = BottomGhost;
},
{
horizontal = 1;
place = "{357, 31}";
type = Stem;
},
{
horizontal = 1;
place = "{690, -20}";
target = down;
type = TopGhost;
},
{
place = "{116, 95}";
type = Stem;
}
);
layerId = "3FA0091B-41E8-4679-8383-4E36DA6A759B";
paths = (
{
closed = 1;
nodes = (
"31 0 LINE",
"266 0 LINE",
"266 12 LINE",
"201 12 OFFCURVE",
"187 22 OFFCURVE",
"187 74 CURVE SMOOTH",
"187 336 LINE",
"319 336 LINE SMOOTH",
"380 336 OFFCURVE",
"402 309 OFFCURVE",
"402 264 CURVE",
"418 264 LINE",
"418 421 LINE",
"402 421 LINE",
"402 364 OFFCURVE",
"375 357 OFFCURVE",
"318 357 CURVE SMOOTH",
"187 357 LINE",
"187 664 LINE",
"315 664 LINE SMOOTH",
"418 664 OFFCURVE",
"438 619 OFFCURVE",
"438 546 CURVE",
"454 546 LINE",
"454 680 LINE",
"31 680 LINE",
"31 668 LINE",
"87 668 OFFCURVE",
"102 658 OFFCURVE",
"102 606 CURVE SMOOTH",
"102 74 LINE SMOOTH",
"102 22 OFFCURVE",
"87 12 OFFCURVE",
"31 12 CURVE"
);
}
);
width = 498;
}
);
leftKerningGroup = H;
leftMetricsKey = H;
note = F;
rightKerningGroup = F;
unicode = 0046;
},
{
color = 4;
glyphname = G;
lastChange = "2021-06-22 08:27:48 +0000";
layers = (
{
anchors = (
{
name = bottom;
position = "{348, 0}";
},
{
name = top;
position = "{348, 680}";
}
);
hints = (
{
horizontal = 1;
place = "{-26, 16}";
type = Stem;
},
{
horizontal = 1;
place = "{665, -20}";
target = down;
type = TopGhost;
},
{
place = "{22, 197}";
type = Stem;
},
{
place = "{378, 164}";
type = Stem;
},
{
horizontal = 1;
place = "{649, 11}";
type = Stem;
}
);
layerId = "1E8F490F-00FE-4BD6-A503-902369003CC3";
paths = (
{
closed = 1;
nodes = (
"415 -11 OFFCURVE",
"468 42 OFFCURVE",
"505 42 CURVE SMOOTH",
"521 42 OFFCURVE",
"531 32 OFFCURVE",
"541 17 CURVE",
"557 17 LINE",
"557 239 LINE SMOOTH",
"557 298 OFFCURVE",
"561 321 OFFCURVE",
"618 321 CURVE",
"618 339 LINE",
"307 339 LINE",
"307 321 LINE",
"359 321 OFFCURVE",
"378 306 OFFCURVE",
"378 239 CURVE SMOOTH",
"378 33 LINE",
"367 25 OFFCURVE",
"351 20 OFFCURVE",
"334 20 CURVE SMOOTH",
"260 20 OFFCURVE",
"234 116 OFFCURVE",
"234 318 CURVE SMOOTH",
"234 541 OFFCURVE",
"272 664 OFFCURVE",
"366 664 CURVE SMOOTH",
"436 664 OFFCURVE",
"497 592 OFFCURVE",
"520 446 CURVE",
"538 446 LINE",
"538 680 LINE",
"520 680 LINE",
"512 660 OFFCURVE",
"508 651 OFFCURVE",
"496 651 CURVE SMOOTH",
"476 651 OFFCURVE",
"447 690 OFFCURVE",
"347 690 CURVE SMOOTH",
"167 690 OFFCURVE",
"19 568 OFFCURVE",
"19 306 CURVE SMOOTH",
"19 49 OFFCURVE",
"185 -11 OFFCURVE",
"304 -11 CURVE SMOOTH"
);
}
);
width = 620;
},
{
anchors = (
{
name = bottom;
position = "{378, 0}";
},
{
name = top;
position = "{378, 680}";
}
);
hints = (
{
horizontal = 1;
place = "{22, 21}";
target = up;
type = BottomGhost;
},
{
horizontal = 1;
place = "{723, -20}";
target = down;
type = TopGhost;
},
{
place = "{67, 63}";
type = Stem;
},
{
place = "{555, 65}";
type = Stem;
},
{
horizontal = 1;
place = "{32, 21}";
target = up;
type = BottomGhost;
},
{
horizontal = 1;
place = "{716, -20}";
target = down;
type = TopGhost;
},
{
horizontal = 1;
place = "{713, -20}";
target = down;
type = TopGhost;
}
);
layerId = "07AD8005-5D45-4A63-B3CF-4E1D9502446D";
paths = (
{
closed = 1;
nodes = (
"466 -11 OFFCURVE",
"528 34 OFFCURVE",
"555 34 CURVE SMOOTH",
"566 34 OFFCURVE",
"571 28 OFFCURVE",
"577 13 CURVE",
"581 13 LINE",
"581 243 LINE SMOOTH",
"581 302 OFFCURVE",
"585 331 OFFCURVE",
"632 331 CURVE",
"632 339 LINE",
"488 339 LINE",
"488 331 LINE",
"540 331 OFFCURVE",
"549 310 OFFCURVE",
"549 243 CURVE SMOOTH",
"549 49 LINE",
"539 42 OFFCURVE",
"455 0 OFFCURVE",
"374 0 CURVE SMOOTH",
"236 0 OFFCURVE",
"91 122 OFFCURVE",
"91 333 CURVE SMOOTH",
"91 535 OFFCURVE",
"229 682 OFFCURVE",
"378 682 CURVE SMOOTH",
"454 682 OFFCURVE",
"559 644 OFFCURVE",
"576 516 CURVE",
"584 516 LINE",
"584 666 LINE",
"576 666 LINE",
"568 646 OFFCURVE",
"562 637 OFFCURVE",
"552 637 CURVE SMOOTH",
"535 637 OFFCURVE",
"490 690 OFFCURVE",
"383 690 CURVE SMOOTH",
"217 690 OFFCURVE",
"59 555 OFFCURVE",
"59 327 CURVE SMOOTH",
"59 92 OFFCURVE",
"226 -11 OFFCURVE",
"368 -11 CURVE SMOOTH"
);
}
);
width = 687;
},
{
anchors = (
{
name = bottom;
position = "{366, 0}";
},
{
name = top;
position = "{366, 680}";
}
);
hints = (
{
horizontal = 1;
place = "{-1, 21}";
target = up;
type = BottomGhost;
},
{
horizontal = 1;
place = "{690, -20}";
target = down;
type = TopGhost;
},
{
place = "{44, 102}";
type = Stem;
},
{
place = "{512, 95}";
type = Stem;
},
{
horizontal = 1;
place = "{700, -20}";
target = down;
type = TopGhost;
}
);
layerId = "3FA0091B-41E8-4679-8383-4E36DA6A759B";
paths = (
{
closed = 1;
nodes = (
"451 -11 OFFCURVE",
"526 35 OFFCURVE",
"559 35 CURVE SMOOTH",
"573 35 OFFCURVE",
"582 27 OFFCURVE",
"587 12 CURVE",
"598 12 LINE",
"598 243 LINE SMOOTH",
"598 302 OFFCURVE",
"602 325 OFFCURVE",
"659 325 CURVE",
"659 339 LINE",
"442 339 LINE",
"442 325 LINE",
"494 325 OFFCURVE",
"513 310 OFFCURVE",
"513 243 CURVE SMOOTH",
"513 52 LINE",
"503 45 OFFCURVE",
"445 7 OFFCURVE",
"369 7 CURVE SMOOTH",
"227 7 OFFCURVE",
"137 134 OFFCURVE",
"137 345 CURVE SMOOTH",
"137 547 OFFCURVE",
"224 675 OFFCURVE",
"369 675 CURVE SMOOTH",
"450 675 OFFCURVE",
"538 624 OFFCURVE",
"555 496 CURVE",
"568 496 LINE",
"568 680 LINE",
"555 680 LINE",
"547 660 OFFCURVE",
"540 657 OFFCURVE",
"529 657 CURVE SMOOTH",
"513 657 OFFCURVE",
"436 690 OFFCURVE",
"373 690 CURVE SMOOTH",
"207 690 OFFCURVE",
"39 557 OFFCURVE",
"39 323 CURVE SMOOTH",
"39 88 OFFCURVE",
"218 -11 OFFCURVE",
"362 -11 CURVE SMOOTH"
);
}
);
width = 681;
}
);
leftKerningGroup = O;
leftMetricsKey = O;
note = G;
rightKerningGroup = G;
unicode = 0047;
},
{
glyphname = Glottalstop;
lastChange = "2021-06-22 08:27:48 +0000";
layers = (
{
hints = (
{
horizontal = 1;
place = "{-15, 21}";
target = up;
type = BottomGhost;
},
{
horizontal = 1;
place = "{566, 94}";
type = Stem;
},
{
place = "{215, 161}";
type = Stem;
},
{
place = "{85, 180}";
type = Stem;
}
);
layerId = "1E8F490F-00FE-4BD6-A503-902369003CC3";
paths = (
{
closed = 1;
nodes = (
"46 0 LINE",
"383 0 LINE",
"383 16 LINE",
"347 16 OFFCURVE",
"312 34 OFFCURVE",
"312 86 CURVE SMOOTH",
"312 331 LINE",
"356 363 OFFCURVE",
"423 420 OFFCURVE",
"423 527 CURVE SMOOTH",
"423 638 OFFCURVE",
"329 690 OFFCURVE",
"232 690 CURVE SMOOTH",
"133 690 OFFCURVE",
"43 622 OFFCURVE",
"25 533 CURVE",
"41 533 LINE",
"59 561 OFFCURVE",
"100 581 OFFCURVE",
"139 581 CURVE SMOOTH",
"202 581 OFFCURVE",
"247 550 OFFCURVE",
"247 488 CURVE SMOOTH",
"247 412 OFFCURVE",
"175 346 OFFCURVE",
"117 300 CURVE",
"117 86 LINE SMOOTH",
"117 34 OFFCURVE",
"82 16 OFFCURVE",
"46 16 CURVE"
);
}
);
width = 453;
},
{
hints = (
{
horizontal = 1;
place = "{33, 21}";
target = up;
type = BottomGhost;
},
{
horizontal = 1;
place = "{713, -20}";
target = down;
type = TopGhost;
},
{
place = "{129, 62}";
type = Stem;
}
);
layerId = "07AD8005-5D45-4A63-B3CF-4E1D9502446D";
paths = (
{
closed = 1;
nodes = (
"166 0 LINE",
"297 0 LINE",
"297 7 LINE",
"251 7 OFFCURVE",
"246 14 OFFCURVE",
"246 66 CURVE SMOOTH",
"246 283 LINE",
"284 320 OFFCURVE",
"380 392 OFFCURVE",
"380 520 CURVE SMOOTH",
"380 638 OFFCURVE",
"299 690 OFFCURVE",
"216 690 CURVE SMOOTH",
"122 690 OFFCURVE",
"70 624 OFFCURVE",
"50 544 CURVE",
"56 544 LINE",
"78 618 OFFCURVE",
"135 673 OFFCURVE",
"211 673 CURVE SMOOTH",
"286 673 OFFCURVE",
"348 620 OFFCURVE",
"348 521 CURVE SMOOTH",
"348 400 OFFCURVE",
"256 331 OFFCURVE",
"217 295 CURVE",
"217 66 LINE SMOOTH",
"217 14 OFFCURVE",
"212 7 OFFCURVE",
"166 7 CURVE"
);
}
);
width = 467;
},
{
hints = (
{
horizontal = 1;
place = "{10, 21}";
target = up;
type = BottomGhost;
},
{
horizontal = 1;
place = "{650, 60}";
type = Stem;
},
{
place = "{176, 95}";
type = Stem;
},
{
place = "{324, 91}";
type = Stem;
}
);
layerId = "3FA0091B-41E8-4679-8383-4E36DA6A759B";
paths = (
{
closed = 1;
nodes = (
"105 0 LINE",
"332 0 LINE",
"332 12 LINE",
"296 12 OFFCURVE",
"261 22 OFFCURVE",
"261 74 CURVE SMOOTH",
"261 261 LINE",
"320 311 OFFCURVE",
"405 389 OFFCURVE",
"405 507 CURVE SMOOTH",
"405 616 OFFCURVE",
"333 690 OFFCURVE",
"226 690 CURVE SMOOTH",
"127 690 OFFCURVE",
"50 627 OFFCURVE",
"30 533 CURVE",
"42 533 LINE",
"67 601 OFFCURVE",
"136 640 OFFCURVE",
"198 640 CURVE SMOOTH",
"274 640 OFFCURVE",
"324 583 OFFCURVE",
"324 511 CURVE SMOOTH",
"324 424 OFFCURVE",
"252 352 OFFCURVE",
"176 287 CURVE",
"176 74 LINE SMOOTH",
"176 22 OFFCURVE",
"141 12 OFFCURVE",
"105 12 CURVE"
);
}
);
width = 472;
}
);
leftKerningGroup = Glottalstop;
note = uni0241;
rightKerningGroup = Glottalstop;
unicode = 0241;
},
{
color = 4;
glyphname = H;
lastChange = "2021-06-22 08:27:48 +0000";
layers = (
{
anchors = (
{
name = bottom;
position = "{366, 0}";
},
{
name = center;
position = "{366, 340}";
},
{
name = top;
position = "{366, 680}";
},
{
name = topleft;
position = "{20, 680}";
}
);
components = (
{
name = Serif;
transform = "{1, 0, 0, 1, 12, 0}";
},
{
name = Serif;
transform = "{1, 0, 0, -1, 12, 680}";
},
{
name = Serif;
transform = "{-1, 0, 0, 1, 719, 0}";
},
{
name = Serif;
transform = "{-1, 0, 0, -1, 719, 680}";
}
);
hints = (
{
horizontal = 1;
place = "{-15, 21}";
target = up;
type = BottomGhost;
},
{
horizontal = 1;
place = "{325, 20}";
type = Stem;
},
{
horizontal = 1;
place = "{665, -20}";
target = down;
type = TopGhost;
},
{
place = "{71, 180}";
type = Stem;
},
{
place = "{410, 180}";
type = Stem;
}
);
layerId = "1E8F490F-00FE-4BD6-A503-902369003CC3";
paths = (
{
closed = 1;
nodes = (
"649 86 LINE",
"649 594 LINE",
"453 594 LINE",
"453 86 LINE"
);
},
{
closed = 1;
nodes = (
"278 86 LINE",
"278 594 LINE",
"82 594 LINE",
"82 86 LINE"
);
},
{
closed = 1;
nodes = (
"462 340 LINE",
"462 375 LINE",
"270 375 LINE",
"270 340 LINE"
);
}
);
width = 731;
},
{
anchors = (
{
name = bottom;
position = "{321, 0}";
},
{
name = center;
position = "{321, 340}";
},
{
name = top;
position = "{321, 680}";
},
{
name = topleft;
position = "{37, 680}";
}
);
components = (
{
name = Serif;
transform = "{1, 0, 0, 1, -7, 0}";
},
{
name = Serif;
transform = "{1, 0, 0, -1, -7, 680}";
},
{
name = Serif;
transform = "{-1, 0, 0, 1, 649, 0}";
},
{
name = Serif;
transform = "{-1, 0, 0, -1, 649, 680}";
}
);
hints = (
{
horizontal = 1;
place = "{33, 21}";
target = up;
type = BottomGhost;
},
{
horizontal = 1;
place = "{713, -20}";
target = down;
type = TopGhost;
},
{
place = "{129, 62}";
type = Stem;
},
{
place = "{538, 62}";
type = Stem;
}
);
layerId = "07AD8005-5D45-4A63-B3CF-4E1D9502446D";
paths = (
{
closed = 1;
nodes = (
"540 66 LINE",
"540 614 LINE",
"511 614 LINE",
"511 66 LINE"
);
},
{
closed = 1;
nodes = (
"131 66 LINE",
"131 614 LINE",
"102 614 LINE",
"102 66 LINE"
);
},
{
closed = 1;
nodes = (
"513 355 LINE",
"513 365 LINE",
"129 365 LINE",
"129 355 LINE"
);
}
);
width = 642;
},
{
anchors = (
{
name = bottom;
position = "{349, 0}";
},
{
name = center;
position = "{349, 340}";
},
{
name = top;
position = "{349, 680}";
},
{
name = topleft;
position = "{25, 680}";
}
);
components = (
{
name = Serif;
transform = "{1, 0, 0, 1, 6, 0}";
},
{
name = Serif;
transform = "{1, 0, 0, -1, 6, 680}";
},
{
name = Serif;
transform = "{-1, 0, 0, 1, 691, 0}";
},
{
name = Serif;
transform = "{-1, 0, 0, -1, 691, 680}";
}
);
hints = (
{
horizontal = 1;
place = "{10, 21}";
target = up;
type = BottomGhost;
},
{
horizontal = 1;
place = "{357, 32}";
type = Stem;
},
{
horizontal = 1;
place = "{690, -20}";
target = down;
type = TopGhost;
},
{
place = "{116, 95}";
type = Stem;
},
{
place = "{525, 95}";
type = Stem;
}
);
layerId = "3FA0091B-41E8-4679-8383-4E36DA6A759B";
paths = (
{
closed = 1;
nodes = (
"595 74 LINE",
"595 606 LINE",
"510 606 LINE",
"510 74 LINE"
);
},
{
closed = 1;
nodes = (
"187 74 LINE",
"187 606 LINE",
"102 606 LINE",
"102 74 LINE"
);
},
{
closed = 1;
nodes = (
"517 347 LINE",
"517 369 LINE",
"182 369 LINE",
"182 347 LINE"
);
}
);
width = 697;
}
);
leftKerningGroup = H;
note = H;
rightKerningGroup = H;
rightMetricsKey = "=|";
unicode = 0048;
},
{
color = 4;
glyphname = Hbar;
lastChange = "2021-06-22 08:27:48 +0000";
layers = (
{
components = (
{
name = H;
}
);
hints = (
{
horizontal = 1;
place = "{-15, 21}";
target = up;
type = BottomGhost;
},
{
horizontal = 1;
place = "{325, 20}";
type = Stem;
},
{
horizontal = 1;
place = "{495, 20}";
type = Stem;
},
{
place = "{71, 180}";
type = Stem;
},
{
place = "{410, 180}";
type = Stem;
},
{
horizontal = 1;
place = "{495, 155}";
type = Stem;
}
);
layerId = "1E8F490F-00FE-4BD6-A503-902369003CC3";
paths = (
{
closed = 1;
nodes = (
"705 500 LINE",
"705 535 LINE",
"28 535 LINE",
"28 500 LINE"
);
}
);
width = 731;
},
{
components = (
{
name = H;
}
);
hints = (
{
horizontal = 1;
place = "{33, 21}";
target = up;
type = BottomGhost;
},
{
horizontal = 1;
place = "{713, -20}";
target = down;
type = TopGhost;
},
{
place = "{129, 62}";
type = Stem;
},
{
place = "{538, 62}";
type = Stem;
}
);
layerId = "07AD8005-5D45-4A63-B3CF-4E1D9502446D";
paths = (
{
closed = 1;
nodes = (
"596 513 LINE",
"596 523 LINE",
"46 523 LINE",
"46 513 LINE"
);
}
);
width = 642;
},
{
components = (
{
name = H;
}
);
hints = (
{
horizontal = 1;
place = "{10, 21}";
target = up;
type = BottomGhost;
},
{
horizontal = 1;
place = "{357, 32}";
type = Stem;
},
{
horizontal = 1;
place = "{690, -20}";
target = down;
type = TopGhost;
},
{
place = "{116, 95}";
type = Stem;
},
{
place = "{525, 95}";
type = Stem;
}
);
layerId = "3FA0091B-41E8-4679-8383-4E36DA6A759B";
paths = (
{
closed = 1;
nodes = (
"671 507 LINE",
"671 529 LINE",
"25 529 LINE",
"25 507 LINE"
);
}
);
width = 697;
}
);
leftKerningGroup = H;
note = Hbar;
rightKerningGroup = H;
unicode = 0126;
},
{
color = 4;
glyphname = I;
lastChange = "2021-06-22 08:27:48 +0000";
layers = (
{
anchors = (
{
name = bottom;
position = "{180, 0}";
},
{
name = ogonek;
position = "{324, 10}";
},
{
name = top;
position = "{180, 680}";
},
{
name = topleft;
position = "{20, 680}";
}
);
hints = (
{
horizontal = 1;
place = "{-15, 21}";
target = up;
type = BottomGhost;
},
{
horizontal = 1;
place = "{665, -20}";
target = down;
type = TopGhost;
},
{
place = "{71, 180}";
type = Stem;
}
);
layerId = "1E8F490F-00FE-4BD6-A503-902369003CC3";
paths = (
{
closed = 1;
nodes = (
"349 0 LINE",
"349 16 LINE",
"293 16 OFFCURVE",
"278 34 OFFCURVE",
"278 86 CURVE SMOOTH",
"278 594 LINE SMOOTH",
"278 646 OFFCURVE",
"293 664 OFFCURVE",
"349 664 CURVE",
"349 680 LINE",
"11 680 LINE",
"11 664 LINE",
"67 664 OFFCURVE",
"82 646 OFFCURVE",
"82 594 CURVE SMOOTH",
"82 86 LINE SMOOTH",
"82 34 OFFCURVE",
"67 16 OFFCURVE",
"11 16 CURVE",
"11 0 LINE"
);
}
);
width = 360;
},
{
anchors = (
{
name = bottom;
position = "{117, 0}";
},
{
name = ogonek;
position = "{182, 0}";
},
{
name = top;
position = "{117, 680}";
},
{
name = topleft;
position = "{6, 680}";
}
);
hints = (
{
horizontal = 1;
place = "{33, 21}";
target = up;
type = BottomGhost;
},
{
horizontal = 1;
place = "{713, -20}";
target = down;
type = TopGhost;
},
{
place = "{129, 62}";
type = Stem;
}
);
layerId = "07AD8005-5D45-4A63-B3CF-4E1D9502446D";
paths = (
{
closed = 1;
nodes = (
"182 0 LINE",
"182 7 LINE",
"136 7 OFFCURVE",
"131 14 OFFCURVE",
"131 66 CURVE SMOOTH",
"131 614 LINE SMOOTH",
"131 666 OFFCURVE",
"136 673 OFFCURVE",
"182 673 CURVE",
"182 680 LINE",
"51 680 LINE",
"51 673 LINE",
"97 673 OFFCURVE",
"102 666 OFFCURVE",
"102 614 CURVE SMOOTH",
"102 66 LINE SMOOTH",
"102 14 OFFCURVE",
"97 7 OFFCURVE",
"51 7 CURVE",
"51 0 LINE"
);
}
);
width = 233;
},
{
anchors = (
{
name = bottom;
position = "{146, 0}";
},
{
name = ogonek;
position = "{187, 0}";
},
{
name = top;
position = "{146, 680}";
},
{
name = topleft;
position = "{-4, 680}";
}
);
hints = (
{
horizontal = 1;
place = "{10, 21}";
target = up;
type = BottomGhost;
},
{
horizontal = 1;
place = "{690, -20}";
target = down;
type = TopGhost;
},
{
place = "{116, 95}";
type = Stem;
}
);
layerId = "3FA0091B-41E8-4679-8383-4E36DA6A759B";
paths = (
{
closed = 1;
nodes = (
"258 0 LINE",
"258 12 LINE",
"202 12 OFFCURVE",
"187 22 OFFCURVE",
"187 74 CURVE SMOOTH",
"187 606 LINE SMOOTH",
"187 658 OFFCURVE",
"202 668 OFFCURVE",
"258 668 CURVE",
"258 680 LINE",
"31 680 LINE",
"31 668 LINE",
"87 668 OFFCURVE",
"102 658 OFFCURVE",
"102 606 CURVE SMOOTH",
"102 74 LINE SMOOTH",
"102 22 OFFCURVE",
"87 12 OFFCURVE",
"31 12 CURVE",
"31 0 LINE"
);
}
);
width = 289;
}
);
leftKerningGroup = H;
leftMetricsKey = H;
note = I;
rightKerningGroup = H;
rightMetricsKey = "=|";
unicode = 0049;
},
{
color = 4;
glyphname = Istroke;
lastChange = "2021-06-22 08:27:48 +0000";
layers = (
{
components = (
{
name = I;
}
);
hints = (
{
horizontal = 1;
place = "{-15, 21}";
target = up;
type = BottomGhost;
},
{
horizontal = 1;
place = "{325, 20}";
type = Stem;
},
{
horizontal = 1;
place = "{665, -20}";
target = down;
type = TopGhost;
},
{
place = "{71, 180}";
type = Stem;
}
);
layerId = "1E8F490F-00FE-4BD6-A503-902369003CC3";
paths = (
{
closed = 1;
nodes = (
"345 340 LINE",
"345 375 LINE",
"15 375 LINE",
"15 340 LINE"
);
}
);
width = 360;
},
{
components = (
{
name = I;
}
);
hints = (
{
horizontal = 1;
place = "{33, 21}";
target = up;
type = BottomGhost;
},
{
horizontal = 1;
place = "{713, -20}";
target = down;
type = TopGhost;
},
{
place = "{129, 62}";
type = Stem;
}
);
layerId = "07AD8005-5D45-4A63-B3CF-4E1D9502446D";
paths = (
{
closed = 1;
nodes = (
"197 353 LINE",
"197 363 LINE",
"36 363 LINE",
"36 353 LINE"
);
}
);
width = 233;
},
{
components = (
{
name = I;
}
);
hints = (
{
horizontal = 1;
place = "{10, 21}";
target = up;
type = BottomGhost;
},
{
horizontal = 1;
place = "{357, 32}";
type = Stem;
},
{
horizontal = 1;
place = "{690, -20}";
target = down;
type = TopGhost;
},
{
place = "{116, 95}";
type = Stem;
}
);
layerId = "3FA0091B-41E8-4679-8383-4E36DA6A759B";
paths = (
{
closed = 1;
nodes = (
"263 347 LINE",
"263 369 LINE",
"26 369 LINE",
"26 347 LINE"
);
}
);
width = 289;
}
);
leftKerningGroup = H;
note = uni0197;
rightKerningGroup = H;
unicode = 0197;
},
{
color = 4;
glyphname = J;
lastChange = "2021-06-22 08:27:48 +0000";
layers = (
{
anchors = (
{
name = top;
position = "{174, 680}";
}
);
hints = (
{
horizontal = 1;
place = "{-166, 21}";
target = up;
type = BottomGhost;
},
{
horizontal = 1;
place = "{665, -20}";
target = down;
type = TopGhost;
},
{
place = "{71, 180}";
type = Stem;
}
);
layerId = "1E8F490F-00FE-4BD6-A503-902369003CC3";
paths = (
{
closed = 1;
nodes = (
"-7 -151 LINE",
"113 -132 OFFCURVE",
"275 -96 OFFCURVE",
"275 112 CURVE SMOOTH",
"275 594 LINE SMOOTH",
"275 646 OFFCURVE",
"290 664 OFFCURVE",
"346 664 CURVE",
"346 680 LINE",
"8 680 LINE",
"8 664 LINE",
"64 664 OFFCURVE",
"79 646 OFFCURVE",
"79 594 CURVE SMOOTH",
"79 85 LINE SMOOTH",
"79 -74 OFFCURVE",
"60 -117 OFFCURVE",
"-7 -135 CURVE"
);
}
);
width = 357;
},
{
anchors = (
{
name = top;
position = "{123, 680}";
}
);
hints = (
{
horizontal = 1;
place = "{-118, 21}";
target = up;
type = BottomGhost;
},
{
horizontal = 1;
place = "{713, -20}";
target = down;
type = TopGhost;
},
{
place = "{129, 62}";
type = Stem;
}
);
layerId = "07AD8005-5D45-4A63-B3CF-4E1D9502446D";
paths = (
{
closed = 1;
nodes = (
"2 -151 LINE",
"90 -129 OFFCURVE",
"137 -108 OFFCURVE",
"137 78 CURVE SMOOTH",
"137 614 LINE SMOOTH",
"137 666 OFFCURVE",
"142 673 OFFCURVE",
"188 673 CURVE",
"188 680 LINE",
"57 680 LINE",
"57 673 LINE",
"103 673 OFFCURVE",
"108 666 OFFCURVE",
"108 614 CURVE SMOOTH",
"108 65 LINE SMOOTH",
"108 -94 OFFCURVE",
"69 -124 OFFCURVE",
"2 -142 CURVE"
);
}
);
width = 233;
},
{
anchors = (
{
name = top;
position = "{141, 680}";
}
);
hints = (
{
horizontal = 1;
place = "{-141, 21}";
target = up;
type = BottomGhost;
},
{
horizontal = 1;
place = "{690, -20}";
target = down;
type = TopGhost;
},
{
place = "{116, 95}";
type = Stem;
}
);
layerId = "3FA0091B-41E8-4679-8383-4E36DA6A759B";
paths = (
{
closed = 1;
nodes = (
"-10 -151 LINE",
"105 -118 OFFCURVE",
"181 -96 OFFCURVE",
"181 112 CURVE SMOOTH",
"181 606 LINE SMOOTH",
"181 658 OFFCURVE",
"196 668 OFFCURVE",
"252 668 CURVE",
"252 680 LINE",
"25 680 LINE",
"25 668 LINE",
"81 668 OFFCURVE",
"96 658 OFFCURVE",
"96 606 CURVE SMOOTH",
"96 85 LINE SMOOTH",
"96 -74 OFFCURVE",
"57 -124 OFFCURVE",
"-10 -142 CURVE"
);
}
);
width = 277;
}
);
leftKerningGroup = J;
note = J;
rightKerningGroup = J;
unicode = 004A;
},
{
color = 4;
glyphname = K;
lastChange = "2021-06-22 11:25:07 +0000";
layers = (
{
anchors = (
{
name = bottom;
position = "{326, 0}";
},
{
name = top;
position = "{331, 680}";
}
);
hints = (
{
horizontal = 1;
place = "{-15, 21}";
target = up;
type = BottomGhost;
},
{
horizontal = 1;
place = "{665, -20}";
target = down;
type = TopGhost;
},
{
place = "{266, 160}";
type = Stem;
},
{
place = "{71, 180}";
type = Stem;
}
);
layerId = "1E8F490F-00FE-4BD6-A503-902369003CC3";
paths = (
{
closed = 1;
nodes = (
"336 0 LINE",
"336 16 LINE",
"281 16 OFFCURVE",
"278 34 OFFCURVE",
"278 86 CURVE SMOOTH",
"278 349 LINE",
"279 349 LINE",
"412 70 LINE SMOOTH",
"433 27 OFFCURVE",
"426 16 OFFCURVE",
"385 16 CURVE",
"385 0 LINE",
"700 0 LINE",
"700 16 LINE",
"667 16 OFFCURVE",
"660 25 OFFCURVE",
"640 63 CURVE SMOOTH",
"413 502 LINE",
"411 470 LINE",
"451 513 OFFCURVE",
"477 541 OFFCURVE",
"519 593 CURVE SMOOTH",
"571 658 OFFCURVE",
"600 664 OFFCURVE",
"649 664 CURVE",
"649 680 LINE",
"416 680 LINE",
"416 664 LINE",
"499 664 OFFCURVE",
"527 648 OFFCURVE",
"429 533 CURVE SMOOTH",
"381 477 OFFCURVE",
"325 416 OFFCURVE",
"279 370 CURVE",
"278 370 LINE",
"278 594 LINE SMOOTH",
"278 646 OFFCURVE",
"290 664 OFFCURVE",
"345 664 CURVE",
"345 680 LINE",
"11 680 LINE",
"11 664 LINE",
"67 664 OFFCURVE",
"82 646 OFFCURVE",
"82 594 CURVE SMOOTH",
"82 86 LINE SMOOTH",
"82 34 OFFCURVE",
"67 16 OFFCURVE",
"11 16 CURVE",
"11 0 LINE"
);
}
);
width = 685;
},
{
anchors = (
{
name = bottom;
position = "{296, 0}";
},
{
name = top;
position = "{281, 680}";
}
);
hints = (
{
horizontal = 1;
place = "{33, 21}";
target = up;
type = BottomGhost;
},
{
horizontal = 1;
place = "{713, -20}";
target = down;
type = TopGhost;
},
{
place = "{129, 62}";
type = Stem;
}
);
layerId = "07AD8005-5D45-4A63-B3CF-4E1D9502446D";
paths = (
{
closed = 1;
nodes = (
"182 0 LINE",
"182 7 LINE",
"136 7 OFFCURVE",
"131 14 OFFCURVE",
"131 66 CURVE SMOOTH",
"131 358 LINE",
"132 358 LINE",
"424 52 LINE SMOOTH",
"461 13 OFFCURVE",
"462 7 OFFCURVE",
"422 7 CURVE",
"422 0 LINE",
"552 0 LINE",
"552 7 LINE",
"519 7 OFFCURVE",
"500 15 OFFCURVE",
"454 62 CURVE SMOOTH",
"148 380 LINE",
"140 361 LINE",
"212 427 OFFCURVE",
"294 503 OFFCURVE",
"370 577 CURVE SMOOTH",
"465 669 OFFCURVE",
"477 673 OFFCURVE",
"510 673 CURVE",
"510 680 LINE",
"383 680 LINE",
"383 673 LINE",
"434 673 OFFCURVE",
"437 656 OFFCURVE",
"364 585 CURVE SMOOTH",
"280 504 OFFCURVE",
"222 448 OFFCURVE",
"132 365 CURVE",
"131 365 LINE",
"131 614 LINE SMOOTH",
"131 666 OFFCURVE",
"136 673 OFFCURVE",
"182 673 CURVE",
"182 680 LINE",
"51 680 LINE",
"51 673 LINE",
"97 673 OFFCURVE",
"102 666 OFFCURVE",
"102 614 CURVE SMOOTH",
"102 66 LINE SMOOTH",
"102 14 OFFCURVE",
"97 7 OFFCURVE",
"51 7 CURVE",
"51 0 LINE"
);
}
);
width = 567;
},
{
anchors = (
{
name = bottom;
position = "{316, 0}";
},
{
name = top;
position = "{301, 680}";
}
);
hints = (
{
horizontal = 1;
place = "{10, 21}";
target = up;
type = BottomGhost;
},
{
horizontal = 1;
place = "{690, -20}";
target = down;
type = TopGhost;
},
{
place = "{116, 95}";
type = Stem;
}
);
layerId = "3FA0091B-41E8-4679-8383-4E36DA6A759B";
paths = (
{
closed = 1;
nodes = (
"258 0 LINE",
"258 12 LINE",
"202 12 OFFCURVE",
"187 22 OFFCURVE",
"187 74 CURVE SMOOTH",
"187 348 LINE",
"188 348 LINE",
"406 70 LINE SMOOTH",
"437 31 OFFCURVE",
"429 12 OFFCURVE",
"382 12 CURVE",
"382 0 LINE",
"623 0 LINE",
"623 12 LINE",
"590 12 OFFCURVE",
"552 31 OFFCURVE",
"526 63 CURVE SMOOTH",
"243 412 LINE",
"231 380 LINE",
"302 450 OFFCURVE",
"364 513 OFFCURVE",
"431 584 CURVE SMOOTH",
"491 649 OFFCURVE",
"523 668 OFFCURVE",
"564 668 CURVE",
"564 680 LINE",
"373 680 LINE",
"373 668 LINE",
"446 668 OFFCURVE",
"450 634 OFFCURVE",
"360 536 CURVE SMOOTH",
"303 474 OFFCURVE",
"249 420 OFFCURVE",
"188 360 CURVE",
"187 360 LINE",
"187 606 LINE SMOOTH",
"187 658 OFFCURVE",
"202 668 OFFCURVE",
"258 668 CURVE",
"258 680 LINE",
"31 680 LINE",
"31 668 LINE",
"87 668 OFFCURVE",
"102 658 OFFCURVE",
"102 606 CURVE SMOOTH",
"102 74 LINE SMOOTH",
"102 22 OFFCURVE",
"87 12 OFFCURVE",
"31 12 CURVE",
"31 0 LINE"
);
}
);
width = 617;
},
{
anchors = (
{
name = bottom;
position = "{329, 0}";
},
{
name = top;
position = "{334, 680}";
}
);
associatedMasterId = "1E8F490F-00FE-4BD6-A503-902369003CC3";
hints = (
{
horizontal = 1;
place = "{0, 21}";
target = up;
type = BottomGhost;
},
{
horizontal = 1;
place = "{680, -20}";
target = down;
type = TopGhost;
},
{
place = "{281, 175}";
type = Stem;
},
{
place = "{86, 195}";
type = Stem;
}
);
layerId = "B08A2FBA-AE9C-450E-BF53-F3C14F614AFA";
name = "Apr 20 21, 15:00";
paths = (
{
closed = 1;
nodes = (
"339 0 LINE",
"339 16 LINE",
"284 16 OFFCURVE",
"281 34 OFFCURVE",
"281 86 CURVE SMOOTH",
"281 320 LINE",
"282 320 LINE",
"385 70 LINE SMOOTH",
"404 24 OFFCURVE",
"399 16 OFFCURVE",
"368 16 CURVE",
"368 0 LINE",
"673 0 LINE",
"673 16 LINE",
"640 16 OFFCURVE",
"631 25 OFFCURVE",
"613 63 CURVE SMOOTH",
"418 470 LINE",
"430 488 OFFCURVE",
"466 541 OFFCURVE",
"500 584 CURVE SMOOTH",
"552 649 OFFCURVE",
"573 664 OFFCURVE",
"622 664 CURVE",
"622 680 LINE",
"389 680 LINE",
"389 664 LINE",
"472 664 OFFCURVE",
"480 619 OFFCURVE",
"402 504 CURVE SMOOTH",
"361 443 OFFCURVE",
"322 390 OFFCURVE",
"283 343 CURVE",
"281 343 LINE",
"281 594 LINE SMOOTH",
"281 646 OFFCURVE",
"293 664 OFFCURVE",
"348 664 CURVE",
"348 680 LINE",
"14 680 LINE",
"14 664 LINE",
"70 664 OFFCURVE",
"85 646 OFFCURVE",
"85 594 CURVE SMOOTH",
"85 86 LINE SMOOTH",
"85 34 OFFCURVE",
"70 16 OFFCURVE",
"14 16 CURVE",
"14 0 LINE"
);
}
);
width = 670;
}
);
leftKerningGroup = H;
leftMetricsKey = H;
note = K;
rightKerningGroup = K;
unicode = 004B;
},
{
color = 4;
glyphname = L;
lastChange = "2021-06-22 10:19:32 +0000";
layers = (
{
anchors = (
{
name = bottom;
position = "{313, 0}";
},
{
name = center;
position = "{407, 340}";
},
{
name = top;
position = "{181, 680}";
},
{
name = topright;
position = "{439, 680}";
}
);
hints = (
{
horizontal = 1;
place = "{-15, 21}";
type = Stem;
},
{
horizontal = 1;
place = "{665, -20}";
target = down;
type = TopGhost;
},
{
place = "{71, 181}";
type = Stem;
}
);
layerId = "1E8F490F-00FE-4BD6-A503-902369003CC3";
paths = (
{
closed = 1;
nodes = (
"11 0 LINE",
"525 0 LINE",
"525 179 LINE",
"509 179 LINE",
"509 72 OFFCURVE",
"474 36 OFFCURVE",
"380 36 CURVE SMOOTH",
"335 36 LINE SMOOTH",
"300 36 OFFCURVE",
"278 43 OFFCURVE",
"278 96 CURVE SMOOTH",
"278 594 LINE SMOOTH",
"278 646 OFFCURVE",
"293 664 OFFCURVE",
"349 664 CURVE",
"349 680 LINE",
"11 680 LINE",
"11 664 LINE",
"67 664 OFFCURVE",
"82 646 OFFCURVE",
"82 594 CURVE SMOOTH",
"82 86 LINE SMOOTH",
"82 34 OFFCURVE",
"67 16 OFFCURVE",
"11 16 CURVE"
);
}
);
width = 532;
},
{
anchors = (
{
name = bottom;
position = "{248, 0}";
},
{
name = center;
position = "{277, 340}";
},
{
name = top;
position = "{116, 680}";
},
{
name = topright;
position = "{294, 680}";
}
);
hints = (
{
horizontal = 1;
place = "{33, 21}";
target = up;
type = BottomGhost;
},
{
horizontal = 1;
place = "{713, -20}";
target = down;
type = TopGhost;
},
{
place = "{129, 62}";
type = Stem;
}
);
layerId = "07AD8005-5D45-4A63-B3CF-4E1D9502446D";
paths = (
{
closed = 1;
nodes = (
"51 0 LINE",
"439 0 LINE",
"439 117 LINE",
"429 117 LINE",
"429 12 OFFCURVE",
"409 10 OFFCURVE",
"335 10 CURVE SMOOTH",
"181 10 LINE SMOOTH",
"139 10 OFFCURVE",
"131 14 OFFCURVE",
"131 66 CURVE SMOOTH",
"131 614 LINE SMOOTH",
"131 666 OFFCURVE",
"136 673 OFFCURVE",
"182 673 CURVE",
"182 680 LINE",
"51 680 LINE",
"51 673 LINE",
"97 673 OFFCURVE",
"102 666 OFFCURVE",
"102 614 CURVE SMOOTH",
"102 66 LINE SMOOTH",
"102 14 OFFCURVE",
"97 7 OFFCURVE",
"51 7 CURVE"
);
}
);
width = 459;
},
{
anchors = (
{
name = bottom;
position = "{278, 0}";
},
{
name = center;
position = "{307, 340}";
},
{
name = top;
position = "{146, 680}";
},
{
name = topright;
position = "{354, 680}";
}
);
hints = (
{
horizontal = 1;
place = "{10, 32}";
type = Stem;
},
{
horizontal = 1;
place = "{690, -20}";
target = down;
type = TopGhost;
},
{
place = "{116, 95}";
type = Stem;
}
);
layerId = "3FA0091B-41E8-4679-8383-4E36DA6A759B";
paths = (
{
closed = 1;
nodes = (
"31 0 LINE",
"470 0 LINE",
"470 159 LINE",
"454 159 LINE",
"454 51 OFFCURVE",
"429 22 OFFCURVE",
"325 22 CURVE SMOOTH",
"231 22 LINE SMOOTH",
"199 22 OFFCURVE",
"187 30 OFFCURVE",
"187 74 CURVE SMOOTH",
"187 606 LINE SMOOTH",
"187 658 OFFCURVE",
"203 668 OFFCURVE",
"262 668 CURVE",
"262 680 LINE",
"31 680 LINE",
"31 668 LINE",
"87 668 OFFCURVE",
"102 658 OFFCURVE",
"102 606 CURVE SMOOTH",
"102 74 LINE SMOOTH",
"102 22 OFFCURVE",
"87 12 OFFCURVE",
"31 12 CURVE"
);
}
);
width = 489;
}
);
leftKerningGroup = H;
leftMetricsKey = H;
note = L;
rightKerningGroup = L;
unicode = 004C;
},
{
color = 4;
glyphname = Lslash;
lastChange = "2021-06-22 08:27:48 +0000";
layers = (
{
components = (
{
name = L;
}
);
hints = (
{
horizontal = 1;
place = "{-15, 21}";
type = Stem;
},
{
horizontal = 1;
place = "{665, -20}";
target = down;
type = TopGhost;
},
{
place = "{71, 181}";
type = Stem;
}
);
layerId = "1E8F490F-00FE-4BD6-A503-902369003CC3";
paths = (
{
closed = 1;
nodes = (
"14 254 LINE",
"440 399 LINE",
"440 432 LINE",
"14 287 LINE"
);
}
);
width = 517;
},
{
components = (
{
name = L;
}
);
hints = (
{
horizontal = 1;
place = "{33, 21}";
target = up;
type = BottomGhost;
},
{
horizontal = 1;
place = "{713, -20}";
target = down;
type = TopGhost;
},
{
place = "{129, 62}";
type = Stem;
}
);
layerId = "07AD8005-5D45-4A63-B3CF-4E1D9502446D";
paths = (
{
closed = 1;
nodes = (
"16 238 LINE",
"332 382 LINE",
"332 392 LINE",
"16 248 LINE"
);
}
);
width = 477;
},
{
components = (
{
name = L;
}
);
hints = (
{
horizontal = 1;
place = "{10, 32}";
type = Stem;
},
{
horizontal = 1;
place = "{690, -20}";
target = down;
type = TopGhost;
},
{
place = "{116, 95}";
type = Stem;
}
);
layerId = "3FA0091B-41E8-4679-8383-4E36DA6A759B";
paths = (
{
closed = 1;
nodes = (
"33 264 LINE",
"379 408 LINE",
"379 431 LINE",
"33 287 LINE"
);
}
);
width = 487;
}
);
leftKerningGroup = H;
note = Lslash;
rightKerningGroup = L;
unicode = 0141;
},
{
color = 4;
glyphname = M;
lastChange = "2021-06-22 11:59:22 +0000";
layers = (
{
anchors = (
{
name = bottom;
position = "{348, 0}";
},
{
name = bottomright;
position = "{746, 0}";
},
{
name = top;
position = "{408, 680}";
}
);
hints = (
{
horizontal = 1;
place = "{-15, 21}";
target = up;
type = BottomGhost;
},
{
horizontal = 1;
place = "{665, -20}";
target = down;
type = TopGhost;
},
{
place = "{71, 20}";
type = Stem;
},
{
place = "{536, 180}";
type = Stem;
}
);
layerId = "1E8F490F-00FE-4BD6-A503-902369003CC3";
paths = (
{
closed = 1;
nodes = (
"11 0 LINE",
"188 0 LINE",
"188 16 LINE",
"132 16 OFFCURVE",
"117 34 OFFCURVE",
"117 86 CURVE SMOOTH",
"117 573 LINE",
"118 573 LINE",
"321 0 LINE",
"336 0 LINE",
"549 574 LINE",
"550 574 LINE",
"550 86 LINE SMOOTH",
"550 34 OFFCURVE",
"535 16 OFFCURVE",
"479 16 CURVE",
"479 0 LINE",
"817 0 LINE",
"817 16 LINE",
"761 16 OFFCURVE",
"746 34 OFFCURVE",
"746 86 CURVE SMOOTH",
"746 594 LINE SMOOTH",
"746 646 OFFCURVE",
"761 664 OFFCURVE",
"817 664 CURVE",
"817 680 LINE",
"550 680 LINE",
"418 315 LINE",
"416 315 LINE",
"279 680 LINE",
"11 680 LINE",
"11 664 LINE",
"67 664 OFFCURVE",
"82 646 OFFCURVE",
"82 594 CURVE SMOOTH",
"82 86 LINE SMOOTH",
"82 34 OFFCURVE",
"67 16 OFFCURVE",
"11 16 CURVE"
);
}
);
width = 828;
},
{
anchors = (
{
name = bottom;
position = "{376, 0}";
},
{
name = bottomright;
position = "{673, 0}";
},
{
name = top;
position = "{384, 680}";
}
);
hints = (
{
horizontal = 1;
place = "{33, 21}";
target = up;
type = BottomGhost;
},
{
horizontal = 1;
place = "{713, -20}";
target = down;
type = TopGhost;
},
{
place = "{671, 62}";
type = Stem;
}
);
layerId = "07AD8005-5D45-4A63-B3CF-4E1D9502446D";
paths = (
{
closed = 1;
nodes = (
"51 0 LINE",
"163 0 LINE",
"163 7 LINE",
"117 7 OFFCURVE",
"112 14 OFFCURVE",
"112 66 CURVE SMOOTH",
"112 647 LINE",
"113 647 LINE",
"374 0 LINE",
"382 0 LINE",
"643 647 LINE",
"644 647 LINE",
"644 66 LINE SMOOTH",
"644 14 OFFCURVE",
"639 7 OFFCURVE",
"593 7 CURVE",
"593 0 LINE",
"724 0 LINE",
"724 7 LINE",
"678 7 OFFCURVE",
"673 14 OFFCURVE",
"673 66 CURVE SMOOTH",
"673 614 LINE SMOOTH",
"673 666 OFFCURVE",
"678 673 OFFCURVE",
"724 673 CURVE",
"724 680 LINE",
"646 680 LINE",
"389 44 LINE",
"387 44 LINE",
"131 680 LINE",
"51 680 LINE",
"51 673 LINE",
"97 673 OFFCURVE",
"102 666 OFFCURVE",
"102 614 CURVE SMOOTH",
"102 66 LINE SMOOTH",
"102 14 OFFCURVE",
"97 7 OFFCURVE",
"51 7 CURVE"
);
}
);
width = 775;
},
{
anchors = (
{
name = bottom;
position = "{394, 0}";
},
{
name = bottomright;
position = "{747, 0}";
},
{
name = top;
position = "{418, 680}";
}
);
hints = (
{
horizontal = 1;
place = "{10, 21}";
target = up;
type = BottomGhost;
},
{
horizontal = 1;
place = "{690, -20}";
target = down;
type = TopGhost;
},
{
place = "{116, 33}";
type = Stem;
},
{
place = "{671, 95}";
type = Stem;
}
);
layerId = "3FA0091B-41E8-4679-8383-4E36DA6A759B";
paths = (
{
closed = 1;
nodes = (
"31 0 LINE",
"196 0 LINE",
"196 12 LINE",
"140 12 OFFCURVE",
"125 30 OFFCURVE",
"125 82 CURVE SMOOTH",
"125 614 LINE",
"127 614 LINE",
"387 0 LINE",
"405 0 LINE",
"661 614 LINE",
"662 614 LINE",
"662 74 LINE SMOOTH",
"662 22 OFFCURVE",
"647 12 OFFCURVE",
"591 12 CURVE",
"591 0 LINE",
"818 0 LINE",
"818 12 LINE",
"762 12 OFFCURVE",
"747 22 OFFCURVE",
"747 74 CURVE SMOOTH",
"747 606 LINE SMOOTH",
"747 658 OFFCURVE",
"762 668 OFFCURVE",
"818 668 CURVE",
"818 680 LINE",
"665 680 LINE",
"432 122 LINE",
"430 122 LINE",
"194 680 LINE",
"31 680 LINE",
"31 668 LINE",
"87 668 OFFCURVE",
"102 658 OFFCURVE",
"102 606 CURVE SMOOTH",
"102 82 LINE SMOOTH",
"102 30 OFFCURVE",
"87 12 OFFCURVE",
"31 12 CURVE"
);
}
);
width = 849;
}
);
leftKerningGroup = H;
leftMetricsKey = H;
note = M;
rightKerningGroup = H;
rightMetricsKey = H;
unicode = 004D;
},
{
color = 4;
glyphname = N;
lastChange = "2021-06-22 08:27:48 +0000";
layers = (
{
anchors = (
{
name = bottom;
position = "{327, 0}";
},
{
name = top;
position = "{327, 680}";
}
);
hints = (
{
horizontal = 1;
place = "{-21, 21}";
target = up;
type = BottomGhost;
},
{
horizontal = 1;
place = "{665, -20}";
target = down;
type = TopGhost;
},
{
place = "{64, 20}";
type = Stem;
},
{
place = "{494, 20}";
type = Stem;
},
{
horizontal = 1;
place = "{-15, 21}";
target = up;
type = BottomGhost;
}
);
layerId = "1E8F490F-00FE-4BD6-A503-902369003CC3";
paths = (
{
closed = 1;
nodes = (
"563 -6 LINE",
"577 -6 LINE",
"577 594 LINE SMOOTH",
"577 646 OFFCURVE",
"583 664 OFFCURVE",
"643 664 CURVE",
"643 680 LINE",
"473 680 LINE",
"473 664 LINE",
"534 664 OFFCURVE",
"542 646 OFFCURVE",
"542 594 CURVE SMOOTH",
"542 294 LINE",
"568 339 LINE",
"496 339 LINE",
"568 303 LINE",
"263 680 LINE",
"11 680 LINE",
"11 664 LINE",
"57 664 OFFCURVE",
"82 642 OFFCURVE",
"82 574 CURVE SMOOTH",
"82 86 LINE SMOOTH",
"82 34 OFFCURVE",
"67 16 OFFCURVE",
"11 16 CURVE",
"11 0 LINE",
"187 0 LINE",
"187 16 LINE",
"125 16 OFFCURVE",
"117 34 OFFCURVE",
"117 86 CURVE SMOOTH",
"117 548 LINE",
"118 548 LINE"
);
}
);
width = 654;
},
{
anchors = (
{
name = bottom;
position = "{323, 0}";
},
{
name = top;
position = "{323, 680}";
}
);
hints = (
{
horizontal = 1;
place = "{27, 21}";
target = up;
type = BottomGhost;
},
{
horizontal = 1;
place = "{713, -20}";
target = down;
type = TopGhost;
},
{
horizontal = 1;
place = "{33, 21}";
target = up;
type = BottomGhost;
}
);
layerId = "07AD8005-5D45-4A63-B3CF-4E1D9502446D";
paths = (
{
closed = 1;
nodes = (
"535 -6 LINE",
"544 -6 LINE",
"544 614 LINE SMOOTH",
"544 666 OFFCURVE",
"549 673 OFFCURVE",
"595 673 CURVE",
"595 680 LINE",
"483 680 LINE",
"483 673 LINE",
"529 673 OFFCURVE",
"534 666 OFFCURVE",
"534 614 CURVE SMOOTH",
"534 6 LINE",
"541 51 LINE",
"510 51 LINE",
"543 36 LINE",
"123 680 LINE",
"51 680 LINE",
"51 673 LINE",
"97 673 OFFCURVE",
"102 666 OFFCURVE",
"102 614 CURVE SMOOTH",
"102 66 LINE SMOOTH",
"102 14 OFFCURVE",
"97 7 OFFCURVE",
"51 7 CURVE",
"51 0 LINE",
"163 0 LINE",
"163 7 LINE",
"117 7 OFFCURVE",
"112 14 OFFCURVE",
"112 66 CURVE SMOOTH",
"112 639 LINE",
"113 639 LINE"
);
}
);
width = 646;
},
{
anchors = (
{
name = bottom;
position = "{331, 0}";
},
{
name = top;
position = "{331, 680}";
}
);
hints = (
{
horizontal = 1;
place = "{4, 21}";
target = up;
type = BottomGhost;
},
{
horizontal = 1;
place = "{690, -20}";
target = down;
type = TopGhost;
},
{
place = "{96, 33}";
type = Stem;
},
{
place = "{538, 33}";
type = Stem;
},
{
horizontal = 1;
place = "{10, 21}";
target = up;
type = BottomGhost;
}
);
layerId = "3FA0091B-41E8-4679-8383-4E36DA6A759B";
paths = (
{
closed = 1;
nodes = (
"549 -6 LINE",
"563 -6 LINE",
"563 598 LINE SMOOTH",
"563 650 OFFCURVE",
"569 668 OFFCURVE",
"630 668 CURVE",
"630 680 LINE",
"471 680 LINE",
"471 668 LINE",
"532 668 OFFCURVE",
"540 650 OFFCURVE",
"540 598 CURVE SMOOTH",
"540 120 LINE",
"552 165 LINE",
"494 165 LINE",
"560 135 LINE",
"178 680 LINE",
"32 680 LINE",
"32 668 LINE",
"78 668 OFFCURVE",
"98 646 OFFCURVE",
"98 594 CURVE SMOOTH",
"98 82 LINE SMOOTH",
"98 30 OFFCURVE",
"92 12 OFFCURVE",
"31 12 CURVE",
"31 0 LINE",
"190 0 LINE",
"190 12 LINE",
"129 12 OFFCURVE",
"121 30 OFFCURVE",
"121 82 CURVE SMOOTH",
"121 599 LINE",
"122 599 LINE"
);
}
);
width = 661;
}
);
leftKerningGroup = H;
leftMetricsKey = H;
note = N;
rightKerningGroup = N;
rightMetricsKey = H;
unicode = 004E;
},
{
glyphname = Eng;
lastChange = "2021-06-22 08:27:48 +0000";
layers = (
{
components = (
{
name = N;
}
);
hints = (
{
horizontal = 1;
place = "{-205, 16}";
type = Stem;
},
{
horizontal = 1;
place = "{-15, 21}";
target = up;
type = BottomGhost;
},
{
horizontal = 1;
place = "{665, -20}";
target = down;
type = TopGhost;
},
{
place = "{64, 20}";
type = Stem;
},
{
place = "{494, 20}";
type = Stem;
}
);
layerId = "1E8F490F-00FE-4BD6-A503-902369003CC3";
paths = (
{
closed = 1;
nodes = (
"505 -186 OFFCURVE",
"577 -122 OFFCURVE",
"577 -28 CURVE SMOOTH",
"577 153 LINE",
"520 153 LINE",
"520 -17 LINE SMOOTH",
"520 -112 OFFCURVE",
"499 -160 OFFCURVE",
"452 -160 CURVE SMOOTH",
"430 -160 OFFCURVE",
"408 -149 OFFCURVE",
"391 -130 CURVE SMOOTH",
"369 -104 OFFCURVE",
"363 -69 OFFCURVE",
"329 -69 CURVE SMOOTH",
"307 -69 OFFCURVE",
"293 -84 OFFCURVE",
"293 -106 CURVE SMOOTH",
"293 -153 OFFCURVE",
"357 -186 OFFCURVE",
"416 -186 CURVE SMOOTH"
);
}
);
width = 654;
},
{
components = (
{
name = N;
}
);
hints = (
{
horizontal = 1;
place = "{27, 21}";
target = up;
type = BottomGhost;
},
{
horizontal = 1;
place = "{713, -20}";
target = down;
type = TopGhost;
},
{
horizontal = 1;
place = "{33, 21}";
target = up;
type = BottomGhost;
}
);
layerId = "07AD8005-5D45-4A63-B3CF-4E1D9502446D";
paths = (
{
closed = 1;
nodes = (
"503 -166 OFFCURVE",
"544 -116 OFFCURVE",
"544 -30 CURVE",
"544 41 LINE",
"525 41 LINE",
"525 -52 LINE SMOOTH",
"525 -114 OFFCURVE",
"490 -157 OFFCURVE",
"450 -157 CURVE SMOOTH",
"435 -157 OFFCURVE",
"426 -150 OFFCURVE",
"420 -143 CURVE SMOOTH",
"409 -130 OFFCURVE",
"405 -114 OFFCURVE",
"389 -114 CURVE SMOOTH",
"379 -114 OFFCURVE",
"373 -121 OFFCURVE",
"373 -130 CURVE SMOOTH",
"373 -151 OFFCURVE",
"404 -166 OFFCURVE",
"436 -166 CURVE SMOOTH"
);
}
);
width = 646;
},
{
components = (
{
name = N;
}
);
hints = (
{
horizontal = 1;
place = "{-180, 31}";
type = Stem;
},
{
horizontal = 1;
place = "{10, 21}";
target = up;
type = BottomGhost;
},
{
horizontal = 1;
place = "{690, -20}";
target = down;
type = TopGhost;
},
{
place = "{96, 33}";
type = Stem;
},
{
place = "{538, 33}";
type = Stem;
}
);
layerId = "3FA0091B-41E8-4679-8383-4E36DA6A759B";
paths = (
{
closed = 1;
nodes = (
"511 -166 OFFCURVE",
"563 -100 OFFCURVE",
"563 -5 CURVE",
"563 63 LINE",
"522 63 LINE",
"522 -20 LINE SMOOTH",
"522 -99 OFFCURVE",
"495 -154 OFFCURVE",
"443 -154 CURVE SMOOTH",
"424 -154 OFFCURVE",
"413 -146 OFFCURVE",
"405 -136 CURVE SMOOTH",
"391 -120 OFFCURVE",
"386 -99 OFFCURVE",
"366 -99 CURVE SMOOTH",
"353 -99 OFFCURVE",
"345 -108 OFFCURVE",
"345 -120 CURVE SMOOTH",
"345 -147 OFFCURVE",
"385 -166 OFFCURVE",
"426 -166 CURVE SMOOTH"
);
}
);
width = 661;
}
);
leftKerningGroup = H;
leftMetricsKey = N;
note = Eng;
rightKerningGroup = N;
rightMetricsKey = N;
unicode = 014A;
},
{
color = 6;
glyphname = O;
lastChange = "2021-06-22 12:49:57 +0000";
layers = (
{
anchors = (
{
name = bottom;
position = "{338, 0}";
},
{
name = center;
position = "{338, 340}";
},
{
name = ogonek;
position = "{421, 0}";
},
{
name = top;
position = "{338, 680}";
},
{
name = topleft;
position = "{4, 680}";
},
{
name = topright;
position = "{339, 696}";
}
);
background = {
components = (
{
name = G;
transform = "{1, 0, 0, 1, 7, 0}";
}
);
};
hints = (
{
horizontal = 1;
place = "{-26, 10}";
type = Stem;
},
{
horizontal = 1;
place = "{650, 10}";
type = Stem;
},
{
place = "{12, 200}";
type = Stem;
},
{
place = "{417, 201}";
type = Stem;
}
);
layerId = "1E8F490F-00FE-4BD6-A503-902369003CC3";
paths = (
{
closed = 1;
nodes = (
"533 -12 OFFCURVE",
"660 134 OFFCURVE",
"660 344 CURVE SMOOTH",
"660 564 OFFCURVE",
"533 696 OFFCURVE",
"339 696 CURVE SMOOTH",
"145 696 OFFCURVE",
"19 558 OFFCURVE",
"19 338 CURVE SMOOTH",
"19 128 OFFCURVE",
"145 -12 OFFCURVE",
"339 -12 CURVE SMOOTH"
);
},
{
closed = 1;
nodes = (
"273 13 OFFCURVE",
"234 88 OFFCURVE",
"234 344 CURVE SMOOTH",
"234 610 OFFCURVE",
"273 671 OFFCURVE",
"339 671 CURVE SMOOTH",
"405 671 OFFCURVE",
"444 604 OFFCURVE",
"444 338 CURVE SMOOTH",
"444 82 OFFCURVE",
"405 13 OFFCURVE",
"339 13 CURVE SMOOTH"
);
}
);
width = 679;
},
{
anchors = (
{
name = bottom;
position = "{362, 0}";
},
{
name = center;
position = "{362, 340}";
},
{
name = ogonek;
position = "{442, 0}";
},
{
name = top;
position = "{362, 680}";
},
{
name = topleft;
position = "{78, 680}";
},
{
name = topright;
position = "{363, 696}";
}
);
background = {
components = (
{
name = G;
transform = "{1, 0, 0, 1, -10, 0}";
}
);
};
hints = (
{
horizontal = 1;
place = "{22, 42}";
type = Stem;
},
{
horizontal = 1;
place = "{714, 42}";
type = Stem;
},
{
place = "{69, 65}";
type = Stem;
},
{
place = "{643, 65}";
type = Stem;
}
);
layerId = "07AD8005-5D45-4A63-B3CF-4E1D9502446D";
paths = (
{
closed = 1;
nodes = (
"506 -12 OFFCURVE",
"667 107 OFFCURVE",
"667 342 CURVE SMOOTH",
"667 577 OFFCURVE",
"509 696 OFFCURVE",
"363 696 CURVE SMOOTH",
"217 696 OFFCURVE",
"59 577 OFFCURVE",
"59 342 CURVE SMOOTH",
"59 107 OFFCURVE",
"220 -12 OFFCURVE",
"363 -12 CURVE SMOOTH"
);
},
{
closed = 1;
nodes = (
"242 -4 OFFCURVE",
"91 98 OFFCURVE",
"91 341 CURVE SMOOTH",
"91 583 OFFCURVE",
"240 688 OFFCURVE",
"363 688 CURVE SMOOTH",
"486 688 OFFCURVE",
"635 583 OFFCURVE",
"635 341 CURVE SMOOTH",
"635 98 OFFCURVE",
"484 -4 OFFCURVE",
"363 -4 CURVE SMOOTH"
);
}
);
width = 726;
},
{
anchors = (
{
name = bottom;
position = "{369, 0}";
},
{
name = center;
position = "{369, 340}";
},
{
name = ogonek;
position = "{452, 0}";
},
{
name = top;
position = "{369, 680}";
},
{
name = topleft;
position = "{75, 680}";
},
{
name = topright;
position = "{369, 696}";
}
);
background = {
components = (
{
name = G;
transform = "{1, 0, 0, 1, -8, 0}";
}
);
};
hints = (
{
horizontal = 1;
place = "{-1, 21}";
target = up;
type = BottomGhost;
},
{
horizontal = 1;
place = "{700, -20}";
target = down;
type = TopGhost;
},
{
place = "{48, 100}";
type = Stem;
},
{
place = "{560, 100}";
type = Stem;
}
);
layerId = "3FA0091B-41E8-4679-8383-4E36DA6A759B";
paths = (
{
closed = 1;
nodes = (
"542 -16 OFFCURVE",
"697 133 OFFCURVE",
"697 347 CURVE SMOOTH",
"697 561 OFFCURVE",
"542 696 OFFCURVE",
"369 696 CURVE SMOOTH",
"194 696 OFFCURVE",
"39 550 OFFCURVE",
"39 336 CURVE SMOOTH",
"39 122 OFFCURVE",
"194 -16 OFFCURVE",
"366 -16 CURVE SMOOTH"
);
},
{
closed = 1;
nodes = (
"238 2 OFFCURVE",
"137 95 OFFCURVE",
"137 338 CURVE SMOOTH",
"137 581 OFFCURVE",
"238 678 OFFCURVE",
"369 678 CURVE SMOOTH",
"498 678 OFFCURVE",
"599 587 OFFCURVE",
"599 344 CURVE SMOOTH",
"599 101 OFFCURVE",
"498 2 OFFCURVE",
"367 2 CURVE SMOOTH"
);
}
);
width = 736;
}
);
leftKerningGroup = O;
note = O.ss01;
rightKerningGroup = O;
rightMetricsKey = "=|";
unicode = 004F;
},
{
color = 6;
glyphname = Ohorn;
lastChange = "2021-06-22 08:28:02 +0000";
layers = (
{
components = (
{
name = O;
},
{
name = horncomb;
transform = "{1, 0, 0, 1, -39, 211}";
}
);
hints = (
{
horizontal = 1;
place = "{-11, 40}";
type = Stem;
},
{
horizontal = 1;
place = "{664, 203}";
type = Stem;
},
{
place = "{27, 152}";
type = Stem;
},
{
place = "{495, 153}";
type = Stem;
},
{
place = "{495, 150}";
type = Stem;
},
{
horizontal = 1;
place = "{732, 135}";
type = Stem;
},
{
horizontal = 1;
place = "{650, 40}";
type = Stem;
}
);
layerId = "1E8F490F-00FE-4BD6-A503-902369003CC3";
width = 679;
},
{
components = (
{
name = O;
},
{
name = horncomb;
transform = "{1, 0, 0, 1, -71, 223}";
}
);
hints = (
{
horizontal = 1;
place = "{-11, 21}";
target = up;
type = BottomGhost;
},
{
horizontal = 1;
place = "{671, 9}";
type = Stem;
},
{
horizontal = 1;
place = "{756, 65}";
type = Stem;
},
{
place = "{555, 13}";
type = Stem;
},
{
horizontal = 1;
place = "{690, -20}";
target = down;
type = TopGhost;
}
);
layerId = "07AD8005-5D45-4A63-B3CF-4E1D9502446D";
width = 726;
},
{
components = (
{
name = O;
},
{
name = horncomb;
transform = "{1, 0, 0, 1, -26, 213}";
}
);
hints = (
{
horizontal = 1;
place = "{-11, 21}";
target = up;
type = BottomGhost;
},
{
horizontal = 1;
place = "{664, 191}";
type = Stem;
},
{
place = "{540, 102}";
type = Stem;
},
{
horizontal = 1;
place = "{641, 102}";
type = Stem;
},
{
horizontal = 1;
place = "{753, 102}";
type = Stem;
},
{
horizontal = 1;
place = "{690, -20}";
target = down;
type = TopGhost;
}
);
layerId = "3FA0091B-41E8-4679-8383-4E36DA6A759B";
width = 736;
},
{
associatedMasterId = "1E8F490F-00FE-4BD6-A503-902369003CC3";
hints = (
{
horizontal = 1;
place = "{-11, 40}";
type = Stem;
},
{
horizontal = 1;
place = "{664, 203}";
type = Stem;
},
{
place = "{27, 152}";
type = Stem;
},
{
place = "{495, 153}";
type = Stem;
},
{
place = "{495, 150}";
type = Stem;
},
{
horizontal = 1;
place = "{732, 135}";
type = Stem;
},
{
horizontal = 1;
place = "{650, 40}";
type = Stem;
}
);
layerId = "99C29BE0-4928-4255-B3AA-ED336CFB672E";
name = "Feb 13 21, 08:30";
paths = (
{
closed = 1;
nodes = (
"480 664 LINE SMOOTH",
"558 664 OFFCURVE",
"645 717 OFFCURVE",
"645 794 CURVE SMOOTH",
"645 842 OFFCURVE",
"612 867 OFFCURVE",
"568 867 CURVE SMOOTH",
"520 867 OFFCURVE",
"495 837 OFFCURVE",
"495 797 CURVE SMOOTH",
"495 755 OFFCURVE",
"524 732 OFFCURVE",
"569 732 CURVE",
"560 709 OFFCURVE",
"538 680 OFFCURVE",
"480 680 CURVE SMOOTH",
"416 680 LINE",
"391 687 OFFCURVE",
"364 690 OFFCURVE",
"337 690 CURVE SMOOTH",
"143 690 OFFCURVE",
"27 543 OFFCURVE",
"27 339 CURVE SMOOTH",
"27 125 OFFCURVE",
"163 -11 OFFCURVE",
"337 -11 CURVE SMOOTH",
"531 -11 OFFCURVE",
"648 135 OFFCURVE",
"648 339 CURVE SMOOTH",
"648 498 OFFCURVE",
"572 615 OFFCURVE",
"462 664 CURVE"
);
},
{
closed = 1;
nodes = (
"386 11 OFFCURVE",
"340 53 OFFCURVE",
"248 307 CURVE SMOOTH",
"156 560 OFFCURVE",
"164 623 OFFCURVE",
"226 645 CURVE SMOOTH",
"288 668 OFFCURVE",
"334 625 OFFCURVE",
"426 372 CURVE SMOOTH",
"519 118 OFFCURVE",
"510 56 OFFCURVE",
"448 34 CURVE SMOOTH"
);
}
);
width = 675;
}
);
leftKerningGroup = O;
note = Ohorn;
rightKerningGroup = O;
unicode = 01A0;
},
{
glyphname = Oopen;
lastChange = "2021-06-22 08:27:48 +0000";
layers = (
{
hints = (
{
horizontal = 1;
place = "{-26, 84}";
type = Stem;
},
{
horizontal = 1;
place = "{281, 72}";
type = Stem;
},
{
horizontal = 1;
place = "{665, -20}";
target = down;
type = TopGhost;
},
{
place = "{351, 192}";
type = Stem;
},
{
horizontal = 1;
place = "{649, 11}";
type = Stem;
}
);
layerId = "1E8F490F-00FE-4BD6-A503-902369003CC3";
paths = (
{
closed = 1;
nodes = (
"417 -11 OFFCURVE",
"562 80 OFFCURVE",
"562 320 CURVE SMOOTH",
"562 572 OFFCURVE",
"402 690 OFFCURVE",
"232 690 CURVE SMOOTH",
"131 690 OFFCURVE",
"105 649 OFFCURVE",
"82 649 CURVE SMOOTH",
"71 649 OFFCURVE",
"67 659 OFFCURVE",
"55 680 CURVE",
"39 680 LINE",
"39 466 LINE",
"55 466 LINE",
"66 549 OFFCURVE",
"108 664 OFFCURVE",
"214 664 CURVE SMOOTH",
"311 664 OFFCURVE",
"355 582 OFFCURVE",
"355 385 CURVE SMOOTH",
"355 217 OFFCURVE",
"326 88 OFFCURVE",
"188 88 CURVE SMOOTH",
"72 88 OFFCURVE",
"45 179 OFFCURVE",
"35 230 CURVE",
"19 230 LINE",
"48 69 OFFCURVE",
"122 -11 OFFCURVE",
"265 -11 CURVE SMOOTH"
);
}
);
width = 581;
},
{
hints = (
{
horizontal = 1;
place = "{22, 53}";
type = Stem;
},
{
horizontal = 1;
place = "{715, 21}";
target = up;
type = BottomGhost;
},
{
place = "{594, 63}";
type = Stem;
},
{
horizontal = 1;
place = "{723, 21}";
target = up;
type = BottomGhost;
}
);
layerId = "07AD8005-5D45-4A63-B3CF-4E1D9502446D";
paths = (
{
closed = 1;
nodes = (
"471 -11 OFFCURVE",
"602 110 OFFCURVE",
"602 347 CURVE SMOOTH",
"602 586 OFFCURVE",
"469 690 OFFCURVE",
"328 690 CURVE SMOOTH",
"226 690 OFFCURVE",
"162 636 OFFCURVE",
"142 636 CURVE SMOOTH",
"133 636 OFFCURVE",
"126 646 OFFCURVE",
"115 666 CURVE",
"108 666 LINE",
"108 524 LINE",
"116 524 LINE",
"134 630 OFFCURVE",
"234 682 OFFCURVE",
"323 682 CURVE SMOOTH",
"450 682 OFFCURVE",
"572 575 OFFCURVE",
"572 349 CURVE SMOOTH",
"572 121 OFFCURVE",
"447 9 OFFCURVE",
"305 9 CURVE SMOOTH",
"177 9 OFFCURVE",
"94 100 OFFCURVE",
"70 220 CURVE",
"59 220 LINE",
"80 87 OFFCURVE",
"182 -11 OFFCURVE",
"319 -11 CURVE SMOOTH"
);
}
);
width = 661;
},
{
hints = (
{
horizontal = 1;
place = "{-1, 70}";
type = Stem;
},
{
horizontal = 1;
place = "{306, 60}";
type = Stem;
},
{
horizontal = 1;
place = "{359, 53}";
type = Stem;
},
{
horizontal = 1;
place = "{690, -20}";
target = down;
type = TopGhost;
},
{
place = "{500, 95}";
type = Stem;
},
{
horizontal = 1;
place = "{700, -20}";
target = down;
type = TopGhost;
}
);
layerId = "3FA0091B-41E8-4679-8383-4E36DA6A759B";
paths = (
{
closed = 1;
nodes = (
"439 -11 OFFCURVE",
"581 108 OFFCURVE",
"581 355 CURVE SMOOTH",
"581 586 OFFCURVE",
"429 690 OFFCURVE",
"292 690 CURVE SMOOTH",
"201 690 OFFCURVE",
"139 649 OFFCURVE",
"118 649 CURVE SMOOTH",
"107 649 OFFCURVE",
"99 659 OFFCURVE",
"87 680 CURVE",
"75 680 LINE",
"75 496 LINE",
"88 496 LINE",
"107 600 OFFCURVE",
"181 674 OFFCURVE",
"287 674 CURVE SMOOTH",
"399 674 OFFCURVE",
"496 576 OFFCURVE",
"496 368 CURVE SMOOTH",
"496 200 OFFCURVE",
"417 49 OFFCURVE",
"264 49 CURVE SMOOTH",
"110 49 OFFCURVE",
"65 170 OFFCURVE",
"54 220 CURVE",
"39 220 LINE",
"71 63 OFFCURVE",
"163 -11 OFFCURVE",
"293 -11 CURVE SMOOTH"
);
}
);
width = 620;
}
);
leftKerningGroup = O;
leftMetricsKey = "=|";
note = uni0186;
rightKerningGroup = O;
rightMetricsKey = O;
unicode = 0186;
},
{
color = 4;
glyphname = Oslash;
lastChange = "2021-06-22 08:27:48 +0000";
layers = (
{
components = (
{
name = O;
}
);
hints = (
{
horizontal = 1;
place = "{-71, 21}";
target = up;
type = BottomGhost;
},
{
horizontal = 1;
place = "{-26, 10}";
type = Stem;
},
{
horizontal = 1;
place = "{650, 10}";
type = Stem;
},
{
horizontal = 1;
place = "{719, -20}";
target = down;
type = TopGhost;
},
{
place = "{12, 200}";
type = Stem;
},
{
place = "{417, 201}";
type = Stem;
}
);
layerId = "1E8F490F-00FE-4BD6-A503-902369003CC3";
paths = (
{
closed = 1;
nodes = (
"169 -53 LINE",
"552 737 LINE",
"512 737 LINE",
"128 -53 LINE"
);
}
);
width = 679;
},
{
components = (
{
name = O;
}
);
hints = (
{
horizontal = 1;
place = "{22, 42}";
type = Stem;
},
{
horizontal = 1;
place = "{714, 42}";
type = Stem;
},
{
horizontal = 1;
place = "{767, -20}";
target = down;
type = TopGhost;
},
{
place = "{69, 65}";
type = Stem;
},
{
place = "{643, 65}";
type = Stem;
}
);
layerId = "07AD8005-5D45-4A63-B3CF-4E1D9502446D";
paths = (
{
closed = 1;
nodes = (
"135 -53 LINE",
"605 737 LINE",
"592 737 LINE",
"121 -53 LINE"
);
}
);
width = 726;
},
{
components = (
{
name = O;
}
);
hints = (
{
horizontal = 1;
place = "{-46, 21}";
target = up;
type = BottomGhost;
},
{
horizontal = 1;
place = "{-1, 21}";
target = up;
type = BottomGhost;
},
{
horizontal = 1;
place = "{700, -20}";
target = down;
type = TopGhost;
},
{
horizontal = 1;
place = "{744, -20}";
target = down;
type = TopGhost;
},
{
place = "{48, 100}";
type = Stem;
},
{
place = "{560, 100}";
type = Stem;
}
);
layerId = "3FA0091B-41E8-4679-8383-4E36DA6A759B";
paths = (
{
closed = 1;
nodes = (
"160 -55 LINE",
"611 735 LINE",
"579 735 LINE",
"127 -55 LINE"
);
}
);
width = 736;
}
);
leftKerningGroup = O;
leftMetricsKey = O;
note = Oslash.ss01;
rightKerningGroup = O;
rightMetricsKey = O;
unicode = 00D8;
},
{
glyphname = OE;
lastChange = "2021-06-22 08:27:48 +0000";
layers = (
{
anchors = (
{
name = bottom;
position = "{379, 0}";
},
{
name = center;
position = "{352, 340}";
},
{
name = ogonek;
position = "{743, 0}";
},
{
name = top;
position = "{379, 680}";
},
{
name = topleft;
position = "{310, 680}";
}
);
hints = (
{
horizontal = 1;
place = "{-15, 21}";
type = Stem;
},
{
horizontal = 1;
place = "{325, 20}";
type = Stem;
},
{
horizontal = 1;
place = "{637, 13}";
type = Stem;
},
{
place = "{12, 187}";
type = Stem;
},
{
place = "{437, 159}";
type = Stem;
},
{
horizontal = 1;
place = "{-15, 21}";
type = Stem;
},
{
horizontal = 1;
place = "{636, 14}";
type = Stem;
},
{
place = "{582, 181}";
type = Stem;
},
{
place = "{261, 187}";
type = Stem;
},
{
horizontal = 1;
place = "{-15, 21}";
type = Stem;
},
{
horizontal = 1;
place = "{325, 20}";
type = Stem;
},
{
horizontal = 1;
place = "{637, 13}";
type = Stem;
},
{
place = "{389, 181}";
type = Stem;
}
);
layerId = "1E8F490F-00FE-4BD6-A503-902369003CC3";
paths = (
{
closed = 1;
nodes = (
"19 93 OFFCURVE",
"174 0 OFFCURVE",
"364 0 CURVE SMOOTH",
"822 0 LINE",
"822 179 LINE",
"806 179 LINE",
"806 71 OFFCURVE",
"772 36 OFFCURVE",
"688 36 CURVE SMOOTH",
"636 36 LINE SMOOTH",
"604 36 OFFCURVE",
"591 50 OFFCURVE",
"591 86 CURVE SMOOTH",
"591 340 LINE",
"662 340 LINE SMOOTH",
"723 340 OFFCURVE",
"735 303 OFFCURVE",
"735 266 CURVE",
"751 266 LINE",
"751 440 LINE",
"735 440 LINE",
"735 391 OFFCURVE",
"718 375 OFFCURVE",
"661 375 CURVE SMOOTH",
"591 375 LINE",
"591 645 LINE",
"674 645 LINE SMOOTH",
"773 645 OFFCURVE",
"787 599 OFFCURVE",
"787 521 CURVE",
"803 521 LINE",
"803 680 LINE",
"356 680 LINE SMOOTH",
"217 680 OFFCURVE",
"19 604 OFFCURVE",
"19 349 CURVE SMOOTH"
);
},
{
closed = 1;
nodes = (
"236 572 OFFCURVE",
"271 647 OFFCURVE",
"357 647 CURVE SMOOTH",
"359 647 LINE SMOOTH",
"387 647 OFFCURVE",
"395 637 OFFCURVE",
"395 594 CURVE SMOOTH",
"395 36 LINE",
"356 36 LINE SMOOTH",
"295 36 OFFCURVE",
"236 80 OFFCURVE",
"236 343 CURVE SMOOTH"
);
}
);
width = 852;
},
{
anchors = (
{
name = bottom;
position = "{366, 0}";
},
{
name = center;
position = "{339, 340}";
},
{
name = ogonek;
position = "{826, 0}";
},
{
name = top;
position = "{366, 680}";
},
{
name = topleft;
position = "{413, 680}";
}
);
hints = (
{
horizontal = 1;
place = "{33, 21}";
target = up;
type = BottomGhost;
},
{
horizontal = 1;
place = "{713, -20}";
target = down;
type = TopGhost;
},
{
place = "{129, 62}";
type = Stem;
},
{
place = "{529, 62}";
type = Stem;
},
{
place = "{572, 68}";
type = Stem;
},
{
horizontal = 1;
place = "{713, 21}";
target = up;
type = BottomGhost;
},
{
horizontal = 1;
place = "{33, 21}";
target = up;
type = BottomGhost;
},
{
place = "{528, 4}";
type = Stem;
},
{
place = "{85, -2}";
type = Stem;
},
{
horizontal = 1;
place = "{33, 21}";
target = up;
type = BottomGhost;
},
{
horizontal = 1;
place = "{713, -20}";
target = down;
type = TopGhost;
},
{
place = "{539, 62}";
type = Stem;
}
);
layerId = "07AD8005-5D45-4A63-B3CF-4E1D9502446D";
paths = (
{
closed = 1;
nodes = (
"59 82 OFFCURVE",
"222 0 OFFCURVE",
"396 0 CURVE SMOOTH",
"840 0 LINE",
"840 117 LINE",
"830 117 LINE",
"830 9 OFFCURVE",
"804 10 OFFCURVE",
"730 10 CURVE SMOOTH",
"591 10 LINE SMOOTH",
"551 10 OFFCURVE",
"538 14 OFFCURVE",
"538 68 CURVE SMOOTH",
"538 354 LINE",
"690 354 LINE SMOOTH",
"748 354 OFFCURVE",
"760 350 OFFCURVE",
"760 298 CURVE",
"769 298 LINE",
"769 419 LINE",
"760 419 LINE",
"760 372 OFFCURVE",
"749 364 OFFCURVE",
"689 364 CURVE SMOOTH",
"538 364 LINE",
"538 671 LINE",
"710 671 LINE SMOOTH",
"799 671 OFFCURVE",
"809 658 OFFCURVE",
"809 585 CURVE",
"819 585 LINE",
"819 680 LINE",
"396 680 LINE SMOOTH",
"222 680 OFFCURVE",
"59 577 OFFCURVE",
"59 329 CURVE SMOOTH"
);
},
{
closed = 1;
nodes = (
"91 559 OFFCURVE",
"235 670 OFFCURVE",
"397 670 CURVE SMOOTH",
"469 670 LINE SMOOTH",
"493 670 OFFCURVE",
"509 666 OFFCURVE",
"509 614 CURVE SMOOTH",
"509 10 LINE",
"397 10 LINE SMOOTH",
"234 10 OFFCURVE",
"91 101 OFFCURVE",
"91 330 CURVE SMOOTH"
);
}
);
width = 901;
},
{
anchors = (
{
name = bottom;
position = "{615, 0}";
},
{
name = center;
position = "{608, 340}";
},
{
name = ogonek;
position = "{789, 0}";
},
{
name = top;
position = "{615, 680}";
},
{
name = topleft;
position = "{362, 680}";
}
);
hints = (
{
horizontal = 1;
place = "{10, 32}";
type = Stem;
},
{
horizontal = 1;
place = "{357, 31}";
type = Stem;
},
{
horizontal = 1;
place = "{690, -20}";
target = down;
type = TopGhost;
},
{
place = "{45, 101}";
type = Stem;
},
{
place = "{474, 95}";
type = Stem;
},
{
horizontal = 1;
place = "{10, 32}";
type = Stem;
},
{
horizontal = 1;
place = "{357, 31}";
type = Stem;
},
{
horizontal = 1;
place = "{690, -20}";
target = down;
type = TopGhost;
},
{
place = "{488, 95}";
type = Stem;
},
{
horizontal = 1;
place = "{689, -12}";
type = Stem;
},
{
horizontal = 1;
place = "{9, 21}";
target = up;
type = BottomGhost;
},
{
place = "{534, -75}";
type = Stem;
},
{
place = "{111, -81}";
type = Stem;
}
);
layerId = "3FA0091B-41E8-4679-8383-4E36DA6A759B";
paths = (
{
closed = 1;
nodes = (
"39 59 OFFCURVE",
"254 0 OFFCURVE",
"376 0 CURVE SMOOTH",
"835 0 LINE",
"835 159 LINE",
"819 159 LINE",
"819 51 OFFCURVE",
"784 22 OFFCURVE",
"690 22 CURVE SMOOTH",
"604 22 LINE SMOOTH",
"568 22 OFFCURVE",
"553 40 OFFCURVE",
"553 77 CURVE SMOOTH",
"553 347 LINE",
"659 347 LINE SMOOTH",
"720 347 OFFCURVE",
"748 324 OFFCURVE",
"748 281 CURVE",
"764 281 LINE",
"764 432 LINE",
"748 432 LINE",
"748 388 OFFCURVE",
"720 368 OFFCURVE",
"658 368 CURVE SMOOTH",
"553 368 LINE",
"553 658 LINE",
"689 658 LINE SMOOTH",
"788 658 OFFCURVE",
"800 619 OFFCURVE",
"800 546 CURVE",
"816 546 LINE",
"816 680 LINE",
"381 680 LINE SMOOTH",
"217 680 OFFCURVE",
"39 582 OFFCURVE",
"39 329 CURVE SMOOTH"
);
},
{
closed = 1;
nodes = (
"132 531 OFFCURVE",
"248 660 OFFCURVE",
"382 660 CURVE SMOOTH",
"411 660 LINE SMOOTH",
"450 660 OFFCURVE",
"468 653 OFFCURVE",
"468 606 CURVE SMOOTH",
"468 20 LINE",
"382 20 LINE SMOOTH",
"240 20 OFFCURVE",
"132 121 OFFCURVE",
"132 331 CURVE SMOOTH"
);
}
);
width = 884;
}
);
leftKerningGroup = O;
leftMetricsKey = O;
note = OE;
rightKerningGroup = E;
rightMetricsKey = E;
unicode = 0152;
},
{
color = 4;
glyphname = P;
lastChange = "2021-06-22 14:54:22 +0000";
layers = (
{
anchors = (
{
name = bottom;
position = "{274, 0}";
},
{
name = top;
position = "{274, 680}";
}
);
hints = (
{
horizontal = 1;
place = "{-15, 21}";
target = up;
type = BottomGhost;
},
{
horizontal = 1;
place = "{290, 6}";
type = Stem;
},
{
horizontal = 1;
place = "{626, 24}";
type = Stem;
},
{
place = "{71, 181}";
type = Stem;
},
{
place = "{367, 170}";
type = Stem;
}
);
layerId = "1E8F490F-00FE-4BD6-A503-902369003CC3";
paths = (
{
closed = 1;
nodes = (
"300 305 OFFCURVE",
"319 301 OFFCURVE",
"352 301 CURVE SMOOTH",
"501 301 OFFCURVE",
"593 375 OFFCURVE",
"593 493 CURVE SMOOTH",
"593 619 OFFCURVE",
"483 680 OFFCURVE",
"318 680 CURVE SMOOTH",
"11 680 LINE",
"11 664 LINE",
"67 664 OFFCURVE",
"82 646 OFFCURVE",
"82 594 CURVE SMOOTH",
"82 86 LINE SMOOTH",
"82 34 OFFCURVE",
"67 16 OFFCURVE",
"11 16 CURVE",
"11 0 LINE",
"360 0 LINE",
"360 16 LINE",
"293 16 OFFCURVE",
"278 34 OFFCURVE",
"278 86 CURVE SMOOTH",
"278 647 LINE",
"306 647 LINE SMOOTH",
"368 647 OFFCURVE",
"398 600 OFFCURVE",
"398 484 CURVE SMOOTH",
"398 346 OFFCURVE",
"351 326 OFFCURVE",
"315 326 CURVE SMOOTH",
"308 326 OFFCURVE",
"299 326 OFFCURVE",
"291 328 CURVE",
"291 307 LINE"
);
}
);
width = 613;
},
{
anchors = (
{
name = bottom;
position = "{264, 0}";
},
{
name = top;
position = "{264, 680}";
}
);
background = {
components = (
{
name = H;
transform = "{1, 0, 0, 1, -7, 0}";
}
);
};
hints = (
{
horizontal = 1;
place = "{33, 21}";
target = up;
type = BottomGhost;
},
{
horizontal = 1;
place = "{713, -20}";
target = down;
type = TopGhost;
},
{
place = "{129, 62}";
type = Stem;
},
{
place = "{462, 65}";
type = Stem;
}
);
layerId = "07AD8005-5D45-4A63-B3CF-4E1D9502446D";
paths = (
{
closed = 1;
nodes = (
"180 306 OFFCURVE",
"205 304 OFFCURVE",
"228 304 CURVE SMOOTH",
"384 304 OFFCURVE",
"467 379 OFFCURVE",
"467 502 CURVE SMOOTH",
"467 623 OFFCURVE",
"378 680 OFFCURVE",
"234 680 CURVE SMOOTH",
"51 680 LINE",
"51 673 LINE",
"97 673 OFFCURVE",
"102 666 OFFCURVE",
"102 614 CURVE SMOOTH",
"102 66 LINE SMOOTH",
"102 14 OFFCURVE",
"97 7 OFFCURVE",
"51 7 CURVE",
"51 0 LINE",
"187 0 LINE",
"187 7 LINE",
"135 7 OFFCURVE",
"131 14 OFFCURVE",
"131 66 CURVE SMOOTH",
"131 671 LINE",
"233 671 LINE SMOOTH",
"369 671 OFFCURVE",
"435 613 OFFCURVE",
"435 498 CURVE SMOOTH",
"435 394 OFFCURVE",
"370 312 OFFCURVE",
"224 312 CURVE SMOOTH",
"201 312 OFFCURVE",
"180 314 OFFCURVE",
"159 318 CURVE",
"159 310 LINE"
);
}
);
width = 520;
},
{
anchors = (
{
name = bottom;
position = "{264, 0}";
},
{
name = top;
position = "{264, 680}";
}
);
hints = (
{
horizontal = 1;
place = "{10, 21}";
target = up;
type = BottomGhost;
},
{
horizontal = 1;
place = "{690, -20}";
target = down;
type = TopGhost;
},
{
place = "{116, 95}";
type = Stem;
},
{
place = "{448, 99}";
type = Stem;
}
);
layerId = "3FA0091B-41E8-4679-8383-4E36DA6A759B";
paths = (
{
closed = 1;
nodes = (
"230 305 OFFCURVE",
"253 301 OFFCURVE",
"281 301 CURVE SMOOTH",
"434 301 OFFCURVE",
"524 373 OFFCURVE",
"524 496 CURVE SMOOTH",
"524 617 OFFCURVE",
"436 680 OFFCURVE",
"265 680 CURVE SMOOTH",
"31 680 LINE",
"31 668 LINE",
"87 668 OFFCURVE",
"102 658 OFFCURVE",
"102 606 CURVE SMOOTH",
"102 74 LINE SMOOTH",
"102 22 OFFCURVE",
"87 12 OFFCURVE",
"31 12 CURVE",
"31 0 LINE",
"264 0 LINE",
"264 12 LINE",
"199 12 OFFCURVE",
"187 22 OFFCURVE",
"187 74 CURVE SMOOTH",
"187 664 LINE",
"260 664 LINE SMOOTH",
"409 664 OFFCURVE",
"432 571 OFFCURVE",
"432 492 CURVE SMOOTH",
"432 378 OFFCURVE",
"380 319 OFFCURVE",
"274 319 CURVE SMOOTH",
"253 319 OFFCURVE",
"233 321 OFFCURVE",
"213 324 CURVE",
"213 308 LINE"
);
}
);
width = 560;
}
);
leftKerningGroup = H;
leftMetricsKey = H;
note = P;
rightKerningGroup = P;
unicode = 0050;
},
{
glyphname = Thorn;
lastChange = "2021-06-22 08:27:48 +0000";
layers = (
{
hints = (
{
horizontal = 1;
place = "{-15, 171}";
type = Stem;
},
{
horizontal = 1;
place = "{486, 24}";
type = Stem;
},
{
place = "{71, 181}";
type = Stem;
},
{
place = "{357, 170}";
type = Stem;
},
{
horizontal = 1;
place = "{150, 6}";
type = Stem;
},
{
horizontal = 1;
place = "{486, 164}";
type = Stem;
}
);
layerId = "1E8F490F-00FE-4BD6-A503-902369003CC3";
paths = (
{
closed = 1;
nodes = (
"11 0 LINE",
"349 0 LINE",
"349 16 LINE",
"313 16 OFFCURVE",
"278 34 OFFCURVE",
"278 86 CURVE SMOOTH",
"278 165 LINE",
"310 165 LINE SMOOTH",
"466 165 OFFCURVE",
"565 234 OFFCURVE",
"565 354 CURVE SMOOTH",
"565 478 OFFCURVE",
"459 540 OFFCURVE",
"294 540 CURVE SMOOTH",
"278 540 LINE",
"278 594 LINE SMOOTH",
"278 646 OFFCURVE",
"313 664 OFFCURVE",
"349 664 CURVE",
"349 680 LINE",
"11 680 LINE",
"11 664 LINE",
"47 664 OFFCURVE",
"82 646 OFFCURVE",
"82 594 CURVE SMOOTH",
"82 86 LINE SMOOTH",
"82 34 OFFCURVE",
"47 16 OFFCURVE",
"11 16 CURVE"
);
},
{
closed = 1;
nodes = (
"278 198 LINE",
"278 505 LINE",
"293 505 LINE SMOOTH",
"348 505 OFFCURVE",
"380 456 OFFCURVE",
"380 345 CURVE SMOOTH",
"380 225 OFFCURVE",
"339 198 OFFCURVE",
"294 198 CURVE SMOOTH"
);
}
);
width = 587;
},
{
hints = (
{
horizontal = 1;
place = "{33, 21}";
target = up;
type = BottomGhost;
},
{
horizontal = 1;
place = "{713, -20}";
target = down;
type = TopGhost;
},
{
place = "{129, 62}";
type = Stem;
},
{
place = "{462, 65}";
type = Stem;
}
);
layerId = "07AD8005-5D45-4A63-B3CF-4E1D9502446D";
paths = (
{
closed = 1;
nodes = (
"51 0 LINE",
"187 0 LINE",
"187 7 LINE",
"135 7 OFFCURVE",
"131 14 OFFCURVE",
"131 66 CURVE SMOOTH",
"131 186 LINE",
"222 186 LINE SMOOTH",
"378 186 OFFCURVE",
"467 253 OFFCURVE",
"467 376 CURVE SMOOTH",
"467 497 OFFCURVE",
"382 560 OFFCURVE",
"236 560 CURVE SMOOTH",
"131 560 LINE",
"131 614 LINE SMOOTH",
"131 666 OFFCURVE",
"136 673 OFFCURVE",
"182 673 CURVE",
"182 680 LINE",
"51 680 LINE",
"51 673 LINE",
"97 673 OFFCURVE",
"102 666 OFFCURVE",
"102 614 CURVE SMOOTH",
"102 66 LINE SMOOTH",
"102 14 OFFCURVE",
"97 7 OFFCURVE",
"51 7 CURVE"
);
},
{
closed = 1;
nodes = (
"131 194 LINE",
"131 551 LINE",
"233 551 LINE SMOOTH",
"371 551 OFFCURVE",
"435 481 OFFCURVE",
"435 372 CURVE SMOOTH",
"435 256 OFFCURVE",
"358 194 OFFCURVE",
"222 194 CURVE SMOOTH"
);
}
);
width = 539;
},
{
hints = (
{
horizontal = 1;
place = "{10, 188}";
type = Stem;
},
{
horizontal = 1;
place = "{534, 166}";
type = Stem;
},
{
place = "{116, 96}";
type = Stem;
},
{
place = "{468, 99}";
type = Stem;
}
);
layerId = "3FA0091B-41E8-4679-8383-4E36DA6A759B";
paths = (
{
closed = 1;
nodes = (
"31 0 LINE",
"263 0 LINE",
"263 12 LINE",
"220 12 OFFCURVE",
"188 30 OFFCURVE",
"188 82 CURVE SMOOTH",
"188 163 LINE",
"286 163 LINE SMOOTH",
"452 163 OFFCURVE",
"543 231 OFFCURVE",
"543 354 CURVE SMOOTH",
"543 475 OFFCURVE",
"456 540 OFFCURVE",
"295 540 CURVE SMOOTH",
"187 540 LINE",
"187 598 LINE SMOOTH",
"187 650 OFFCURVE",
"222 668 OFFCURVE",
"258 668 CURVE",
"258 680 LINE",
"31 680 LINE",
"31 668 LINE",
"67 668 OFFCURVE",
"102 650 OFFCURVE",
"102 598 CURVE SMOOTH",
"102 82 LINE SMOOTH",
"102 30 OFFCURVE",
"67 12 OFFCURVE",
"31 12 CURVE"
);
},
{
closed = 1;
nodes = (
"188 178 LINE",
"188 524 LINE",
"288 524 LINE SMOOTH",
"403 524 OFFCURVE",
"454 467 OFFCURVE",
"454 348 CURVE SMOOTH",
"454 247 OFFCURVE",
"402 178 OFFCURVE",
"282 178 CURVE SMOOTH"
);
}
);
width = 595;
}
);
leftKerningGroup = H;
leftMetricsKey = H;
note = Thorn;
rightKerningGroup = Thorn;
unicode = 00DE;
},
{
color = 4;
glyphname = Q;
lastChange = "2021-06-22 08:27:48 +0000";
layers = (
{
components = (
{
name = O;
}
);
hints = (
{
horizontal = 1;
place = "{-177, 121}";
type = Stem;
},
{
horizontal = 1;
place = "{675, -20}";
target = down;
type = TopGhost;
}
);
layerId = "1E8F490F-00FE-4BD6-A503-902369003CC3";
paths = (
{
closed = 1;
nodes = (
"262 -9 OFFCURVE",
"236 -65 OFFCURVE",
"229 -120 CURVE",
"243 -120 LINE",
"281 -69 OFFCURVE",
"409 -162 OFFCURVE",
"511 -162 CURVE SMOOTH",
"603 -162 OFFCURVE",
"629 -66 OFFCURVE",
"646 16 CURVE",
"631 16 LINE",
"618 -18 OFFCURVE",
"596 -26 OFFCURVE",
"574 -26 CURVE SMOOTH",
"525 -26 OFFCURVE",
"437 -11 OFFCURVE",
"376 -4 CURVE",
"306 -5 LINE"
);
}
);
width = 679;
},
{
components = (
{
name = O;
}
);
hints = (
{
horizontal = 1;
place = "{-69, 133}";
type = Stem;
},
{
horizontal = 1;
place = "{723, -20}";
target = down;
type = TopGhost;
},
{
horizontal = 1;
place = "{-69, 65}";
type = Stem;
}
);
layerId = "07AD8005-5D45-4A63-B3CF-4E1D9502446D";
paths = (
{
closed = 1;
nodes = (
"322 -11 OFFCURVE",
"299 -27 OFFCURVE",
"287 -62 CURVE",
"294 -62 LINE",
"346 64 OFFCURVE",
"474 -104 OFFCURVE",
"592 -104 CURVE SMOOTH",
"645 -104 OFFCURVE",
"681 -56 OFFCURVE",
"694 14 CURVE",
"688 14 LINE",
"673 -36 OFFCURVE",
"651 -72 OFFCURVE",
"601 -72 CURVE SMOOTH",
"552 -72 OFFCURVE",
"457 -22 OFFCURVE",
"398 -7 CURVE",
"351 -5 LINE"
);
}
);
width = 726;
},
{
components = (
{
name = O;
}
);
hints = (
{
horizontal = 1;
place = "{-132, 82}";
type = Stem;
},
{
horizontal = 1;
place = "{700, -20}";
target = down;
type = TopGhost;
}
);
layerId = "3FA0091B-41E8-4679-8383-4E36DA6A759B";
paths = (
{
closed = 1;
nodes = (
"293 -9 OFFCURVE",
"262 -47 OFFCURVE",
"244 -100 CURVE",
"256 -100 LINE",
"308 26 OFFCURVE",
"416 -142 OFFCURVE",
"534 -142 CURVE SMOOTH",
"614 -142 OFFCURVE",
"646 -62 OFFCURVE",
"661 16 CURVE",
"649 16 LINE",
"634 -34 OFFCURVE",
"618 -70 OFFCURVE",
"568 -70 CURVE SMOOTH",
"519 -70 OFFCURVE",
"427 -21 OFFCURVE",
"368 -6 CURVE",
"327 -2 LINE"
);
}
);
width = 736;
}
);
leftKerningGroup = O;
leftMetricsKey = O;
note = Q;
rightKerningGroup = O;
unicode = 0051;
},
{
color = 4;
glyphname = R;
lastChange = "2021-06-22 08:27:48 +0000";
layers = (
{
anchors = (
{
name = bottom;
position = "{320, 0}";
},
{
name = top;
position = "{320, 680}";
}
);
hints = (
{
horizontal = 1;
place = "{-15, 21}";
target = up;
type = BottomGhost;
},
{
horizontal = 1;
place = "{325, 20}";
type = Stem;
},
{
horizontal = 1;
place = "{629, 21}";
type = Stem;
},
{
place = "{71, 181}";
type = Stem;
},
{
place = "{372, 179}";
type = Stem;
},
{
place = "{372, 164}";
type = Stem;
}
);
layerId = "1E8F490F-00FE-4BD6-A503-902369003CC3";
paths = (
{
closed = 1;
nodes = (
"349 0 LINE",
"349 16 LINE",
"293 16 OFFCURVE",
"278 34 OFFCURVE",
"278 86 CURVE SMOOTH",
"278 340 LINE",
"303 340 LINE SMOOTH",
"356 340 OFFCURVE",
"392 320 OFFCURVE",
"396 258 CURVE SMOOTH",
"406 113 LINE SMOOTH",
"410 53 OFFCURVE",
"419 23 OFFCURVE",
"433 0 CURVE",
"665 0 LINE",
"665 16 LINE",
"620 16 OFFCURVE",
"609 41 OFFCURVE",
"603 137 CURVE SMOOTH",
"600 184 LINE SMOOTH",
"591 325 OFFCURVE",
"480 346 OFFCURVE",
"389 360 CURVE",
"389 364 LINE",
"511 374 OFFCURVE",
"597 423 OFFCURVE",
"597 523 CURVE SMOOTH",
"597 634 OFFCURVE",
"494 680 OFFCURVE",
"316 680 CURVE SMOOTH",
"11 680 LINE",
"11 664 LINE",
"67 664 OFFCURVE",
"82 646 OFFCURVE",
"82 594 CURVE SMOOTH",
"82 86 LINE SMOOTH",
"82 34 OFFCURVE",
"67 16 OFFCURVE",
"11 16 CURVE",
"11 0 LINE"
);
},
{
closed = 1;
nodes = (
"278 645 LINE",
"307 645 LINE SMOOTH",
"348 645 OFFCURVE",
"398 632 OFFCURVE",
"398 514 CURVE SMOOTH",
"398 399 OFFCURVE",
"355 375 OFFCURVE",
"303 375 CURVE SMOOTH",
"278 375 LINE"
);
}
);
width = 666;
},
{
anchors = (
{
name = bottom;
position = "{290, 0}";
},
{
name = top;
position = "{250, 680}";
}
);
hints = (
{
horizontal = 1;
place = "{33, 21}";
target = up;
type = BottomGhost;
},
{
horizontal = 1;
place = "{713, -20}";
target = down;
type = TopGhost;
},
{
place = "{129, 62}";
type = Stem;
},
{
place = "{460, 61}";
type = Stem;
}
);
layerId = "07AD8005-5D45-4A63-B3CF-4E1D9502446D";
paths = (
{
closed = 1;
nodes = (
"182 0 LINE",
"182 7 LINE",
"136 7 OFFCURVE",
"131 14 OFFCURVE",
"131 66 CURVE SMOOTH",
"131 356 LINE",
"227 356 LINE SMOOTH",
"314 356 OFFCURVE",
"422 324 OFFCURVE",
"431 179 CURVE SMOOTH",
"436 100 LINE SMOOTH",
"439 56 OFFCURVE",
"446 23 OFFCURVE",
"460 0 CURVE",
"526 0 LINE",
"526 7 LINE",
"482 7 OFFCURVE",
"471 34 OFFCURVE",
"464 137 CURVE SMOOTH",
"461 184 LINE SMOOTH",
"453 305 OFFCURVE",
"368 349 OFFCURVE",
"277 359 CURVE",
"277 361 LINE",
"379 375 OFFCURVE",
"462 414 OFFCURVE",
"462 528 CURVE SMOOTH",
"462 623 OFFCURVE",
"401 680 OFFCURVE",
"240 680 CURVE SMOOTH",
"51 680 LINE",
"51 673 LINE",
"97 673 OFFCURVE",
"102 666 OFFCURVE",
"102 614 CURVE SMOOTH",
"102 66 LINE SMOOTH",
"102 14 OFFCURVE",
"97 7 OFFCURVE",
"51 7 CURVE",
"51 0 LINE"
);
},
{
closed = 1;
nodes = (
"131 671 LINE",
"237 671 LINE SMOOTH",
"361 671 OFFCURVE",
"430 624 OFFCURVE",
"430 526 CURVE SMOOTH",
"430 417 OFFCURVE",
"347 364 OFFCURVE",
"227 364 CURVE SMOOTH",
"131 364 LINE"
);
}
);
width = 563;
},
{
anchors = (
{
name = bottom;
position = "{310, 0}";
},
{
name = top;
position = "{270, 680}";
}
);
background = {
anchors = (
{
name = bottom;
position = "{300, 0}";
},
{
name = top;
position = "{260, 680}";
}
);
paths = (
{
closed = 1;
nodes = (
"21 0 LINE",
"248 0 LINE",
"248 12 LINE",
"212 12 OFFCURVE",
"177 22 OFFCURVE",
"177 74 CURVE SMOOTH",
"177 347 LINE",
"233 347 LINE SMOOTH",
"320 347 OFFCURVE",
"400 322 OFFCURVE",
"408 187 CURVE SMOOTH",
"414 90 LINE SMOOTH",
"416 56 OFFCURVE",
"423 23 OFFCURVE",
"437 0 CURVE",
"562 0 LINE",
"562 12 LINE",
"555 12 LINE SMOOTH",
"511 12 OFFCURVE",
"505 63 OFFCURVE",
"500 137 CURVE SMOOTH",
"497 184 LINE SMOOTH",
"489 305 OFFCURVE",
"396 343 OFFCURVE",
"305 357 CURVE",
"305 361 LINE",
"399 377 OFFCURVE",
"492 410 OFFCURVE",
"492 527 CURVE SMOOTH",
"492 633 OFFCURVE",
"425 680 OFFCURVE",
"246 680 CURVE SMOOTH",
"21 680 LINE",
"21 668 LINE",
"57 668 OFFCURVE",
"92 658 OFFCURVE",
"92 606 CURVE SMOOTH",
"92 74 LINE SMOOTH",
"92 22 OFFCURVE",
"57 12 OFFCURVE",
"21 12 CURVE"
);
},
{
closed = 1;
nodes = (
"177 368 LINE",
"177 664 LINE",
"241 664 LINE SMOOTH",
"375 664 OFFCURVE",
"406 605 OFFCURVE",
"406 523 CURVE SMOOTH",
"406 419 OFFCURVE",
"348 368 OFFCURVE",
"233 368 CURVE SMOOTH"
);
}
);
};
hints = (
{
horizontal = 1;
place = "{10, 21}";
target = up;
type = BottomGhost;
},
{
horizontal = 1;
place = "{357, 31}";
type = Stem;
},
{
horizontal = 1;
place = "{690, -20}";
target = down;
type = TopGhost;
},
{
place = "{116, 95}";
type = Stem;
},
{
place = "{432, 99}";
type = Stem;
}
);
layerId = "3FA0091B-41E8-4679-8383-4E36DA6A759B";
paths = (
{
closed = 1;
nodes = (
"258 0 LINE",
"258 12 LINE",
"202 12 OFFCURVE",
"187 22 OFFCURVE",
"187 74 CURVE SMOOTH",
"187 347 LINE",
"243 347 LINE SMOOTH",
"330 347 OFFCURVE",
"410 322 OFFCURVE",
"418 187 CURVE SMOOTH",
"424 90 LINE SMOOTH",
"426 56 OFFCURVE",
"433 23 OFFCURVE",
"447 0 CURVE",
"572 0 LINE",
"572 12 LINE",
"528 12 OFFCURVE",
"516 37 OFFCURVE",
"510 137 CURVE SMOOTH",
"507 184 LINE SMOOTH",
"499 305 OFFCURVE",
"406 343 OFFCURVE",
"315 357 CURVE",
"315 361 LINE",
"409 377 OFFCURVE",
"503 412 OFFCURVE",
"503 528 CURVE SMOOTH",
"503 633 OFFCURVE",
"425 680 OFFCURVE",
"256 680 CURVE SMOOTH",
"31 680 LINE",
"31 668 LINE",
"87 668 OFFCURVE",
"102 658 OFFCURVE",
"102 606 CURVE SMOOTH",
"102 74 LINE SMOOTH",
"102 22 OFFCURVE",
"87 12 OFFCURVE",
"31 12 CURVE",
"31 0 LINE"
);
},
{
closed = 1;
nodes = (
"187 664 LINE",
"248 664 LINE SMOOTH",
"382 664 OFFCURVE",
"413 602 OFFCURVE",
"413 523 CURVE SMOOTH",
"413 416 OFFCURVE",
"355 368 OFFCURVE",
"240 368 CURVE SMOOTH",
"187 368 LINE"
);
}
);
width = 595;
}
);
leftKerningGroup = H;
leftMetricsKey = H;
note = R;
rightKerningGroup = R;
unicode = 0052;
},
{
color = 4;
glyphname = S;
lastChange = "2021-06-22 08:27:48 +0000";
layers = (
{
anchors = (
{
name = bottom;
position = "{258, 0}";
},
{
name = cedilla;
position = "{271, 1}";
},
{
name = top;
position = "{274, 680}";
}
);
hints = (
{
horizontal = 1;
place = "{-26, 12}";
type = Stem;
},
{
horizontal = 1;
place = "{466, -20}";
target = down;
type = TopGhost;
},
{
horizontal = 1;
place = "{665, -20}";
target = down;
type = TopGhost;
},
{
place = "{23, 6}";
type = Stem;
},
{
place = "{365, 74}";
type = Stem;
},
{
place = "{23, 135}";
type = Stem;
},
{
horizontal = 1;
place = "{-15, 21}";
target = up;
type = BottomGhost;
},
{
horizontal = 1;
place = "{650, 10}";
type = Stem;
}
);
layerId = "1E8F490F-00FE-4BD6-A503-902369003CC3";
paths = (
{
closed = 1;
nodes = (
"392 -11 OFFCURVE",
"511 61 OFFCURVE",
"511 209 CURVE SMOOTH",
"511 454 OFFCURVE",
"196 390 OFFCURVE",
"196 564 CURVE SMOOTH",
"196 619 OFFCURVE",
"222 667 OFFCURVE",
"291 667 CURVE SMOOTH",
"361 667 OFFCURVE",
"428 613 OFFCURVE",
"441 481 CURVE",
"457 481 LINE",
"457 680 LINE",
"441 680 LINE",
"433 664 OFFCURVE",
"431 657 OFFCURVE",
"420 657 CURVE SMOOTH",
"396 657 OFFCURVE",
"365 696 OFFCURVE",
"282 696 CURVE SMOOTH",
"150 696 OFFCURVE",
"36 608 OFFCURVE",
"36 470 CURVE SMOOTH",
"36 235 OFFCURVE",
"362 292 OFFCURVE",
"362 115 CURVE SMOOTH",
"362 49 OFFCURVE",
"324 18 OFFCURVE",
"260 18 CURVE SMOOTH",
"184 18 OFFCURVE",
"68 67 OFFCURVE",
"57 230 CURVE",
"41 230 LINE",
"41 0 LINE",
"57 0 LINE",
"69 25 OFFCURVE",
"76 36 OFFCURVE",
"92 36 CURVE SMOOTH",
"118 36 OFFCURVE",
"167 -11 OFFCURVE",
"259 -11 CURVE SMOOTH"
);
}
);
width = 538;
},
{
anchors = (
{
name = bottom;
position = "{250, 1}";
},
{
name = cedilla;
position = "{258, -8}";
},
{
name = top;
position = "{246, 680}";
}
);
hints = (
{
horizontal = 1;
place = "{22, 21}";
target = up;
type = BottomGhost;
},
{
horizontal = 1;
place = "{713, -20}";
target = down;
type = TopGhost;
},
{
place = "{77, 61}";
type = Stem;
},
{
place = "{418, 61}";
type = Stem;
},
{
horizontal = 1;
place = "{32, 21}";
target = up;
type = BottomGhost;
},
{
horizontal = 1;
place = "{715, -20}";
target = down;
type = TopGhost;
},
{
horizontal = 1;
place = "{723, -20}";
target = down;
type = TopGhost;
}
);
layerId = "07AD8005-5D45-4A63-B3CF-4E1D9502446D";
paths = (
{
closed = 1;
nodes = (
"356 -12 OFFCURVE",
"430 50 OFFCURVE",
"430 160 CURVE SMOOTH",
"430 394 OFFCURVE",
"90 339 OFFCURVE",
"90 533 CURVE SMOOTH",
"90 619 OFFCURVE",
"154 682 OFFCURVE",
"234 682 CURVE SMOOTH",
"298 682 OFFCURVE",
"362 645 OFFCURVE",
"377 547 CURVE",
"385 547 LINE",
"385 680 LINE",
"379 680 LINE",
"374 661 OFFCURVE",
"367 649 OFFCURVE",
"359 649 CURVE SMOOTH",
"339 649 OFFCURVE",
"307 691 OFFCURVE",
"235 691 CURVE SMOOTH",
"141 691 OFFCURVE",
"66 624 OFFCURVE",
"66 526 CURVE SMOOTH",
"66 314 OFFCURVE",
"405 366 OFFCURVE",
"405 154 CURVE SMOOTH",
"405 54 OFFCURVE",
"333 -3 OFFCURVE",
"250 -3 CURVE SMOOTH",
"175 -3 OFFCURVE",
"85 48 OFFCURVE",
"71 170 CURVE",
"63 170 LINE",
"63 0 LINE",
"69 0 LINE",
"77 25 OFFCURVE",
"83 41 OFFCURVE",
"95 41 CURVE SMOOTH",
"121 41 OFFCURVE",
"164 -12 OFFCURVE",
"251 -12 CURVE SMOOTH"
);
}
);
width = 488;
},
{
anchors = (
{
name = bottom;
position = "{246, 0}";
},
{
name = cedilla;
position = "{276, -7}";
},
{
name = top;
position = "{262, 680}";
}
);
hints = (
{
horizontal = 1;
place = "{-1, 21}";
target = up;
type = BottomGhost;
},
{
horizontal = 1;
place = "{690, -20}";
target = down;
type = TopGhost;
},
{
place = "{54, 75}";
type = Stem;
},
{
place = "{398, 75}";
type = Stem;
},
{
horizontal = 1;
place = "{10, 21}";
target = up;
type = BottomGhost;
},
{
horizontal = 1;
place = "{700, -20}";
target = down;
type = TopGhost;
}
);
layerId = "3FA0091B-41E8-4679-8383-4E36DA6A759B";
paths = (
{
closed = 1;
nodes = (
"379 -11 OFFCURVE",
"466 63 OFFCURVE",
"466 184 CURVE SMOOTH",
"466 430 OFFCURVE",
"122 367 OFFCURVE",
"122 556 CURVE SMOOTH",
"122 625 OFFCURVE",
"169 672 OFFCURVE",
"245 672 CURVE SMOOTH",
"321 672 OFFCURVE",
"386 617 OFFCURVE",
"402 517 CURVE",
"418 517 LINE",
"418 680 LINE",
"405 680 LINE",
"396 661 OFFCURVE",
"389 650 OFFCURVE",
"378 650 CURVE SMOOTH",
"359 650 OFFCURVE",
"322 690 OFFCURVE",
"242 690 CURVE SMOOTH",
"149 690 OFFCURVE",
"57 638 OFFCURVE",
"57 521 CURVE SMOOTH",
"57 292 OFFCURVE",
"401 354 OFFCURVE",
"401 149 CURVE SMOOTH",
"401 54 OFFCURVE",
"326 7 OFFCURVE",
"252 7 CURVE SMOOTH",
"170 7 OFFCURVE",
"81 71 OFFCURVE",
"67 200 CURVE",
"51 200 LINE",
"51 0 LINE",
"64 0 LINE",
"74 25 OFFCURVE",
"78 35 OFFCURVE",
"91 35 CURVE SMOOTH",
"114 35 OFFCURVE",
"167 -11 OFFCURVE",
"257 -11 CURVE SMOOTH"
);
}
);
width = 511;
}
);
leftKerningGroup = S;
note = S;
rightKerningGroup = S;
unicode = 0053;
},
{
glyphname = Germandbls;
lastChange = "2021-06-22 08:27:48 +0000";
layers = (
{
hints = (
{
horizontal = 1;
place = "{-26, 21}";
target = up;
type = BottomGhost;
},
{
horizontal = 1;
place = "{371, 227}";
type = Stem;
},
{
horizontal = 1;
place = "{650, 10}";
type = Stem;
},
{
place = "{71, 181}";
type = Stem;
},
{
place = "{516, 170}";
type = Stem;
},
{
horizontal = 1;
place = "{-15, 21}";
target = up;
type = BottomGhost;
}
);
layerId = "1E8F490F-00FE-4BD6-A503-902369003CC3";
paths = (
{
closed = 1;
nodes = (
"597 -11 OFFCURVE",
"709 67 OFFCURVE",
"709 203 CURVE SMOOTH",
"709 310 OFFCURVE",
"642 372 OFFCURVE",
"509 390 CURVE",
"682 690 LINE",
"663 690 LINE",
"638 647 OFFCURVE",
"613 638 OFFCURVE",
"592 638 CURVE SMOOTH",
"531 638 OFFCURVE",
"477 690 OFFCURVE",
"368 690 CURVE SMOOTH",
"251 690 OFFCURVE",
"79 619 OFFCURVE",
"79 417 CURVE SMOOTH",
"79 86 LINE SMOOTH",
"79 34 OFFCURVE",
"44 16 OFFCURVE",
"8 16 CURVE",
"8 0 LINE",
"275 0 LINE",
"275 417 LINE SMOOTH",
"275 605 OFFCURVE",
"300 665 OFFCURVE",
"380 665 CURVE SMOOTH",
"418 665 OFFCURVE",
"453 650 OFFCURVE",
"484 636 CURVE",
"340 396 LINE",
"340 386 LINE",
"487 386 OFFCURVE",
"524 353 OFFCURVE",
"524 213 CURVE SMOOTH",
"524 85 OFFCURVE",
"510 16 OFFCURVE",
"451 16 CURVE SMOOTH",
"414 16 OFFCURVE",
"358 45 OFFCURVE",
"345 179 CURVE",
"328 179 LINE",
"328 31 LINE",
"359 9 OFFCURVE",
"405 -11 OFFCURVE",
"471 -11 CURVE SMOOTH"
);
}
);
width = 737;
},
{
hints = (
{
horizontal = 1;
place = "{22, 43}";
type = Stem;
},
{
horizontal = 1;
place = "{411, 43}";
type = Stem;
},
{
horizontal = 1;
place = "{715, 41}";
type = Stem;
},
{
place = "{129, 62}";
type = Stem;
},
{
place = "{281, 43}";
type = Stem;
},
{
place = "{580, 66}";
type = Stem;
},
{
horizontal = 1;
place = "{33, 40}";
type = Stem;
}
);
layerId = "07AD8005-5D45-4A63-B3CF-4E1D9502446D";
paths = (
{
closed = 1;
nodes = (
"485 -11 OFFCURVE",
"579 58 OFFCURVE",
"579 201 CURVE SMOOTH",
"579 322 OFFCURVE",
"511 385 OFFCURVE",
"375 388 CURVE",
"530 668 LINE",
"523 668 LINE",
"518 664 OFFCURVE",
"512 662 OFFCURVE",
"504 662 CURVE SMOOTH",
"471 661 OFFCURVE",
"410 690 OFFCURVE",
"322 690 CURVE SMOOTH",
"187 690 OFFCURVE",
"95 630 OFFCURVE",
"95 427 CURVE SMOOTH",
"95 66 LINE SMOOTH",
"95 14 OFFCURVE",
"90 7 OFFCURVE",
"44 7 CURVE",
"44 0 LINE",
"124 0 LINE",
"124 427 LINE SMOOTH",
"124 614 OFFCURVE",
"191 682 OFFCURVE",
"320 682 CURVE SMOOTH",
"388 682 OFFCURVE",
"463 663 OFFCURVE",
"489 649 CURVE",
"343 386 LINE",
"343 378 LINE",
"482 378 OFFCURVE",
"546 343 OFFCURVE",
"546 208 CURVE SMOOTH",
"546 73 OFFCURVE",
"482 -1 OFFCURVE",
"392 -1 CURVE SMOOTH",
"335 -1 OFFCURVE",
"289 26 OFFCURVE",
"257 99 CURVE",
"247 99 LINE",
"247 41 LINE",
"285 13 OFFCURVE",
"330 -11 OFFCURVE",
"388 -11 CURVE SMOOTH"
);
}
);
width = 629;
},
{
hints = (
{
horizontal = 1;
place = "{-1, 21}";
target = up;
type = BottomGhost;
},
{
horizontal = 1;
place = "{678, 32}";
type = Stem;
},
{
place = "{116, 95}";
type = Stem;
},
{
place = "{530, 98}";
type = Stem;
},
{
horizontal = 1;
place = "{10, 21}";
target = up;
type = BottomGhost;
}
);
layerId = "3FA0091B-41E8-4679-8383-4E36DA6A759B";
paths = (
{
closed = 1;
nodes = (
"517 -11 OFFCURVE",
"594 67 OFFCURVE",
"594 203 CURVE SMOOTH",
"594 310 OFFCURVE",
"524 372 OFFCURVE",
"391 390 CURVE",
"550 674 LINE",
"535 681 LINE",
"524 675 OFFCURVE",
"511 673 OFFCURVE",
"495 673 CURVE SMOOTH",
"454 674 OFFCURVE",
"400 690 OFFCURVE",
"342 690 CURVE SMOOTH",
"202 690 OFFCURVE",
"92 632 OFFCURVE",
"92 427 CURVE SMOOTH",
"92 74 LINE SMOOTH",
"92 22 OFFCURVE",
"57 12 OFFCURVE",
"21 12 CURVE",
"21 0 LINE",
"177 0 LINE",
"177 427 LINE SMOOTH",
"177 615 OFFCURVE",
"258 668 OFFCURVE",
"338 668 CURVE SMOOTH",
"383 668 OFFCURVE",
"424 659 OFFCURVE",
"455 648 CURVE",
"312 386 LINE",
"312 376 LINE",
"459 376 OFFCURVE",
"506 343 OFFCURVE",
"506 203 CURVE SMOOTH",
"506 75 OFFCURVE",
"464 6 OFFCURVE",
"405 6 CURVE SMOOTH",
"362 6 OFFCURVE",
"320 46 OFFCURVE",
"281 109 CURVE",
"271 109 LINE",
"271 31 LINE",
"306 10 OFFCURVE",
"355 -11 OFFCURVE",
"406 -11 CURVE SMOOTH"
);
}
);
width = 642;
}
);
leftKerningGroup = Germandbls;
leftMetricsKey = "=U";
note = uni1E9E;
rightKerningGroup = B;
unicode = 1E9E;
},
{
glyphname = Schwa;
lastChange = "2021-06-22 08:27:48 +0000";
layers = (
{
hints = (
{
horizontal = 1;
place = "{-26, 10}";
type = Stem;
},
{
horizontal = 1;
place = "{316, 19}";
type = Stem;
},
{
horizontal = 1;
place = "{614, 46}";
type = Stem;
},
{
place = "{12, 200}";
type = Stem;
},
{
place = "{417, 201}";
type = Stem;
},
{
horizontal = 1;
place = "{616, 44}";
type = Stem;
}
);
layerId = "1E8F490F-00FE-4BD6-A503-902369003CC3";
paths = (
{
closed = 1;
nodes = (
"20 365 LINE",
"10 141 OFFCURVE",
"112 -11 OFFCURVE",
"329 -11 CURVE SMOOTH",
"523 -11 OFFCURVE",
"640 125 OFFCURVE",
"640 339 CURVE SMOOTH",
"640 553 OFFCURVE",
"523 690 OFFCURVE",
"329 690 CURVE SMOOTH",
"174 690 OFFCURVE",
"69 603 OFFCURVE",
"33 459 CURVE",
"57 459 LINE",
"82 564 OFFCURVE",
"166 631 OFFCURVE",
"263 631 CURVE SMOOTH",
"374 631 OFFCURVE",
"424 548 OFFCURVE",
"424 340 CURVE",
"424 298 LINE SMOOTH",
"424 77 OFFCURVE",
"388 14 OFFCURVE",
"325 14 CURVE SMOOTH",
"256 14 OFFCURVE",
"234 84 OFFCURVE",
"234 331 CURVE",
"433 331 LINE",
"432 365 LINE"
);
}
);
width = 659;
},
{
hints = (
{
horizontal = 1;
place = "{22, 43}";
type = Stem;
},
{
horizontal = 1;
place = "{348, 43}";
type = Stem;
},
{
horizontal = 1;
place = "{705, 51}";
type = Stem;
},
{
place = "{69, 61}";
type = Stem;
},
{
place = "{637, 65}";
type = Stem;
}
);
layerId = "07AD8005-5D45-4A63-B3CF-4E1D9502446D";
paths = (
{
closed = 1;
nodes = (
"59 325 LINE",
"64 118 OFFCURVE",
"194 -11 OFFCURVE",
"353 -11 CURVE SMOOTH",
"518 -11 OFFCURVE",
"659 129 OFFCURVE",
"659 343 CURVE SMOOTH",
"659 557 OFFCURVE",
"516 690 OFFCURVE",
"354 690 CURVE SMOOTH",
"224 690 OFFCURVE",
"108 606 OFFCURVE",
"66 464 CURVE",
"75 464 LINE",
"113 597 OFFCURVE",
"231 672 OFFCURVE",
"348 672 CURVE SMOOTH",
"489 672 OFFCURVE",
"627 553 OFFCURVE",
"627 322 CURVE SMOOTH",
"627 318 LINE SMOOTH",
"627 133 OFFCURVE",
"506 -1 OFFCURVE",
"355 -1 CURVE SMOOTH",
"239 -1 OFFCURVE",
"96 88 OFFCURVE",
"87 315 CURVE",
"630 315 LINE",
"630 325 LINE"
);
}
);
width = 718;
},
{
hints = (
{
horizontal = 1;
place = "{-1, 21}";
target = up;
type = BottomGhost;
},
{
horizontal = 1;
place = "{320, 32}";
type = Stem;
},
{
horizontal = 1;
place = "{649, 61}";
type = Stem;
},
{
place = "{52, 101}";
type = Stem;
},
{
place = "{558, 100}";
type = Stem;
},
{
horizontal = 1;
place = "{322, 30}";
type = Stem;
}
);
layerId = "3FA0091B-41E8-4679-8383-4E36DA6A759B";
paths = (
{
closed = 1;
nodes = (
"39 332 LINE",
"41 120 OFFCURVE",
"167 -11 OFFCURVE",
"328 -11 CURVE SMOOTH",
"494 -11 OFFCURVE",
"635 135 OFFCURVE",
"635 349 CURVE SMOOTH",
"635 563 OFFCURVE",
"501 690 OFFCURVE",
"338 690 CURVE SMOOTH",
"208 690 OFFCURVE",
"92 603 OFFCURVE",
"50 460 CURVE",
"69 460 LINE",
"103 583 OFFCURVE",
"216 639 OFFCURVE",
"318 639 CURVE SMOOTH",
"437 639 OFFCURVE",
"545 553 OFFCURVE",
"545 344 CURVE SMOOTH",
"545 327 LINE",
"540 115 OFFCURVE",
"467 7 OFFCURVE",
"332 7 CURVE SMOOTH",
"218 7 OFFCURVE",
"137 90 OFFCURVE",
"130 312 CURVE",
"549 312 LINE",
"550 332 LINE"
);
}
);
width = 674;
}
);
leftKerningGroup = O;
leftMetricsKey = O;
note = uni018F;
rightKerningGroup = O;
rightMetricsKey = O;
unicode = 018F;
},
{
color = 4;
glyphname = T;
lastChange = "2021-06-22 11:21:37 +0000";
layers = (
{
anchors = (
{
name = bottom;
position = "{300, 0}";
},
{
name = cedilla;
position = "{324, 0}";
},
{
name = center;
position = "{300, 340}";
},
{
name = top;
position = "{300, 680}";
}
);
hints = (
{
horizontal = 1;
place = "{-15, 21}";
target = up;
type = BottomGhost;
},
{
horizontal = 1;
place = "{492, -20}";
target = down;
type = TopGhost;
},
{
horizontal = 1;
place = "{630, 20}";
type = Stem;
},
{
place = "{142, 180}";
type = Stem;
}
);
layerId = "1E8F490F-00FE-4BD6-A503-902369003CC3";
paths = (
{
closed = 1;
nodes = (
"124 0 LINE",
"462 0 LINE",
"462 16 LINE",
"406 16 OFFCURVE",
"391 34 OFFCURVE",
"391 86 CURVE SMOOTH",
"391 645 LINE",
"456 645 LINE SMOOTH",
"534 645 OFFCURVE",
"557 608 OFFCURVE",
"557 507 CURVE",
"573 507 LINE",
"573 680 LINE",
"13 680 LINE",
"13 507 LINE",
"29 507 LINE",
"29 605 OFFCURVE",
"50 645 OFFCURVE",
"130 645 CURVE SMOOTH",
"195 645 LINE",
"195 86 LINE SMOOTH",
"195 34 OFFCURVE",
"180 16 OFFCURVE",
"124 16 CURVE"
);
}
);
width = 586;
},
{
anchors = (
{
name = bottom;
position = "{250, 0}";
},
{
name = cedilla;
position = "{262, 0}";
},
{
name = center;
position = "{250, 340}";
},
{
name = top;
position = "{250, 680}";
}
);
hints = (
{
horizontal = 1;
place = "{33, 21}";
target = up;
type = BottomGhost;
},
{
horizontal = 1;
place = "{713, -20}";
target = down;
type = TopGhost;
},
{
place = "{255, 62}";
type = Stem;
},
{
place = "{255, 249}";
type = Stem;
},
{
place = "{68, 249}";
type = Stem;
}
);
layerId = "07AD8005-5D45-4A63-B3CF-4E1D9502446D";
paths = (
{
closed = 1;
nodes = (
"184 0 LINE",
"315 0 LINE",
"315 7 LINE",
"269 7 OFFCURVE",
"264 14 OFFCURVE",
"264 66 CURVE SMOOTH",
"264 672 LINE",
"371 672 LINE SMOOTH",
"460 672 OFFCURVE",
"472 656 OFFCURVE",
"472 569 CURVE",
"480 569 LINE",
"480 680 LINE",
"19 680 LINE",
"19 569 LINE",
"27 569 LINE",
"27 654 OFFCURVE",
"37 672 OFFCURVE",
"128 672 CURVE SMOOTH",
"235 672 LINE",
"235 66 LINE SMOOTH",
"235 14 OFFCURVE",
"230 7 OFFCURVE",
"184 7 CURVE"
);
}
);
width = 499;
},
{
anchors = (
{
name = bottom;
position = "{269, 0}";
},
{
name = cedilla;
position = "{305, 0}";
},
{
name = center;
position = "{269, 340}";
},
{
name = top;
position = "{269, 680}";
}
);
hints = (
{
horizontal = 1;
place = "{10, 21}";
target = up;
type = BottomGhost;
},
{
horizontal = 1;
place = "{690, -20}";
target = down;
type = TopGhost;
},
{
place = "{232, 95}";
type = Stem;
}
);
layerId = "3FA0091B-41E8-4679-8383-4E36DA6A759B";
paths = (
{
closed = 1;
nodes = (
"153 0 LINE",
"380 0 LINE",
"380 12 LINE",
"324 12 OFFCURVE",
"309 22 OFFCURVE",
"309 74 CURVE SMOOTH",
"309 664 LINE",
"394 664 LINE SMOOTH",
"465 664 OFFCURVE",
"500 623 OFFCURVE",
"500 541 CURVE",
"516 541 LINE",
"516 680 LINE",
"17 680 LINE",
"17 541 LINE",
"33 541 LINE",
"33 623 OFFCURVE",
"68 664 OFFCURVE",
"139 664 CURVE SMOOTH",
"224 664 LINE",
"224 74 LINE SMOOTH",
"224 22 OFFCURVE",
"209 12 OFFCURVE",
"153 12 CURVE"
);
}
);
width = 533;
}
);
leftKerningGroup = T;
note = T;
rightKerningGroup = T;
rightMetricsKey = "=|";
unicode = 0054;
},
{
color = 4;
glyphname = Tbar;
lastChange = "2021-06-22 11:31:23 +0000";
layers = (
{
components = (
{
name = T;
}
);
hints = (
{
horizontal = 1;
place = "{-15, 21}";
target = up;
type = BottomGhost;
},
{
horizontal = 1;
place = "{325, 20}";
type = Stem;
},
{
horizontal = 1;
place = "{492, -20}";
target = down;
type = TopGhost;
},
{
horizontal = 1;
place = "{630, 20}";
type = Stem;
},
{
place = "{142, 180}";
type = Stem;
}
);
layerId = "1E8F490F-00FE-4BD6-A503-902369003CC3";
paths = (
{
closed = 1;
nodes = (
"121 375 LINE",
"121 340 LINE",
"465 340 LINE",
"465 375 LINE"
);
}
);
width = 586;
},
{
components = (
{
name = T;
}
);
hints = (
{
horizontal = 1;
place = "{33, 21}";
target = up;
type = BottomGhost;
},
{
horizontal = 1;
place = "{713, -20}";
target = down;
type = TopGhost;
},
{
place = "{68, 249}";
type = Stem;
},
{
place = "{255, 62}";
type = Stem;
},
{
place = "{255, 249}";
type = Stem;
}
);
layerId = "07AD8005-5D45-4A63-B3CF-4E1D9502446D";
paths = (
{
closed = 1;
nodes = (
"111 363 LINE",
"111 353 LINE",
"390 353 LINE",
"390 363 LINE"
);
}
);
width = 499;
},
{
components = (
{
name = T;
}
);
hints = (
{
horizontal = 1;
place = "{10, 21}";
target = up;
type = BottomGhost;
},
{
horizontal = 1;
place = "{690, -20}";
target = down;
type = TopGhost;
},
{
place = "{232, 95}";
type = Stem;
}
);
layerId = "3FA0091B-41E8-4679-8383-4E36DA6A759B";
paths = (
{
closed = 1;
nodes = (
"108 369 LINE",
"108 347 LINE",
"427 347 LINE",
"427 369 LINE"
);
}
);
width = 533;
}
);
leftKerningGroup = T;
note = Tbar;
rightKerningGroup = T;
unicode = 0166;
},
{
color = 4;
glyphname = U;
lastChange = "2021-06-22 11:23:49 +0000";
layers = (
{
anchors = (
{
name = bottom;
position = "{334, 0}";
},
{
name = horn;
position = "{500, 680}";
},
{
name = ogonek;
position = "{386, 0}";
},
{
name = top;
position = "{334, 680}";
},
{
name = topright;
position = "{571, 680}";
}
);
hints = (
{
horizontal = 1;
place = "{-26, 45}";
type = Stem;
},
{
horizontal = 1;
place = "{665, -20}";
target = down;
type = TopGhost;
},
{
place = "{71, 180}";
type = Stem;
},
{
place = "{461, 16}";
type = Stem;
}
);
layerId = "1E8F490F-00FE-4BD6-A503-902369003CC3";
paths = (
{
closed = 1;
nodes = (
"449 -11 OFFCURVE",
"531 54 OFFCURVE",
"531 183 CURVE SMOOTH",
"531 588 LINE SMOOTH",
"531 656 OFFCURVE",
"549 664 OFFCURVE",
"603 664 CURVE",
"603 680 LINE",
"429 680 LINE",
"429 664 LINE",
"493 664 OFFCURVE",
"500 656 OFFCURVE",
"500 588 CURVE SMOOTH",
"500 185 LINE SMOOTH",
"500 98 OFFCURVE",
"455 49 OFFCURVE",
"385 49 CURVE SMOOTH",
"317 49 OFFCURVE",
"275 86 OFFCURVE",
"275 174 CURVE SMOOTH",
"275 594 LINE SMOOTH",
"275 646 OFFCURVE",
"290 664 OFFCURVE",
"346 664 CURVE",
"346 680 LINE",
"8 680 LINE",
"8 664 LINE",
"64 664 OFFCURVE",
"79 646 OFFCURVE",
"79 594 CURVE SMOOTH",
"79 162 LINE SMOOTH",
"79 76 OFFCURVE",
"142 -11 OFFCURVE",
"300 -11 CURVE SMOOTH"
);
}
);
width = 611;
},
{
anchors = (
{
name = bottom;
position = "{320, 0}";
},
{
name = horn;
position = "{496, 680}";
},
{
name = ogonek;
position = "{372, 0}";
},
{
name = top;
position = "{320, 680}";
},
{
name = topright;
position = "{557, 680}";
}
);
hints = (
{
horizontal = 1;
place = "{22, 21}";
target = up;
type = BottomGhost;
},
{
horizontal = 1;
place = "{713, -20}";
target = down;
type = TopGhost;
},
{
place = "{129, 62}";
type = Stem;
}
);
layerId = "07AD8005-5D45-4A63-B3CF-4E1D9502446D";
paths = (
{
closed = 1;
nodes = (
"450 -11 OFFCURVE",
"523 92 OFFCURVE",
"523 221 CURVE SMOOTH",
"523 614 LINE SMOOTH",
"523 666 OFFCURVE",
"528 673 OFFCURVE",
"574 673 CURVE",
"574 680 LINE",
"462 680 LINE",
"462 673 LINE",
"508 673 OFFCURVE",
"513 666 OFFCURVE",
"513 614 CURVE SMOOTH",
"513 221 LINE SMOOTH",
"513 96 OFFCURVE",
"444 2 OFFCURVE",
"316 2 CURVE SMOOTH",
"185 2 OFFCURVE",
"124 83 OFFCURVE",
"124 214 CURVE SMOOTH",
"124 614 LINE SMOOTH",
"124 666 OFFCURVE",
"129 673 OFFCURVE",
"175 673 CURVE",
"175 680 LINE",
"44 680 LINE",
"44 673 LINE",
"90 673 OFFCURVE",
"95 666 OFFCURVE",
"95 614 CURVE SMOOTH",
"95 207 LINE SMOOTH",
"95 74 OFFCURVE",
"170 -11 OFFCURVE",
"301 -11 CURVE SMOOTH"
);
}
);
width = 618;
},
{
anchors = (
{
name = bottom;
position = "{337, 0}";
},
{
name = horn;
position = "{476, 680}";
},
{
name = ogonek;
position = "{389, 0}";
},
{
name = top;
position = "{337, 680}";
},
{
name = topright;
position = "{574, 680}";
}
);
hints = (
{
horizontal = 1;
place = "{-1, 43}";
type = Stem;
},
{
horizontal = 1;
place = "{690, -20}";
target = down;
type = TopGhost;
},
{
place = "{116, 95}";
type = Stem;
},
{
place = "{521, 33}";
type = Stem;
}
);
layerId = "3FA0091B-41E8-4679-8383-4E36DA6A759B";
paths = (
{
closed = 1;
nodes = (
"452 -11 OFFCURVE",
"530 64 OFFCURVE",
"530 193 CURVE SMOOTH",
"530 592 LINE SMOOTH",
"530 660 OFFCURVE",
"545 668 OFFCURVE",
"599 668 CURVE",
"599 680 LINE",
"436 680 LINE",
"436 668 LINE",
"500 668 OFFCURVE",
"507 660 OFFCURVE",
"507 592 CURVE SMOOTH",
"507 189 LINE SMOOTH",
"507 87 OFFCURVE",
"442 22 OFFCURVE",
"336 22 CURVE SMOOTH",
"247 22 OFFCURVE",
"177 72 OFFCURVE",
"177 200 CURVE SMOOTH",
"177 606 LINE SMOOTH",
"177 658 OFFCURVE",
"192 668 OFFCURVE",
"248 668 CURVE",
"248 680 LINE",
"21 680 LINE",
"21 668 LINE",
"77 668 OFFCURVE",
"92 658 OFFCURVE",
"92 606 CURVE SMOOTH",
"92 188 LINE SMOOTH",
"92 76 OFFCURVE",
"151 -11 OFFCURVE",
"303 -11 CURVE SMOOTH"
);
}
);
width = 620;
}
);
leftKerningGroup = U;
note = U;
rightKerningGroup = U;
rightMetricsKey = "=|";
unicode = 0055;
},
{
color = 4;
glyphname = Ubar;
lastChange = "2021-06-22 08:27:48 +0000";
layers = (
{
components = (
{
name = U;
}
);
hints = (
{
horizontal = 1;
place = "{-26, 45}";
type = Stem;
},
{
horizontal = 1;
place = "{325, 20}";
type = Stem;
},
{
horizontal = 1;
place = "{665, -20}";
target = down;
type = TopGhost;
},
{
place = "{71, 180}";
type = Stem;
},
{
place = "{461, 16}";
type = Stem;
}
);
layerId = "1E8F490F-00FE-4BD6-A503-902369003CC3";
paths = (
{
closed = 1;
nodes = (
"595 340 LINE",
"595 375 LINE",
"1 375 LINE",
"1 340 LINE"
);
}
);
width = 611;
},
{
components = (
{
name = U;
}
);
hints = (
{
horizontal = 1;
place = "{22, 21}";
target = up;
type = BottomGhost;
},
{
horizontal = 1;
place = "{713, -20}";
target = down;
type = TopGhost;
},
{
place = "{129, 62}";
type = Stem;
}
);
layerId = "07AD8005-5D45-4A63-B3CF-4E1D9502446D";
paths = (
{
closed = 1;
nodes = (
"592 353 LINE",
"592 363 LINE",
"43 363 LINE",
"43 353 LINE"
);
}
);
width = 612;
},
{
components = (
{
name = U;
}
);
hints = (
{
horizontal = 1;
place = "{-1, 43}";
type = Stem;
},
{
horizontal = 1;
place = "{357, 32}";
type = Stem;
},
{
horizontal = 1;
place = "{690, -20}";
target = down;
type = TopGhost;
},
{
place = "{116, 95}";
type = Stem;
},
{
place = "{521, 33}";
type = Stem;
}
);
layerId = "3FA0091B-41E8-4679-8383-4E36DA6A759B";
paths = (
{
closed = 1;
nodes = (
"599 347 LINE",
"599 369 LINE",
"21 369 LINE",
"21 347 LINE"
);
}
);
width = 620;
}
);
leftKerningGroup = U;
note = uni0244;
rightKerningGroup = U;
unicode = 0244;
},
{
color = 6;
glyphname = Uhorn;
lastChange = "2021-06-22 08:27:48 +0000";
layers = (
{
anchors = (
{
name = bottom;
position = "{334, 0}";
},
{
name = horn;
position = "{500, 680}";
},
{
name = ogonek;
position = "{386, 0}";
},
{
name = top;
position = "{334, 680}";
},
{
name = topright;
position = "{571, 680}";
}
);
hints = (
{
horizontal = 1;
place = "{-26, 45}";
type = Stem;
},
{
horizontal = 1;
place = "{535, 6}";
type = Stem;
},
{
horizontal = 1;
place = "{649, 188}";
type = Stem;
},
{
place = "{71, 180}";
type = Stem;
},
{
place = "{461, 16}";
type = Stem;
},
{
place = "{558, 135}";
type = Stem;
},
{
horizontal = 1;
place = "{717, 120}";
type = Stem;
},
{
horizontal = 1;
place = "{603, 47}";
type = Stem;
},
{
horizontal = 1;
place = "{-26, 45}";
type = Stem;
},
{
horizontal = 1;
place = "{665, -20}";
target = down;
type = TopGhost;
},
{
place = "{71, 180}";
type = Stem;
},
{
place = "{461, 16}";
type = Stem;
}
);
layerId = "1E8F490F-00FE-4BD6-A503-902369003CC3";
paths = (
{
closed = 1;
nodes = (
"449 -11 OFFCURVE",
"531 57 OFFCURVE",
"531 186 CURVE SMOOTH",
"531 588 LINE SMOOTH",
"531 656 OFFCURVE",
"566 664 OFFCURVE",
"600 664 CURVE",
"600 680 LINE",
"429 680 LINE",
"429 664 LINE",
"473 664 OFFCURVE",
"500 656 OFFCURVE",
"500 588 CURVE SMOOTH",
"500 182 LINE SMOOTH",
"500 98 OFFCURVE",
"455 49 OFFCURVE",
"385 49 CURVE SMOOTH",
"317 49 OFFCURVE",
"275 86 OFFCURVE",
"275 154 CURVE SMOOTH",
"275 594 LINE SMOOTH",
"275 660 OFFCURVE",
"310 664 OFFCURVE",
"346 664 CURVE",
"346 680 LINE",
"8 680 LINE",
"8 664 LINE",
"44 664 OFFCURVE",
"79 660 OFFCURVE",
"79 594 CURVE SMOOTH",
"79 162 LINE SMOOTH",
"79 76 OFFCURVE",
"142 -11 OFFCURVE",
"300 -11 CURVE SMOOTH"
);
},
{
closed = 1;
nodes = (
"553 664 OFFCURVE",
"559 664 OFFCURVE",
"600 664 CURVE SMOOTH",
"677 664 OFFCURVE",
"752 684 OFFCURVE",
"752 747 CURVE SMOOTH",
"752 785 OFFCURVE",
"725 808 OFFCURVE",
"693 808 CURVE SMOOTH",
"662 808 OFFCURVE",
"637 786 OFFCURVE",
"637 753 CURVE SMOOTH",
"637 736 OFFCURVE",
"645 720 OFFCURVE",
"645 707 CURVE SMOOTH",
"645 678 OFFCURVE",
"613 680 OFFCURVE",
"585 680 CURVE",
"500 680 LINE",
"513 664 LINE"
);
}
);
width = 649;
},
{
anchors = (
{
name = bottom;
position = "{320, 0}";
},
{
name = horn;
position = "{496, 680}";
},
{
name = ogonek;
position = "{372, 0}";
},
{
name = top;
position = "{320, 680}";
},
{
name = topright;
position = "{557, 680}";
}
);
hints = (
{
horizontal = 1;
place = "{22, 21}";
target = up;
type = BottomGhost;
},
{
horizontal = 1;
place = "{713, -20}";
target = down;
type = TopGhost;
},
{
horizontal = 1;
place = "{789, 98}";
type = Stem;
},
{
place = "{129, 62}";
type = Stem;
},
{
place = "{689, 46}";
type = Stem;
},
{
horizontal = 1;
place = "{704, 42}";
type = Stem;
},
{
horizontal = 1;
place = "{22, 21}";
target = up;
type = BottomGhost;
},
{
horizontal = 1;
place = "{713, -20}";
target = down;
type = TopGhost;
},
{
place = "{129, 62}";
type = Stem;
}
);
layerId = "07AD8005-5D45-4A63-B3CF-4E1D9502446D";
paths = (
{
closed = 1;
nodes = (
"450 -11 OFFCURVE",
"523 92 OFFCURVE",
"523 221 CURVE SMOOTH",
"523 614 LINE SMOOTH",
"523 666 OFFCURVE",
"528 673 OFFCURVE",
"574 673 CURVE",
"574 680 LINE",
"462 680 LINE",
"462 673 LINE",
"508 673 OFFCURVE",
"513 666 OFFCURVE",
"513 614 CURVE SMOOTH",
"513 221 LINE SMOOTH",
"513 96 OFFCURVE",
"444 2 OFFCURVE",
"316 2 CURVE SMOOTH",
"185 2 OFFCURVE",
"124 86 OFFCURVE",
"124 188 CURVE SMOOTH",
"124 614 LINE SMOOTH",
"124 666 OFFCURVE",
"129 673 OFFCURVE",
"175 673 CURVE",
"175 680 LINE",
"44 680 LINE",
"44 673 LINE",
"90 673 OFFCURVE",
"95 666 OFFCURVE",
"95 614 CURVE SMOOTH",
"95 196 LINE SMOOTH",
"95 77 OFFCURVE",
"170 -11 OFFCURVE",
"301 -11 CURVE SMOOTH"
);
},
{
closed = 1;
nodes = (
"549 673 OFFCURVE",
"543 673 OFFCURVE",
"606 673 CURVE SMOOTH",
"646 673 OFFCURVE",
"672 686 OFFCURVE",
"672 719 CURVE SMOOTH",
"672 737 OFFCURVE",
"663 752 OFFCURVE",
"643 752 CURVE SMOOTH",
"628 752 OFFCURVE",
"620 743 OFFCURVE",
"620 731 CURVE SMOOTH",
"620 718 OFFCURVE",
"628 712 OFFCURVE",
"628 700 CURVE SMOOTH",
"628 686 OFFCURVE",
"611 680 OFFCURVE",
"587 680 CURVE",
"496 680 LINE",
"496 673 LINE"
);
}
);
width = 609;
},
{
anchors = (
{
name = bottom;
position = "{337, 0}";
},
{
name = horn;
position = "{476, 680}";
},
{
name = ogonek;
position = "{389, 0}";
},
{
name = top;
position = "{337, 680}";
},
{
name = topright;
position = "{574, 680}";
}
);
hints = (
{
horizontal = 1;
place = "{-1, 43}";
type = Stem;
},
{
horizontal = 1;
place = "{674, 201}";
type = Stem;
},
{
place = "{116, 95}";
type = Stem;
},
{
place = "{521, 33}";
type = Stem;
},
{
place = "{631, 112}";
type = Stem;
},
{
horizontal = 1;
place = "{763, 112}";
type = Stem;
},
{
horizontal = 1;
place = "{562, 138}";
type = Stem;
},
{
horizontal = 1;
place = "{678, 85}";
type = Stem;
},
{
horizontal = 1;
place = "{-1, 43}";
type = Stem;
},
{
horizontal = 1;
place = "{690, -20}";
target = down;
type = TopGhost;
},
{
place = "{116, 95}";
type = Stem;
},
{
place = "{521, 33}";
type = Stem;
}
);
layerId = "3FA0091B-41E8-4679-8383-4E36DA6A759B";
paths = (
{
closed = 1;
nodes = (
"452 -11 OFFCURVE",
"530 64 OFFCURVE",
"530 193 CURVE SMOOTH",
"530 592 LINE SMOOTH",
"530 660 OFFCURVE",
"565 664 OFFCURVE",
"599 664 CURVE",
"599 680 LINE",
"436 680 LINE",
"436 668 LINE",
"480 668 OFFCURVE",
"507 660 OFFCURVE",
"507 592 CURVE SMOOTH",
"507 189 LINE SMOOTH",
"507 87 OFFCURVE",
"442 22 OFFCURVE",
"336 22 CURVE SMOOTH",
"247 22 OFFCURVE",
"177 72 OFFCURVE",
"177 160 CURVE SMOOTH",
"177 606 LINE SMOOTH",
"177 671 OFFCURVE",
"212 668 OFFCURVE",
"248 668 CURVE",
"248 680 LINE",
"21 680 LINE",
"21 668 LINE",
"57 668 OFFCURVE",
"92 671 OFFCURVE",
"92 606 CURVE SMOOTH",
"92 168 LINE SMOOTH",
"92 76 OFFCURVE",
"151 -11 OFFCURVE",
"303 -11 CURVE SMOOTH"
);
},
{
closed = 1;
nodes = (
"531 664 OFFCURVE",
"542 664 OFFCURVE",
"599 664 CURVE SMOOTH",
"641 664 OFFCURVE",
"703 688 OFFCURVE",
"703 741 CURVE SMOOTH",
"703 773 OFFCURVE",
"681 793 OFFCURVE",
"654 793 CURVE SMOOTH",
"628 793 OFFCURVE",
"607 774 OFFCURVE",
"607 746 CURVE SMOOTH",
"607 732 OFFCURVE",
"613 719 OFFCURVE",
"613 708 CURVE SMOOTH",
"613 683 OFFCURVE",
"586 680 OFFCURVE",
"553 680 CURVE SMOOTH",
"481 680 LINE",
"497 664 LINE"
);
}
);
width = 620;
}
);
leftKerningGroup = U;
leftMetricsKey = U;
note = Uhorn;
rightKerningGroup = U;
unicode = 01AF;
},
{
color = 4;
glyphname = V;
lastChange = "2021-06-22 08:27:48 +0000";
layers = (
{
anchors = (
{
name = bottom;
position = "{306, 0}";
},
{
name = top;
position = "{312, 680}";
}
);
hints = (
{
horizontal = 1;
place = "{-22, 21}";
target = up;
type = BottomGhost;
},
{
horizontal = 1;
place = "{665, -20}";
target = down;
type = TopGhost;
}
);
layerId = "1E8F490F-00FE-4BD6-A503-902369003CC3";
paths = (
{
closed = 1;
nodes = (
"310 -7 LINE",
"510 543 LINE SMOOTH",
"547 644 OFFCURVE",
"559 664 OFFCURVE",
"615 664 CURVE",
"615 680 LINE",
"421 680 LINE",
"421 664 LINE",
"480 664 OFFCURVE",
"508 635 OFFCURVE",
"475 546 CURVE SMOOTH",
"386 303 LINE",
"384 303 LINE",
"305 553 LINE SMOOTH",
"277 640 OFFCURVE",
"288 664 OFFCURVE",
"349 664 CURVE",
"349 680 LINE",
"4 680 LINE",
"4 664 LINE",
"55 664 OFFCURVE",
"61 645 OFFCURVE",
"83 585 CURVE SMOOTH",
"296 -7 LINE"
);
}
);
width = 619;
},
{
anchors = (
{
name = bottom;
position = "{314, 0}";
},
{
name = top;
position = "{320, 680}";
}
);
hints = (
{
horizontal = 1;
place = "{23, 21}";
target = up;
type = BottomGhost;
},
{
horizontal = 1;
place = "{713, -20}";
target = down;
type = TopGhost;
}
);
layerId = "07AD8005-5D45-4A63-B3CF-4E1D9502446D";
paths = (
{
closed = 1;
nodes = (
"314 -10 LINE",
"508 526 LINE SMOOTH",
"549 639 OFFCURVE",
"570 673 OFFCURVE",
"606 673 CURVE",
"606 680 LINE",
"489 680 LINE",
"489 673 LINE",
"538 673 OFFCURVE",
"543 650 OFFCURVE",
"499 528 CURVE SMOOTH",
"318 28 LINE",
"316 28 LINE",
"135 553 LINE SMOOTH",
"100 653 OFFCURVE",
"100 673 OFFCURVE",
"144 673 CURVE",
"144 680 LINE",
"22 680 LINE",
"22 673 LINE",
"57 673 OFFCURVE",
"69 656 OFFCURVE",
"103 559 CURVE SMOOTH",
"300 -10 LINE"
);
}
);
width = 628;
},
{
anchors = (
{
name = bottom;
position = "{339, 0}";
},
{
name = top;
position = "{345, 680}";
}
);
hints = (
{
horizontal = 1;
place = "{0, 21}";
target = up;
type = BottomGhost;
},
{
horizontal = 1;
place = "{690, -20}";
target = down;
type = TopGhost;
}
);
layerId = "3FA0091B-41E8-4679-8383-4E36DA6A759B";
paths = (
{
closed = 1;
nodes = (
"323 -10 LINE",
"512 503 LINE SMOOTH",
"564 644 OFFCURVE",
"583 668 OFFCURVE",
"637 668 CURVE",
"637 680 LINE",
"467 680 LINE",
"467 668 LINE",
"522 668 OFFCURVE",
"536 634 OFFCURVE",
"501 537 CURVE SMOOTH",
"347 113 LINE",
"345 113 LINE",
"189 553 LINE SMOOTH",
"154 651 OFFCURVE",
"161 668 OFFCURVE",
"226 668 CURVE",
"226 680 LINE",
"7 680 LINE",
"7 668 LINE",
"46 668 OFFCURVE",
"61 659 OFFCURVE",
"82 603 CURVE SMOOTH",
"309 -10 LINE"
);
}
);
width = 644;
}
);
leftKerningGroup = V;
leftMetricsKey = A;
note = V;
rightKerningGroup = V;
rightMetricsKey = "=|";
unicode = 0056;
},
{
color = 4;
glyphname = W;
lastChange = "2021-06-22 08:27:48 +0000";
layers = (
{
anchors = (
{
name = bottom;
position = "{472, 0}";
},
{
name = top;
position = "{539, 680}";
}
);
hints = (
{
horizontal = 1;
place = "{-22, 21}";
target = up;
type = BottomGhost;
},
{
horizontal = 1;
place = "{665, -20}";
target = down;
type = TopGhost;
}
);
layerId = "1E8F490F-00FE-4BD6-A503-902369003CC3";
paths = (
{
closed = 1;
nodes = (
"273 -7 LINE",
"458 424 LINE",
"635 -7 LINE",
"649 -7 LINE",
"824 543 LINE SMOOTH",
"855 641 OFFCURVE",
"871 664 OFFCURVE",
"929 664 CURVE",
"929 680 LINE",
"738 680 LINE",
"738 664 LINE",
"797 664 OFFCURVE",
"817 636 OFFCURVE",
"789 546 CURVE SMOOTH",
"711 293 LINE",
"551 675 LINE",
"527 675 LINE",
"369 302 LINE",
"305 553 LINE SMOOTH",
"279 655 OFFCURVE",
"280 664 OFFCURVE",
"321 664 CURVE",
"321 680 LINE",
"4 680 LINE",
"4 664 LINE",
"55 664 OFFCURVE",
"68 633 OFFCURVE",
"77 603 CURVE SMOOTH",
"256 -7 LINE"
);
}
);
width = 933;
},
{
anchors = (
{
name = bottom;
position = "{466, 0}";
},
{
name = top;
position = "{472, 680}";
}
);
hints = (
{
horizontal = 1;
place = "{23, 21}";
target = up;
type = BottomGhost;
},
{
horizontal = 1;
place = "{713, -20}";
target = down;
type = TopGhost;
}
);
layerId = "07AD8005-5D45-4A63-B3CF-4E1D9502446D";
paths = (
{
closed = 1;
nodes = (
"278 -10 LINE",
"463 634 LINE",
"662 -10 LINE",
"676 -10 LINE",
"824 526 LINE SMOOTH",
"855 638 OFFCURVE",
"876 673 OFFCURVE",
"914 673 CURVE",
"914 680 LINE",
"797 680 LINE",
"797 673 LINE",
"845 673 OFFCURVE",
"849 657 OFFCURVE",
"815 528 CURVE SMOOTH",
"679 24 LINE",
"478 678 LINE",
"467 678 LINE",
"281 26 LINE",
"129 553 LINE SMOOTH",
"99 655 OFFCURVE",
"100 673 OFFCURVE",
"144 673 CURVE",
"144 680 LINE",
"22 680 LINE",
"22 673 LINE",
"57 673 OFFCURVE",
"68 657 OFFCURVE",
"97 559 CURVE SMOOTH",
"264 -10 LINE"
);
}
);
width = 936;
},
{
anchors = (
{
name = bottom;
position = "{492, 0}";
},
{
name = top;
position = "{498, 680}";
}
);
hints = (
{
horizontal = 1;
place = "{0, 21}";
target = up;
type = BottomGhost;
},
{
horizontal = 1;
place = "{690, -20}";
target = down;
type = TopGhost;
}
);
layerId = "3FA0091B-41E8-4679-8383-4E36DA6A759B";
paths = (
{
closed = 1;
nodes = (
"273 -10 LINE",
"467 553 LINE",
"668 -10 LINE",
"682 -10 LINE",
"837 535 LINE SMOOTH",
"866 638 OFFCURVE",
"891 668 OFFCURVE",
"946 668 CURVE",
"946 680 LINE",
"766 680 LINE",
"766 668 LINE",
"829 668 OFFCURVE",
"846 640 OFFCURVE",
"818 541 CURVE SMOOTH",
"704 134 LINE",
"509 679 LINE",
"491 679 LINE",
"302 121 LINE",
"189 553 LINE SMOOTH",
"162 658 OFFCURVE",
"164 668 OFFCURVE",
"226 668 CURVE",
"226 680 LINE",
"7 680 LINE",
"7 668 LINE",
"46 668 OFFCURVE",
"65 662 OFFCURVE",
"82 603 CURVE SMOOTH",
"259 -10 LINE"
);
}
);
width = 953;
}
);
leftKerningGroup = V;
leftMetricsKey = V;
note = W.ss11;
rightKerningGroup = V;
rightMetricsKey = "=|";
unicode = 0057;
},
{
color = 4;
glyphname = X;
lastChange = "2021-06-22 08:27:48 +0000";
layers = (
{
anchors = (
{
name = bottom;
position = "{312, 0}";
},
{
name = top;
position = "{318, 680}";
}
);
guideLines = (
{
angle = 239.8863;
position = "{297, 214}";
}
);
hints = (
{
horizontal = 1;
place = "{-15, 21}";
target = up;
type = BottomGhost;
},
{
horizontal = 1;
place = "{665, -20}";
target = down;
type = TopGhost;
}
);
layerId = "1E8F490F-00FE-4BD6-A503-902369003CC3";
paths = (
{
closed = 1;
nodes = (
"666 0 LINE",
"666 16 LINE",
"624 16 OFFCURVE",
"597 34 OFFCURVE",
"564 99 CURVE SMOOTH",
"322 580 LINE SMOOTH",
"292 640 OFFCURVE",
"304 664 OFFCURVE",
"358 664 CURVE",
"358 680 LINE",
"8 680 LINE",
"8 664 LINE",
"54 664 OFFCURVE",
"74 644 OFFCURVE",
"113 567 CURVE SMOOTH",
"349 94 LINE SMOOTH",
"378 37 OFFCURVE",
"368 16 OFFCURVE",
"320 16 CURVE",
"320 0 LINE"
);
},
{
closed = 1;
nodes = (
"213 0 LINE",
"213 16 LINE",
"146 16 OFFCURVE",
"129 38 OFFCURVE",
"170 112 CURVE SMOOTH",
"264 283 LINE",
"248 314 LINE",
"132 114 LINE SMOOTH",
"88 38 OFFCURVE",
"56 16 OFFCURVE",
"1 16 CURVE",
"1 0 LINE"
);
},
{
closed = 1;
nodes = (
"516 572 LINE SMOOTH",
"562 648 OFFCURVE",
"580 664 OFFCURVE",
"629 664 CURVE",
"629 680 LINE",
"441 680 LINE",
"441 664 LINE",
"502 664 OFFCURVE",
"512 630 OFFCURVE",
"475 566 CURVE SMOOTH",
"397 432 LINE",
"412 402 LINE"
);
}
);
width = 660;
},
{
anchors = (
{
name = bottom;
position = "{312, 0}";
},
{
name = top;
position = "{318, 680}";
}
);
hints = (
{
horizontal = 1;
place = "{33, 21}";
target = up;
type = BottomGhost;
},
{
horizontal = 1;
place = "{713, -20}";
target = down;
type = TopGhost;
}
);
layerId = "07AD8005-5D45-4A63-B3CF-4E1D9502446D";
paths = (
{
closed = 1;
nodes = (
"610 0 LINE",
"610 7 LINE",
"572 7 OFFCURVE",
"547 22 OFFCURVE",
"498 98 CURVE SMOOTH",
"175 600 LINE SMOOTH",
"132 666 OFFCURVE",
"132 673 OFFCURVE",
"183 673 CURVE",
"183 680 LINE",
"45 680 LINE",
"45 673 LINE",
"88 673 OFFCURVE",
"99 666 OFFCURVE",
"160 572 CURVE SMOOTH",
"488 62 LINE SMOOTH",
"519 14 OFFCURVE",
"517 7 OFFCURVE",
"474 7 CURVE",
"474 0 LINE"
);
},
{
closed = 1;
nodes = (
"165 0 LINE",
"165 7 LINE",
"109 7 OFFCURVE",
"102 24 OFFCURVE",
"158 110 CURVE SMOOTH",
"320 356 LINE",
"314 365 LINE",
"146 112 LINE SMOOTH",
"95 35 OFFCURVE",
"72 7 OFFCURVE",
"22 7 CURVE",
"22 0 LINE"
);
},
{
closed = 1;
nodes = (
"466 574 LINE SMOOTH",
"518 651 OFFCURVE",
"539 673 OFFCURVE",
"586 673 CURVE",
"586 680 LINE",
"441 680 LINE",
"441 673 LINE",
"498 673 OFFCURVE",
"508 653 OFFCURVE",
"452 570 CURVE SMOOTH",
"319 371 LINE",
"325 363 LINE"
);
}
);
width = 637;
},
{
anchors = (
{
name = bottom;
position = "{301, 0}";
},
{
name = top;
position = "{307, 680}";
}
);
hints = (
{
horizontal = 1;
place = "{10, 21}";
target = up;
type = BottomGhost;
},
{
horizontal = 1;
place = "{690, -20}";
target = down;
type = TopGhost;
}
);
layerId = "3FA0091B-41E8-4679-8383-4E36DA6A759B";
paths = (
{
closed = 1;
nodes = (
"637 0 LINE",
"637 12 LINE",
"599 12 OFFCURVE",
"562 31 OFFCURVE",
"522 100 CURVE SMOOTH",
"239 583 LINE SMOOTH",
"200 650 OFFCURVE",
"203 668 OFFCURVE",
"261 668 CURVE",
"261 680 LINE",
"25 680 LINE",
"25 668 LINE",
"70 668 OFFCURVE",
"103 648 OFFCURVE",
"148 570 CURVE SMOOTH",
"425 94 LINE SMOOTH",
"461 32 OFFCURVE",
"457 12 OFFCURVE",
"405 12 CURVE",
"405 0 LINE"
);
},
{
closed = 1;
nodes = (
"212 0 LINE",
"212 12 LINE",
"144 12 OFFCURVE",
"134 34 OFFCURVE",
"179 111 CURVE SMOOTH",
"308 329 LINE",
"295 348 LINE",
"154 114 LINE SMOOTH",
"104 30 OFFCURVE",
"72 12 OFFCURVE",
"19 12 CURVE",
"19 0 LINE"
);
},
{
closed = 1;
nodes = (
"480 573 LINE SMOOTH",
"530 652 OFFCURVE",
"556 668 OFFCURVE",
"605 668 CURVE",
"605 680 LINE",
"416 680 LINE",
"416 668 LINE",
"480 668 OFFCURVE",
"495 642 OFFCURVE",
"449 567 CURVE SMOOTH",
"343 393 LINE",
"355 375 LINE"
);
}
);
width = 644;
}
);
leftKerningGroup = X;
note = X;
rightKerningGroup = X;
unicode = 0058;
},
{
color = 4;
glyphname = Y;
lastChange = "2021-06-22 08:27:48 +0000";
layers = (
{
anchors = (
{
name = bottom;
position = "{309, 0}";
},
{
name = top;
position = "{351, 680}";
},
{
name = topleft;
position = "{-29, 680}";
}
);
background = {
anchors = (
{
name = bottom;
position = "{320, 0}";
},
{
name = top;
position = "{320, 680}";
},
{
name = topleft;
position = "{658, 680}";
}
);
paths = (
{
closed = 1;
nodes = (
"495 16 LINE",
"439 16 OFFCURVE",
"424 34 OFFCURVE",
"424 86 CURVE SMOOTH",
"424 287 LINE",
"538 567 LINE SMOOTH",
"570 647 OFFCURVE",
"589 664 OFFCURVE",
"631 664 CURVE",
"631 680 LINE",
"304 680 LINE",
"304 664 LINE",
"363 664 OFFCURVE",
"371 652 OFFCURVE",
"342 574 CURVE SMOOTH",
"235 290 LINE",
"249 290 LINE",
"147 557 LINE SMOOTH",
"116 638 OFFCURVE",
"141 664 OFFCURVE",
"204 664 CURVE",
"204 680 LINE",
"9 680 LINE",
"9 664 LINE",
"60 664 OFFCURVE",
"78 639 OFFCURVE",
"117 540 CURVE SMOOTH",
"228 262 LINE",
"228 86 LINE SMOOTH",
"228 34 OFFCURVE",
"213 16 OFFCURVE",
"157 16 CURVE",
"157 0 LINE",
"495 0 LINE"
);
}
);
};
hints = (
{
horizontal = 1;
place = "{-15, 21}";
target = up;
type = BottomGhost;
},
{
horizontal = 1;
place = "{665, -20}";
target = down;
type = TopGhost;
},
{
place = "{192, 180}";
type = Stem;
}
);
layerId = "1E8F490F-00FE-4BD6-A503-902369003CC3";
paths = (
{
closed = 1;
nodes = (
"471 0 LINE",
"471 16 LINE",
"415 16 OFFCURVE",
"400 34 OFFCURVE",
"400 86 CURVE SMOOTH",
"400 262 LINE",
"511 540 LINE SMOOTH",
"550 639 OFFCURVE",
"568 664 OFFCURVE",
"619 664 CURVE",
"619 680 LINE",
"424 680 LINE",
"424 664 LINE",
"487 664 OFFCURVE",
"512 638 OFFCURVE",
"481 557 CURVE SMOOTH",
"379 290 LINE",
"393 290 LINE",
"286 574 LINE SMOOTH",
"257 652 OFFCURVE",
"265 664 OFFCURVE",
"324 664 CURVE",
"324 680 LINE",
"-3 680 LINE",
"-3 664 LINE",
"39 664 OFFCURVE",
"58 647 OFFCURVE",
"90 567 CURVE SMOOTH",
"204 287 LINE",
"204 86 LINE SMOOTH",
"204 34 OFFCURVE",
"189 16 OFFCURVE",
"133 16 CURVE",
"133 0 LINE"
);
}
);
width = 616;
},
{
anchors = (
{
name = bottom;
position = "{278, 0}";
},
{
name = top;
position = "{292, 680}";
},
{
name = topleft;
position = "{-5, 680}";
}
);
background = {
paths = (
{
closed = 1;
nodes = (
"314 7 LINE",
"268 7 OFFCURVE",
"263 14 OFFCURVE",
"263 66 CURVE SMOOTH",
"263 274 LINE",
"417 567 LINE SMOOTH",
"472 671 OFFCURVE",
"475 673 OFFCURVE",
"509 673 CURVE",
"509 680 LINE",
"402 680 LINE",
"402 673 LINE",
"438 673 OFFCURVE",
"436 663 OFFCURVE",
"389 573 CURVE SMOOTH",
"236 278 LINE",
"243 278 LINE",
"108 547 LINE",
"57 654 OFFCURVE",
"56 673 OFFCURVE",
"113 673 CURVE",
"113 680 LINE",
"-12 680 LINE",
"-12 673 LINE",
"27 673 OFFCURVE",
"47 649 OFFCURVE",
"100 543 CURVE SMOOTH",
"234 275 LINE",
"234 66 LINE SMOOTH",
"234 14 OFFCURVE",
"229 7 OFFCURVE",
"183 7 CURVE",
"183 0 LINE",
"314 0 LINE"
);
}
);
};
hints = (
{
horizontal = 1;
place = "{33, 21}";
target = up;
type = BottomGhost;
},
{
horizontal = 1;
place = "{713, -20}";
target = down;
type = TopGhost;
},
{
place = "{282, 62}";
type = Stem;
}
);
layerId = "07AD8005-5D45-4A63-B3CF-4E1D9502446D";
paths = (
{
closed = 1;
nodes = (
"341 0 LINE",
"341 7 LINE",
"295 7 OFFCURVE",
"290 14 OFFCURVE",
"290 66 CURVE SMOOTH",
"290 275 LINE",
"431 543 LINE SMOOTH",
"487 649 OFFCURVE",
"504 673 OFFCURVE",
"543 673 CURVE",
"543 680 LINE",
"418 680 LINE",
"418 673 LINE",
"475 673 OFFCURVE",
"474 654 OFFCURVE",
"423 547 CURVE",
"281 278 LINE",
"288 278 LINE",
"142 573 LINE SMOOTH",
"97 663 OFFCURVE",
"93 673 OFFCURVE",
"129 673 CURVE",
"129 680 LINE",
"22 680 LINE",
"22 673 LINE",
"56 673 OFFCURVE",
"62 671 OFFCURVE",
"114 567 CURVE SMOOTH",
"261 274 LINE",
"261 66 LINE SMOOTH",
"261 14 OFFCURVE",
"256 7 OFFCURVE",
"210 7 CURVE",
"210 0 LINE"
);
}
);
width = 565;
},
{
anchors = (
{
name = bottom;
position = "{287, 0}";
},
{
name = top;
position = "{312, 680}";
},
{
name = topleft;
position = "{-24, 680}";
}
);
background = {
paths = (
{
closed = 1;
nodes = (
"391 12 LINE",
"335 12 OFFCURVE",
"320 22 OFFCURVE",
"320 74 CURVE SMOOTH",
"320 274 LINE",
"469 567 LINE SMOOTH",
"514 656 OFFCURVE",
"522 668 OFFCURVE",
"562 668 CURVE",
"562 680 LINE",
"365 680 LINE",
"365 668 LINE",
"422 668 OFFCURVE",
"417 643 OFFCURVE",
"383 574 CURVE SMOOTH",
"242 290 LINE",
"250 290 LINE",
"120 545 LINE SMOOTH",
"76 631 OFFCURVE",
"92 668 OFFCURVE",
"155 668 CURVE",
"155 680 LINE",
"-20 680 LINE",
"-20 668 LINE",
"21 668 OFFCURVE",
"41 644 OFFCURVE",
"94 543 CURVE SMOOTH",
"235 275 LINE",
"235 74 LINE SMOOTH",
"235 22 OFFCURVE",
"220 12 OFFCURVE",
"164 12 CURVE",
"164 0 LINE",
"391 0 LINE"
);
}
);
};
hints = (
{
horizontal = 1;
place = "{10, 21}";
target = up;
type = BottomGhost;
},
{
horizontal = 1;
place = "{690, -20}";
target = down;
type = TopGhost;
},
{
place = "{254, 95}";
type = Stem;
}
);
layerId = "3FA0091B-41E8-4679-8383-4E36DA6A759B";
paths = (
{
closed = 1;
nodes = (
"400 0 LINE",
"400 12 LINE",
"344 12 OFFCURVE",
"329 22 OFFCURVE",
"329 74 CURVE SMOOTH",
"329 275 LINE",
"470 543 LINE SMOOTH",
"523 644 OFFCURVE",
"543 668 OFFCURVE",
"584 668 CURVE",
"584 680 LINE",
"409 680 LINE",
"409 668 LINE",
"472 668 OFFCURVE",
"488 631 OFFCURVE",
"444 545 CURVE SMOOTH",
"314 290 LINE",
"322 290 LINE",
"181 574 LINE SMOOTH",
"147 643 OFFCURVE",
"142 668 OFFCURVE",
"199 668 CURVE",
"199 680 LINE",
"2 680 LINE",
"2 668 LINE",
"42 668 OFFCURVE",
"50 656 OFFCURVE",
"95 567 CURVE SMOOTH",
"244 274 LINE",
"244 74 LINE SMOOTH",
"244 22 OFFCURVE",
"229 12 OFFCURVE",
"173 12 CURVE",
"173 0 LINE"
);
}
);
width = 586;
}
);
leftKerningGroup = Y;
note = Y;
rightKerningGroup = Y;
rightMetricsKey = "=|";
unicode = 0059;
},
{
color = 4;
glyphname = Z;
lastChange = "2021-06-22 08:27:48 +0000";
layers = (
{
anchors = (
{
name = bottom;
position = "{286, 0}";
},
{
name = center;
position = "{286, 340}";
},
{
name = top;
position = "{271, 680}";
}
);
background = {
components = (
{
name = E;
transform = "{1, 0, 0, 1, 19, 0}";
}
);
};
hints = (
{
horizontal = 1;
place = "{-15, 21}";
type = Stem;
},
{
horizontal = 1;
place = "{469, -20}";
target = down;
type = TopGhost;
},
{
horizontal = 1;
place = "{637, 13}";
type = Stem;
}
);
layerId = "1E8F490F-00FE-4BD6-A503-902369003CC3";
paths = (
{
closed = 1;
nodes = (
"517 0 LINE",
"517 196 LINE",
"501 196 LINE",
"501 73 OFFCURVE",
"469 36 OFFCURVE",
"351 36 CURVE SMOOTH",
"243 36 LINE",
"523 664 LINE",
"523 680 LINE",
"36 680 LINE",
"36 476 LINE",
"52 476 LINE",
"52 598 OFFCURVE",
"63 644 OFFCURVE",
"179 644 CURVE SMOOTH",
"341 644 LINE",
"310 667 LINE",
"19 16 LINE",
"19 0 LINE"
);
}
);
width = 549;
},
{
anchors = (
{
name = bottom;
position = "{265, 0}";
},
{
name = center;
position = "{265, 340}";
},
{
name = top;
position = "{265, 680}";
}
);
hints = (
{
horizontal = 1;
place = "{33, 21}";
target = up;
type = BottomGhost;
},
{
horizontal = 1;
place = "{713, -20}";
target = down;
type = TopGhost;
}
);
layerId = "07AD8005-5D45-4A63-B3CF-4E1D9502446D";
paths = (
{
closed = 1;
nodes = (
"486 0 LINE",
"486 127 LINE",
"476 127 LINE",
"476 23 OFFCURVE",
"450 10 OFFCURVE",
"341 10 CURVE SMOOTH",
"78 10 LINE",
"482 671 LINE",
"482 680 LINE",
"57 680 LINE",
"57 575 LINE",
"67 575 LINE",
"67 669 OFFCURVE",
"105 671 OFFCURVE",
"198 671 CURVE SMOOTH",
"471 671 LINE",
"455 678 LINE",
"44 6 LINE",
"44 0 LINE"
);
}
);
width = 534;
},
{
anchors = (
{
name = bottom;
position = "{266, 0}";
},
{
name = center;
position = "{266, 340}";
},
{
name = top;
position = "{266, 680}";
}
);
hints = (
{
horizontal = 1;
place = "{10, 32}";
type = Stem;
},
{
horizontal = 1;
place = "{690, -20}";
target = down;
type = TopGhost;
}
);
layerId = "3FA0091B-41E8-4679-8383-4E36DA6A759B";
paths = (
{
closed = 1;
nodes = (
"495 0 LINE",
"495 159 LINE",
"479 159 LINE",
"479 36 OFFCURVE",
"422 22 OFFCURVE",
"294 22 CURVE SMOOTH",
"128 22 LINE",
"501 668 LINE",
"501 680 LINE",
"40 680 LINE",
"40 533 LINE",
"56 533 LINE",
"56 644 OFFCURVE",
"84 658 OFFCURVE",
"240 658 CURVE SMOOTH",
"450 658 LINE",
"410 675 LINE",
"27 12 LINE",
"27 0 LINE"
);
}
);
width = 531;
}
);
leftKerningGroup = Z;
note = Z;
rightKerningGroup = Z;
unicode = 005A;
},
{
color = 6;
glyphname = A.ss01;
lastChange = "2021-06-22 08:27:48 +0000";
layers = (
{
anchors = (
{
name = bottom;
position = "{288, 0}";
},
{
name = center;
position = "{285, 340}";
},
{
name = ogonek;
position = "{600, 0}";
},
{
name = top;
position = "{323, 680}";
},
{
name = topleft;
position = "{144, 680}";
}
);
hints = (
{
horizontal = 1;
place = "{10, 238}";
type = Stem;
},
{
horizontal = 1;
place = "{700, -20}";
target = down;
type = TopGhost;
}
);
layerId = "3FA0091B-41E8-4679-8383-4E36DA6A759B";
paths = (
{
closed = 1;
nodes = (
"342 703 LINE",
"332 703 LINE",
"325 679 OFFCURVE",
"311 660 OFFCURVE",
"289 651 CURVE",
"128 177 LINE SMOOTH",
"77 28 OFFCURVE",
"56 12 OFFCURVE",
"12 12 CURVE SMOOTH",
"7 12 LINE",
"7 0 LINE",
"176 0 LINE",
"176 12 LINE",
"165 12 LINE SMOOTH",
"121 12 OFFCURVE",
"110 56 OFFCURVE",
"138 143 CURVE SMOOTH",
"152 185 LINE SMOOTH",
"171 239 OFFCURVE",
"201 260 OFFCURVE",
"233 260 CURVE SMOOTH",
"270 260 OFFCURVE",
"299 230 OFFCURVE",
"343 230 CURVE SMOOTH",
"373 230 OFFCURVE",
"395 245 OFFCURVE",
"411 265 CURVE",
"458 127 LINE SMOOTH",
"489 36 OFFCURVE",
"481 12 OFFCURVE",
"429 12 CURVE SMOOTH",
"418 12 LINE",
"418 0 LINE",
"637 0 LINE",
"637 12 LINE",
"598 12 OFFCURVE",
"585 21 OFFCURVE",
"565 77 CURVE SMOOTH"
);
},
{
closed = 1;
nodes = (
"309 254 OFFCURVE",
"285 281 OFFCURVE",
"248 281 CURVE SMOOTH",
"222 281 OFFCURVE",
"191 268 OFFCURVE",
"166 229 CURVE",
"291 612 LINE",
"407 275 LINE",
"395 264 OFFCURVE",
"377 254 OFFCURVE",
"351 254 CURVE SMOOTH"
);
}
);
width = 644;
},
{
anchors = (
{
name = bottom;
position = "{285, 0}";
},
{
name = center;
position = "{282, 340}";
},
{
name = ogonek;
position = "{597, 0}";
},
{
name = top;
position = "{325, 680}";
},
{
name = topleft;
position = "{131, 680}";
}
);
associatedMasterId = "1E8F490F-00FE-4BD6-A503-902369003CC3";
hints = (
{
horizontal = 1;
place = "{-15, 213}";
type = Stem;
},
{
horizontal = 1;
place = "{675, -20}";
target = down;
type = TopGhost;
},
{
horizontal = 1;
place = "{181, 17}";
type = Stem;
}
);
layerId = "1BD1946D-7EA5-4A96-818B-E7BA6E1949F6";
name = "May 31 21, 11:19";
paths = (
{
closed = 1;
nodes = (
"185 0 LINE",
"185 16 LINE",
"174 16 LINE SMOOTH",
"130 16 OFFCURVE",
"115 53 OFFCURVE",
"141 143 CURVE SMOOTH",
"256 547 LINE",
"240 547 LINE",
"340 127 LINE SMOOTH",
"361 39 OFFCURVE",
"353 16 OFFCURVE",
"304 16 CURVE SMOOTH",
"293 16 LINE",
"293 0 LINE",
"634 0 LINE",
"634 16 LINE",
"590 16 OFFCURVE",
"579 35 OFFCURVE",
"568 77 CURVE SMOOTH",
"397 715 LINE",
"378 715 LINE",
"352 649 OFFCURVE",
"300 614 OFFCURVE",
"246 600 CURVE",
"119 177 LINE SMOOTH",
"73 25 OFFCURVE",
"45 16 OFFCURVE",
"9 16 CURVE SMOOTH",
"4 16 LINE",
"4 0 LINE"
);
},
{
closed = 1;
nodes = (
"152 181 OFFCURVE",
"169 200 OFFCURVE",
"187 200 CURVE SMOOTH",
"217 200 OFFCURVE",
"248 150 OFFCURVE",
"275 150 CURVE SMOOTH",
"316 150 OFFCURVE",
"333 214 OFFCURVE",
"319 265 CURVE",
"308 265 LINE",
"314 231 OFFCURVE",
"300 217 OFFCURVE",
"280 217 CURVE SMOOTH",
"247 217 OFFCURVE",
"235 249 OFFCURVE",
"209 249 CURVE SMOOTH",
"186 249 OFFCURVE",
"163 218 OFFCURVE",
"143 174 CURVE",
"141 143 LINE"
);
}
);
width = 638;
},
{
anchors = (
{
name = bottom;
position = "{285, 0}";
},
{
name = center;
position = "{282, 340}";
},
{
name = ogonek;
position = "{597, 0}";
},
{
name = top;
position = "{325, 680}";
},
{
name = topleft;
position = "{131, 680}";
}
);
hints = (
{
horizontal = 1;
place = "{-15, 213}";
type = Stem;
},
{
horizontal = 1;
place = "{675, -20}";
target = down;
type = TopGhost;
},
{
horizontal = 1;
place = "{181, 17}";
type = Stem;
}
);
layerId = "1E8F490F-00FE-4BD6-A503-902369003CC3";
paths = (
{
closed = 1;
nodes = (
"397 715 LINE",
"378 715 LINE",
"352 649 OFFCURVE",
"300 614 OFFCURVE",
"246 600 CURVE",
"119 177 LINE SMOOTH",
"73 25 OFFCURVE",
"45 16 OFFCURVE",
"9 16 CURVE SMOOTH",
"4 16 LINE",
"4 0 LINE",
"185 0 LINE",
"185 16 LINE",
"174 16 LINE SMOOTH",
"130 16 OFFCURVE",
"117 54 OFFCURVE",
"142 144 CURVE SMOOTH",
"146 159 LINE SMOOTH",
"158 193 OFFCURVE",
"177 198 OFFCURVE",
"189 198 CURVE SMOOTH",
"217 198 OFFCURVE",
"238 175 OFFCURVE",
"267 175 CURVE SMOOTH",
"288 175 OFFCURVE",
"308 187 OFFCURVE",
"319 215 CURVE",
"340 127 LINE SMOOTH",
"361 39 OFFCURVE",
"353 16 OFFCURVE",
"304 16 CURVE SMOOTH",
"293 16 LINE",
"293 0 LINE",
"634 0 LINE",
"634 16 LINE",
"590 16 OFFCURVE",
"579 35 OFFCURVE",
"568 77 CURVE SMOOTH"
);
},
{
closed = 1;
nodes = (
"249 220 OFFCURVE",
"229 238 OFFCURVE",
"207 238 CURVE SMOOTH",
"188 238 OFFCURVE",
"172 225 OFFCURVE",
"158 202 CURVE",
"247 516 LINE",
"315 232 LINE",
"305 224 OFFCURVE",
"292 220 OFFCURVE",
"278 220 CURVE SMOOTH"
);
}
);
width = 638;
},
{
anchors = (
{
name = bottom;
position = "{267, 0}";
},
{
name = center;
position = "{264, 340}";
},
{
name = ogonek;
position = "{559, 0}";
},
{
name = top;
position = "{287, 680}";
},
{
name = topleft;
position = "{93, 680}";
}
);
associatedMasterId = "07AD8005-5D45-4A63-B3CF-4E1D9502446D";
hints = (
{
horizontal = 1;
place = "{16, 21}";
target = up;
type = BottomGhost;
},
{
horizontal = 1;
place = "{706, -20}";
target = down;
type = TopGhost;
}
);
layerId = "5D4BDFD4-2BB2-49B2-8563-260EF8CBB359";
name = "May 31 21, 11:21";
paths = (
{
closed = 1;
nodes = (
"113 0 LINE",
"113 7 LINE",
"104 7 LINE SMOOTH",
"69 7 OFFCURVE",
"59 9 OFFCURVE",
"100 124 CURVE SMOOTH",
"290 652 LINE",
"287 652 LINE",
"477 116 LINE SMOOTH",
"507 32 OFFCURVE",
"509 7 OFFCURVE",
"475 7 CURVE SMOOTH",
"459 7 LINE",
"459 0 LINE",
"587 0 LINE",
"587 7 LINE",
"552 7 OFFCURVE",
"545 13 OFFCURVE",
"510 110 CURVE SMOOTH",
"301 692 LINE",
"297 692 LINE",
"297 686 OFFCURVE",
"295 683 OFFCURVE",
"291 681 CURVE",
"91 126 LINE SMOOTH",
"49 9 OFFCURVE",
"37 7 OFFCURVE",
"10 7 CURVE SMOOTH",
"5 7 LINE",
"5 0 LINE"
);
},
{
closed = 1;
nodes = (
"147 244 OFFCURVE",
"179 267 OFFCURVE",
"205 267 CURVE SMOOTH",
"247 267 OFFCURVE",
"289 209 OFFCURVE",
"339 209 CURVE SMOOTH",
"376 209 OFFCURVE",
"443 246 OFFCURVE",
"409 319 CURVE",
"405 320 LINE",
"407 259 OFFCURVE",
"383 227 OFFCURVE",
"345 227 CURVE SMOOTH",
"295 227 OFFCURVE",
"261 280 OFFCURVE",
"214 280 CURVE SMOOTH",
"185 280 OFFCURVE",
"151 260 OFFCURVE",
"120 195 CURVE",
"125 194 LINE"
);
}
);
width = 592;
},
{
anchors = (
{
name = bottom;
position = "{267, 0}";
},
{
name = center;
position = "{264, 340}";
},
{
name = ogonek;
position = "{559, 0}";
},
{
name = top;
position = "{287, 680}";
},
{
name = topleft;
position = "{93, 680}";
}
);
associatedMasterId = "07AD8005-5D45-4A63-B3CF-4E1D9502446D";
hints = (
{
horizontal = 1;
place = "{16, 21}";
target = up;
type = BottomGhost;
},
{
horizontal = 1;
place = "{706, -20}";
target = down;
type = TopGhost;
}
);
layerId = "02AEEFB7-2962-46B7-A24D-316A1988A95B";
name = "May 31 21, 11:39";
paths = (
{
closed = 1;
nodes = (
"113 0 LINE",
"113 7 LINE",
"104 7 LINE SMOOTH",
"69 7 OFFCURVE",
"59 9 OFFCURVE",
"100 124 CURVE SMOOTH",
"290 652 LINE",
"287 652 LINE",
"477 116 LINE SMOOTH",
"507 32 OFFCURVE",
"509 7 OFFCURVE",
"475 7 CURVE SMOOTH",
"459 7 LINE",
"459 0 LINE",
"587 0 LINE",
"587 7 LINE",
"552 7 OFFCURVE",
"545 13 OFFCURVE",
"510 110 CURVE SMOOTH",
"301 692 LINE",
"297 692 LINE",
"297 686 OFFCURVE",
"295 683 OFFCURVE",
"291 681 CURVE",
"91 126 LINE SMOOTH",
"49 9 OFFCURVE",
"37 7 OFFCURVE",
"10 7 CURVE SMOOTH",
"5 7 LINE",
"5 0 LINE"
);
},
{
closed = 1;
nodes = (
"147 244 OFFCURVE",
"179 267 OFFCURVE",
"205 267 CURVE SMOOTH",
"247 267 OFFCURVE",
"289 209 OFFCURVE",
"339 209 CURVE SMOOTH",
"376 209 OFFCURVE",
"406 241 OFFCURVE",
"425 291 CURVE",
"422 293 LINE",
"406 258 OFFCURVE",
"383 227 OFFCURVE",
"345 227 CURVE SMOOTH",
"295 227 OFFCURVE",
"261 280 OFFCURVE",
"214 280 CURVE SMOOTH",
"185 280 OFFCURVE",
"151 260 OFFCURVE",
"120 195 CURVE",
"125 194 LINE"
);
}
);
width = 592;
},
{
anchors = (
{
name = bottom;
position = "{267, 0}";
},
{
name = center;
position = "{264, 340}";
},
{
name = ogonek;
position = "{559, 0}";
},
{
name = top;
position = "{287, 680}";
},
{
name = topleft;
position = "{93, 680}";
}
);
associatedMasterId = "07AD8005-5D45-4A63-B3CF-4E1D9502446D";
hints = (
{
horizontal = 1;
place = "{16, 21}";
target = up;
type = BottomGhost;
},
{
horizontal = 1;
place = "{706, -20}";
target = down;
type = TopGhost;
}
);
layerId = "BA78D6E6-0DC9-45EE-8CF0-11182A1BDCD2";
name = "May 31 21, 13:38";
paths = (
{
closed = 1;
nodes = (
"113 0 LINE",
"113 7 LINE",
"104 7 LINE SMOOTH",
"69 7 OFFCURVE",
"59 9 OFFCURVE",
"100 124 CURVE SMOOTH",
"290 652 LINE",
"287 652 LINE",
"477 116 LINE SMOOTH",
"507 32 OFFCURVE",
"509 7 OFFCURVE",
"475 7 CURVE SMOOTH",
"459 7 LINE",
"459 0 LINE",
"587 0 LINE",
"587 7 LINE",
"552 7 OFFCURVE",
"545 13 OFFCURVE",
"510 110 CURVE SMOOTH",
"301 692 LINE",
"297 692 LINE",
"297 686 OFFCURVE",
"295 683 OFFCURVE",
"291 681 CURVE",
"91 126 LINE SMOOTH",
"49 9 OFFCURVE",
"37 7 OFFCURVE",
"10 7 CURVE SMOOTH",
"5 7 LINE",
"5 0 LINE"
);
},
{
closed = 1;
nodes = (
"147 244 OFFCURVE",
"176 255 OFFCURVE",
"205 255 CURVE SMOOTH",
"224 255 OFFCURVE",
"249 247 OFFCURVE",
"272 237 CURVE SMOOTH",
"305 223 OFFCURVE",
"316 217 OFFCURVE",
"339 217 CURVE SMOOTH",
"377 217 OFFCURVE",
"406 245 OFFCURVE",
"425 291 CURVE",
"421 296 LINE",
"405 261 OFFCURVE",
"383 233 OFFCURVE",
"344 233 CURVE SMOOTH",
"322 233 OFFCURVE",
"309 238 OFFCURVE",
"279 251 CURVE SMOOTH",
"255 261 OFFCURVE",
"230 270 OFFCURVE",
"212 270 CURVE SMOOTH",
"181 270 OFFCURVE",
"143 257 OFFCURVE",
"119 195 CURVE",
"125 194 LINE"
);
}
);
width = 592;
},
{
anchors = (
{
name = bottom;
position = "{284, 0}";
},
{
name = center;
position = "{281, 340}";
},
{
name = ogonek;
position = "{576, 0}";
},
{
name = top;
position = "{304, 680}";
},
{
name = topleft;
position = "{110, 680}";
}
);
hints = (
{
horizontal = 1;
place = "{33, 21}";
target = up;
type = BottomGhost;
},
{
horizontal = 1;
place = "{723, -20}";
target = down;
type = TopGhost;
}
);
layerId = "07AD8005-5D45-4A63-B3CF-4E1D9502446D";
paths = (
{
closed = 1;
nodes = (
"318 692 LINE",
"314 692 LINE",
"314 686 OFFCURVE",
"312 683 OFFCURVE",
"308 681 CURVE",
"108 126 LINE SMOOTH",
"66 9 OFFCURVE",
"54 7 OFFCURVE",
"27 7 CURVE SMOOTH",
"22 7 LINE",
"22 0 LINE",
"130 0 LINE",
"130 7 LINE",
"121 7 LINE SMOOTH",
"86 7 OFFCURVE",
"76 9 OFFCURVE",
"117 124 CURVE SMOOTH",
"142 193 LINE",
"166 248 OFFCURVE",
"204 260 OFFCURVE",
"232 260 CURVE SMOOTH",
"282 260 OFFCURVE",
"314 222 OFFCURVE",
"357 222 CURVE SMOOTH",
"389 222 OFFCURVE",
"417 242 OFFCURVE",
"436 279 CURVE",
"494 116 LINE SMOOTH",
"524 32 OFFCURVE",
"526 7 OFFCURVE",
"492 7 CURVE SMOOTH",
"476 7 LINE",
"476 0 LINE",
"604 0 LINE",
"604 7 LINE",
"569 7 OFFCURVE",
"562 13 OFFCURVE",
"527 110 CURVE SMOOTH"
);
},
{
closed = 1;
nodes = (
"317 233 OFFCURVE",
"288 271 OFFCURVE",
"237 271 CURVE SMOOTH",
"210 271 OFFCURVE",
"178 260 OFFCURVE",
"154 227 CURVE",
"305 648 LINE",
"434 286 LINE",
"418 254 OFFCURVE",
"396 233 OFFCURVE",
"362 233 CURVE SMOOTH"
);
}
);
width = 626;
}
);
leftKerningGroup = A;
note = A.ss15;
rightKerningGroup = A;
rightMetricsKey = "=|";
},
{
color = 4;
glyphname = E.ss01;
lastChange = "2021-06-22 08:27:48 +0000";
layers = (
{
anchors = (
{
name = bottom;
position = "{270, 0}";
},
{
name = ogonek;
position = "{485, 10}";
},
{
name = top;
position = "{270, 680}";
},
{
name = topleft;
position = "{20, 680}";
}
);
background = {
components = (
{
name = E;
}
);
};
hints = (
{
horizontal = 1;
place = "{-15, 21}";
type = Stem;
},
{
horizontal = 1;
place = "{325, 20}";
type = Stem;
},
{
horizontal = 1;
place = "{637, 13}";
type = Stem;
},
{
place = "{71, 181}";
type = Stem;
}
);
layerId = "1E8F490F-00FE-4BD6-A503-902369003CC3";
paths = (
{
closed = 1;
nodes = (
"509 0 LINE",
"509 179 LINE",
"493 179 LINE",
"493 71 OFFCURVE",
"459 36 OFFCURVE",
"375 36 CURVE SMOOTH",
"323 36 LINE SMOOTH",
"291 36 OFFCURVE",
"278 50 OFFCURVE",
"278 86 CURVE SMOOTH",
"278 319 LINE",
"288 327 OFFCURVE",
"302 331 OFFCURVE",
"317 331 CURVE SMOOTH",
"348 331 OFFCURVE",
"371 311 OFFCURVE",
"397 311 CURVE SMOOTH",
"424 311 OFFCURVE",
"453 325 OFFCURVE",
"472 385 CURVE",
"460 390 LINE",
"450 371 OFFCURVE",
"440 366 OFFCURVE",
"421 366 CURVE SMOOTH",
"384 366 OFFCURVE",
"362 386 OFFCURVE",
"337 386 CURVE SMOOTH",
"315 386 OFFCURVE",
"295 374 OFFCURVE",
"278 339 CURVE",
"278 645 LINE",
"361 645 LINE SMOOTH",
"460 645 OFFCURVE",
"474 599 OFFCURVE",
"474 521 CURVE",
"490 521 LINE",
"490 680 LINE",
"11 680 LINE",
"11 664 LINE",
"67 664 OFFCURVE",
"82 646 OFFCURVE",
"82 594 CURVE SMOOTH",
"82 86 LINE SMOOTH",
"82 34 OFFCURVE",
"67 16 OFFCURVE",
"11 16 CURVE",
"11 0 LINE"
);
}
);
width = 539;
},
{
anchors = (
{
name = bottom;
position = "{247, 0}";
},
{
name = ogonek;
position = "{431, 10}";
},
{
name = top;
position = "{247, 680}";
},
{
name = topleft;
position = "{37, 680}";
}
);
background = {
paths = (
{
closed = 1;
nodes = (
"416 0 LINE",
"416 117 LINE",
"406 117 LINE",
"406 9 OFFCURVE",
"380 10 OFFCURVE",
"306 10 CURVE SMOOTH",
"167 10 LINE SMOOTH",
"127 10 OFFCURVE",
"114 14 OFFCURVE",
"114 68 CURVE SMOOTH",
"114 354 LINE",
"266 354 LINE SMOOTH",
"324 354 OFFCURVE",
"336 350 OFFCURVE",
"336 298 CURVE",
"345 298 LINE",
"345 419 LINE",
"336 419 LINE",
"336 372 OFFCURVE",
"325 364 OFFCURVE",
"265 364 CURVE SMOOTH",
"114 364 LINE",
"114 671 LINE",
"292 671 LINE SMOOTH",
"381 671 OFFCURVE",
"391 658 OFFCURVE",
"391 585 CURVE",
"401 585 LINE",
"401 680 LINE",
"34 680 LINE",
"34 673 LINE",
"80 673 OFFCURVE",
"85 666 OFFCURVE",
"85 614 CURVE SMOOTH",
"85 66 LINE SMOOTH",
"85 14 OFFCURVE",
"80 7 OFFCURVE",
"34 7 CURVE",
"34 0 LINE"
);
}
);
};
hints = (
{
horizontal = 1;
place = "{33, 21}";
target = up;
type = BottomGhost;
},
{
horizontal = 1;
place = "{713, -20}";
target = down;
type = TopGhost;
},
{
place = "{129, 62}";
type = Stem;
}
);
layerId = "07AD8005-5D45-4A63-B3CF-4E1D9502446D";
paths = (
{
closed = 1;
nodes = (
"433 0 LINE",
"433 117 LINE",
"423 117 LINE",
"423 9 OFFCURVE",
"397 10 OFFCURVE",
"323 10 CURVE SMOOTH",
"184 10 LINE SMOOTH",
"144 10 OFFCURVE",
"131 14 OFFCURVE",
"131 68 CURVE SMOOTH",
"131 350 LINE",
"152 369 OFFCURVE",
"166 373 OFFCURVE",
"186 373 CURVE SMOOTH",
"224 373 OFFCURVE",
"255 333 OFFCURVE",
"295 333 CURVE SMOOTH",
"327 333 OFFCURVE",
"359 356 OFFCURVE",
"378 413 CURVE",
"372 415 LINE",
"354 361 OFFCURVE",
"326 346 OFFCURVE",
"298 346 CURVE SMOOTH",
"259 346 OFFCURVE",
"230 385 OFFCURVE",
"191 385 CURVE SMOOTH",
"170 385 OFFCURVE",
"154 379 OFFCURVE",
"131 357 CURVE",
"131 671 LINE",
"309 671 LINE SMOOTH",
"398 671 OFFCURVE",
"408 658 OFFCURVE",
"408 585 CURVE",
"418 585 LINE",
"418 680 LINE",
"51 680 LINE",
"51 673 LINE",
"97 673 OFFCURVE",
"102 666 OFFCURVE",
"102 614 CURVE SMOOTH",
"102 66 LINE SMOOTH",
"102 14 OFFCURVE",
"97 7 OFFCURVE",
"51 7 CURVE",
"51 0 LINE"
);
}
);
width = 494;
},
{
anchors = (
{
name = bottom;
position = "{259, 0}";
},
{
name = ogonek;
position = "{462, 10}";
},
{
name = top;
position = "{259, 680}";
},
{
name = topleft;
position = "{25, 680}";
}
);
background = {
paths = (
{
closed = 1;
nodes = (
"323 658 LINE SMOOTH",
"422 658 OFFCURVE",
"434 619 OFFCURVE",
"434 546 CURVE",
"450 546 LINE",
"450 680 LINE",
"26 680 LINE",
"26 668 LINE",
"82 668 OFFCURVE",
"97 658 OFFCURVE",
"97 606 CURVE SMOOTH",
"97 74 LINE SMOOTH",
"97 22 OFFCURVE",
"82 12 OFFCURVE",
"26 12 CURVE",
"26 0 LINE",
"464 0 LINE",
"464 159 LINE",
"448 159 LINE",
"448 51 OFFCURVE",
"413 22 OFFCURVE",
"319 22 CURVE SMOOTH",
"233 22 LINE SMOOTH",
"197 22 OFFCURVE",
"182 40 OFFCURVE",
"182 77 CURVE SMOOTH",
"182 658 LINE"
);
}
);
};
hints = (
{
horizontal = 1;
place = "{10, 32}";
type = Stem;
},
{
horizontal = 1;
place = "{357, 31}";
type = Stem;
},
{
horizontal = 1;
place = "{690, -20}";
target = down;
type = TopGhost;
},
{
place = "{116, 95}";
type = Stem;
}
);
layerId = "3FA0091B-41E8-4679-8383-4E36DA6A759B";
paths = (
{
closed = 1;
nodes = (
"469 0 LINE",
"469 159 LINE",
"453 159 LINE",
"453 51 OFFCURVE",
"418 22 OFFCURVE",
"324 22 CURVE SMOOTH",
"238 22 LINE SMOOTH",
"202 22 OFFCURVE",
"187 40 OFFCURVE",
"187 77 CURVE SMOOTH",
"187 337 LINE",
"208 355 OFFCURVE",
"222 360 OFFCURVE",
"238 360 CURVE SMOOTH",
"274 360 OFFCURVE",
"304 326 OFFCURVE",
"345 326 CURVE SMOOTH",
"379 326 OFFCURVE",
"412 353 OFFCURVE",
"424 411 CURVE",
"416 414 LINE",
"398 373 OFFCURVE",
"379 358 OFFCURVE",
"354 358 CURVE SMOOTH",
"316 358 OFFCURVE",
"291 390 OFFCURVE",
"254 390 CURVE SMOOTH",
"232 390 OFFCURVE",
"210 379 OFFCURVE",
"187 350 CURVE",
"187 658 LINE",
"328 658 LINE SMOOTH",
"427 658 OFFCURVE",
"439 619 OFFCURVE",
"439 546 CURVE",
"455 546 LINE",
"455 680 LINE",
"31 680 LINE",
"31 668 LINE",
"87 668 OFFCURVE",
"102 658 OFFCURVE",
"102 606 CURVE SMOOTH",
"102 74 LINE SMOOTH",
"102 22 OFFCURVE",
"87 12 OFFCURVE",
"31 12 CURVE",
"31 0 LINE"
);
}
);
width = 518;
},
{
anchors = (
{
name = bottom;
position = "{232, 0}";
},
{
name = ogonek;
position = "{418, 10}";
},
{
name = top;
position = "{232, 680}";
},
{
name = topleft;
position = "{20, 680}";
}
);
associatedMasterId = "07AD8005-5D45-4A63-B3CF-4E1D9502446D";
background = {
paths = (
{
closed = 1;
nodes = (
"416 0 LINE",
"416 117 LINE",
"406 117 LINE",
"406 9 OFFCURVE",
"380 10 OFFCURVE",
"306 10 CURVE SMOOTH",
"167 10 LINE SMOOTH",
"127 10 OFFCURVE",
"114 14 OFFCURVE",
"114 68 CURVE SMOOTH",
"114 354 LINE",
"266 354 LINE SMOOTH",
"324 354 OFFCURVE",
"336 350 OFFCURVE",
"336 298 CURVE",
"345 298 LINE",
"345 419 LINE",
"336 419 LINE",
"336 372 OFFCURVE",
"325 364 OFFCURVE",
"265 364 CURVE SMOOTH",
"114 364 LINE",
"114 671 LINE",
"292 671 LINE SMOOTH",
"381 671 OFFCURVE",
"391 658 OFFCURVE",
"391 585 CURVE",
"401 585 LINE",
"401 680 LINE",
"34 680 LINE",
"34 673 LINE",
"80 673 OFFCURVE",
"85 666 OFFCURVE",
"85 614 CURVE SMOOTH",
"85 66 LINE SMOOTH",
"85 14 OFFCURVE",
"80 7 OFFCURVE",
"34 7 CURVE",
"34 0 LINE"
);
}
);
};
hints = (
{
horizontal = 1;
place = "{16, 21}";
target = up;
type = BottomGhost;
},
{
horizontal = 1;
place = "{696, -20}";
target = down;
type = TopGhost;
},
{
place = "{112, 45}";
type = Stem;
}
);
layerId = "C85462A2-4920-4D65-99B6-C3BC8CDA9C15";
name = "May 31 21, 13:09";
paths = (
{
closed = 1;
nodes = (
"292 671 LINE SMOOTH",
"381 671 OFFCURVE",
"391 658 OFFCURVE",
"391 585 CURVE",
"401 585 LINE",
"401 680 LINE",
"34 680 LINE",
"34 673 LINE",
"80 673 OFFCURVE",
"85 666 OFFCURVE",
"85 614 CURVE SMOOTH",
"85 66 LINE SMOOTH",
"85 14 OFFCURVE",
"80 7 OFFCURVE",
"34 7 CURVE",
"34 0 LINE",
"416 0 LINE",
"416 117 LINE",
"406 117 LINE",
"406 9 OFFCURVE",
"380 10 OFFCURVE",
"306 10 CURVE SMOOTH",
"167 10 LINE SMOOTH",
"127 10 OFFCURVE",
"114 14 OFFCURVE",
"114 68 CURVE SMOOTH",
"114 671 LINE"
);
},
{
closed = 1;
nodes = (
"110 326 LINE",
"127 358 OFFCURVE",
"148 371 OFFCURVE",
"172 371 CURVE SMOOTH",
"214 371 OFFCURVE",
"247 336 OFFCURVE",
"288 336 CURVE SMOOTH",
"316 336 OFFCURVE",
"343 355 OFFCURVE",
"363 410 CURVE",
"358 412 LINE",
"343 375 OFFCURVE",
"324 354 OFFCURVE",
"296 354 CURVE SMOOTH",
"252 354 OFFCURVE",
"222 389 OFFCURVE",
"181 389 CURVE SMOOTH",
"153 389 OFFCURVE",
"123 372 OFFCURVE",
"105 328 CURVE"
);
}
);
width = 460;
},
{
anchors = (
{
name = bottom;
position = "{252, 0}";
},
{
name = ogonek;
position = "{454, 10}";
},
{
name = top;
position = "{252, 680}";
},
{
name = topleft;
position = "{20, 680}";
}
);
associatedMasterId = "3FA0091B-41E8-4679-8383-4E36DA6A759B";
background = {
paths = (
{
closed = 1;
nodes = (
"323 658 LINE SMOOTH",
"422 658 OFFCURVE",
"434 619 OFFCURVE",
"434 546 CURVE",
"450 546 LINE",
"450 680 LINE",
"26 680 LINE",
"26 668 LINE",
"82 668 OFFCURVE",
"97 658 OFFCURVE",
"97 606 CURVE SMOOTH",
"97 74 LINE SMOOTH",
"97 22 OFFCURVE",
"82 12 OFFCURVE",
"26 12 CURVE",
"26 0 LINE",
"464 0 LINE",
"464 159 LINE",
"448 159 LINE",
"448 51 OFFCURVE",
"413 22 OFFCURVE",
"319 22 CURVE SMOOTH",
"233 22 LINE SMOOTH",
"197 22 OFFCURVE",
"182 40 OFFCURVE",
"182 77 CURVE SMOOTH",
"182 658 LINE"
);
}
);
};
hints = (
{
horizontal = 1;
place = "{5, 27}";
type = Stem;
},
{
horizontal = 1;
place = "{352, 26}";
type = Stem;
},
{
horizontal = 1;
place = "{685, -20}";
target = down;
type = TopGhost;
},
{
place = "{111, 90}";
type = Stem;
}
);
layerId = "7F94AEDF-358B-474C-8AF1-7AEB0DE89055";
name = "May 31 21, 13:25";
paths = (
{
closed = 1;
nodes = (
"323 658 LINE SMOOTH",
"422 658 OFFCURVE",
"434 619 OFFCURVE",
"434 546 CURVE",
"450 546 LINE",
"450 680 LINE",
"26 680 LINE",
"26 668 LINE",
"82 668 OFFCURVE",
"97 658 OFFCURVE",
"97 606 CURVE SMOOTH",
"97 74 LINE SMOOTH",
"97 22 OFFCURVE",
"82 12 OFFCURVE",
"26 12 CURVE",
"26 0 LINE",
"464 0 LINE",
"464 159 LINE",
"448 159 LINE",
"448 51 OFFCURVE",
"413 22 OFFCURVE",
"319 22 CURVE SMOOTH",
"233 22 LINE SMOOTH",
"197 22 OFFCURVE",
"182 40 OFFCURVE",
"182 77 CURVE SMOOTH",
"182 658 LINE"
);
},
{
closed = 1;
nodes = (
"176 319 LINE",
"189 339 OFFCURVE",
"211 347 OFFCURVE",
"237 347 CURVE SMOOTH",
"278 347 OFFCURVE",
"309 326 OFFCURVE",
"343 326 CURVE SMOOTH",
"374 326 OFFCURVE",
"403 343 OFFCURVE",
"426 408 CURVE",
"417 412 LINE",
"399 381 OFFCURVE",
"379 374 OFFCURVE",
"356 374 CURVE SMOOTH",
"317 374 OFFCURVE",
"289 395 OFFCURVE",
"251 395 CURVE SMOOTH",
"222 395 OFFCURVE",
"191 382 OFFCURVE",
"172 319 CURVE"
);
}
);
width = 508;
},
{
anchors = (
{
name = bottom;
position = "{267, 0}";
},
{
name = ogonek;
position = "{481, 10}";
},
{
name = top;
position = "{267, 680}";
},
{
name = topleft;
position = "{20, 680}";
}
);
associatedMasterId = "1E8F490F-00FE-4BD6-A503-902369003CC3";
background = {
components = (
{
name = E;
}
);
};
hints = (
{
horizontal = 1;
place = "{-15, 21}";
type = Stem;
},
{
horizontal = 1;
place = "{325, 20}";
type = Stem;
},
{
horizontal = 1;
place = "{637, 13}";
type = Stem;
},
{
place = "{71, 181}";
type = Stem;
}
);
layerId = "9B375C8F-AA7D-45DE-87BF-812D11C8F2EB";
name = "May 31 21, 13:43";
paths = (
{
closed = 1;
nodes = (
"361 645 LINE SMOOTH",
"460 645 OFFCURVE",
"474 599 OFFCURVE",
"474 521 CURVE",
"490 521 LINE",
"490 680 LINE",
"11 680 LINE",
"11 664 LINE",
"67 664 OFFCURVE",
"82 646 OFFCURVE",
"82 594 CURVE SMOOTH",
"82 86 LINE SMOOTH",
"82 34 OFFCURVE",
"67 16 OFFCURVE",
"11 16 CURVE",
"11 0 LINE",
"509 0 LINE",
"509 179 LINE",
"493 179 LINE",
"493 71 OFFCURVE",
"459 36 OFFCURVE",
"375 36 CURVE SMOOTH",
"323 36 LINE SMOOTH",
"291 36 OFFCURVE",
"278 50 OFFCURVE",
"278 86 CURVE SMOOTH",
"278 645 LINE"
);
},
{
closed = 1;
nodes = (
"273 318 LINE",
"285 328 OFFCURVE",
"299 337 OFFCURVE",
"317 337 CURVE SMOOTH",
"331 337 OFFCURVE",
"339 334 OFFCURVE",
"357 325 CURVE SMOOTH",
"375 316 OFFCURVE",
"391 308 OFFCURVE",
"406 308 CURVE SMOOTH",
"432 308 OFFCURVE",
"459 328 OFFCURVE",
"473 413 CURVE",
"461 417 LINE",
"449 383 OFFCURVE",
"436 370 OFFCURVE",
"416 370 CURVE SMOOTH",
"401 370 OFFCURVE",
"388 376 OFFCURVE",
"374 383 CURVE SMOOTH",
"358 391 OFFCURVE",
"346 397 OFFCURVE",
"332 397 CURVE SMOOTH",
"307 397 OFFCURVE",
"287 370 OFFCURVE",
"263 321 CURVE"
);
},
{
closed = 1;
nodes = (
"272 320 LINE",
"286 329 OFFCURVE",
"296 335 OFFCURVE",
"309 335 CURVE SMOOTH",
"322 335 OFFCURVE",
"331 330 OFFCURVE",
"346 320 CURVE SMOOTH",
"367 306 OFFCURVE",
"380 297 OFFCURVE",
"397 297 CURVE SMOOTH",
"431 297 OFFCURVE",
"453 329 OFFCURVE",
"465 415 CURVE",
"452 417 LINE",
"440 383 OFFCURVE",
"428 370 OFFCURVE",
"409 370 CURVE SMOOTH",
"394 370 OFFCURVE",
"383 377 OFFCURVE",
"369 384 CURVE SMOOTH",
"354 392 OFFCURVE",
"346 397 OFFCURVE",
"332 397 CURVE SMOOTH",
"308 397 OFFCURVE",
"285 370 OFFCURVE",
"265 324 CURVE"
);
}
);
width = 539;
}
);
leftKerningGroup = H;
leftMetricsKey = H;
note = E;
rightKerningGroup = E;
},
{
color = 4;
glyphname = F.ss01;
lastChange = "2021-06-22 08:27:48 +0000";
layers = (
{
anchors = (
{
name = bottomright;
position = "{278, 0}";
},
{
name = top;
position = "{260, 680}";
}
);
hints = (
{
horizontal = 1;
place = "{-15, 21}";
target = up;
type = BottomGhost;
},
{
horizontal = 1;
place = "{325, 20}";
type = Stem;
},
{
horizontal = 1;
place = "{637, 13}";
type = Stem;
},
{
place = "{71, 181}";
type = Stem;
}
);
layerId = "1E8F490F-00FE-4BD6-A503-902369003CC3";
paths = (
{
closed = 1;
nodes = (
"354 0 LINE",
"354 16 LINE",
"293 16 OFFCURVE",
"278 34 OFFCURVE",
"278 86 CURVE SMOOTH",
"278 309 LINE",
"288 317 OFFCURVE",
"302 321 OFFCURVE",
"317 321 CURVE SMOOTH",
"348 321 OFFCURVE",
"371 301 OFFCURVE",
"397 301 CURVE SMOOTH",
"424 301 OFFCURVE",
"453 315 OFFCURVE",
"472 375 CURVE",
"460 380 LINE",
"450 361 OFFCURVE",
"440 356 OFFCURVE",
"421 356 CURVE SMOOTH",
"384 356 OFFCURVE",
"362 376 OFFCURVE",
"337 376 CURVE SMOOTH",
"315 376 OFFCURVE",
"295 364 OFFCURVE",
"278 330 CURVE",
"278 646 LINE",
"355 646 LINE SMOOTH",
"452 646 OFFCURVE",
"468 598 OFFCURVE",
"468 526 CURVE",
"484 526 LINE",
"484 680 LINE",
"11 680 LINE",
"11 664 LINE",
"67 664 OFFCURVE",
"82 646 OFFCURVE",
"82 594 CURVE SMOOTH",
"82 86 LINE SMOOTH",
"82 34 OFFCURVE",
"67 16 OFFCURVE",
"11 16 CURVE",
"11 0 LINE"
);
}
);
width = 507;
},
{
anchors = (
{
name = bottomright;
position = "{131, 0}";
},
{
name = top;
position = "{239, 680}";
}
);
hints = (
{
horizontal = 1;
place = "{33, 21}";
target = up;
type = BottomGhost;
},
{
horizontal = 1;
place = "{713, -20}";
target = down;
type = TopGhost;
},
{
place = "{129, 62}";
type = Stem;
}
);
layerId = "07AD8005-5D45-4A63-B3CF-4E1D9502446D";
paths = (
{
closed = 1;
nodes = (
"188 0 LINE",
"188 7 LINE",
"137 7 OFFCURVE",
"131 14 OFFCURVE",
"131 66 CURVE SMOOTH",
"131 341 LINE",
"152 360 OFFCURVE",
"166 364 OFFCURVE",
"186 364 CURVE SMOOTH",
"224 364 OFFCURVE",
"255 324 OFFCURVE",
"295 324 CURVE SMOOTH",
"327 324 OFFCURVE",
"359 347 OFFCURVE",
"378 404 CURVE",
"372 406 LINE",
"354 352 OFFCURVE",
"326 337 OFFCURVE",
"298 337 CURVE SMOOTH",
"259 337 OFFCURVE",
"230 376 OFFCURVE",
"191 376 CURVE SMOOTH",
"170 376 OFFCURVE",
"154 370 OFFCURVE",
"131 348 CURVE",
"131 671 LINE",
"289 671 LINE SMOOTH",
"378 671 OFFCURVE",
"388 658 OFFCURVE",
"388 585 CURVE",
"398 585 LINE",
"398 680 LINE",
"51 680 LINE",
"51 673 LINE",
"97 673 OFFCURVE",
"102 666 OFFCURVE",
"102 614 CURVE SMOOTH",
"102 66 LINE SMOOTH",
"102 14 OFFCURVE",
"97 7 OFFCURVE",
"51 7 CURVE",
"51 0 LINE"
);
}
);
width = 452;
},
{
anchors = (
{
name = bottomright;
position = "{187, 0}";
},
{
name = top;
position = "{269, 680}";
}
);
guideLines = (
{
angle = 180;
position = "{273, 368}";
}
);
hints = (
{
horizontal = 1;
place = "{10, 21}";
target = up;
type = BottomGhost;
},
{
horizontal = 1;
place = "{357, 31}";
type = Stem;
},
{
horizontal = 1;
place = "{690, -20}";
target = down;
type = TopGhost;
},
{
place = "{116, 95}";
type = Stem;
}
);
layerId = "3FA0091B-41E8-4679-8383-4E36DA6A759B";
paths = (
{
closed = 1;
nodes = (
"266 0 LINE",
"266 12 LINE",
"201 12 OFFCURVE",
"187 22 OFFCURVE",
"187 74 CURVE SMOOTH",
"187 331 LINE",
"208 349 OFFCURVE",
"222 354 OFFCURVE",
"238 354 CURVE SMOOTH",
"274 354 OFFCURVE",
"304 321 OFFCURVE",
"345 321 CURVE SMOOTH",
"379 321 OFFCURVE",
"412 347 OFFCURVE",
"424 405 CURVE",
"416 408 LINE",
"398 367 OFFCURVE",
"379 352 OFFCURVE",
"354 352 CURVE SMOOTH",
"316 352 OFFCURVE",
"291 384 OFFCURVE",
"254 384 CURVE SMOOTH",
"232 384 OFFCURVE",
"210 373 OFFCURVE",
"187 344 CURVE",
"187 664 LINE",
"315 664 LINE SMOOTH",
"418 664 OFFCURVE",
"438 619 OFFCURVE",
"438 546 CURVE",
"454 546 LINE",
"454 680 LINE",
"31 680 LINE",
"31 668 LINE",
"87 668 OFFCURVE",
"102 658 OFFCURVE",
"102 606 CURVE SMOOTH",
"102 74 LINE SMOOTH",
"102 22 OFFCURVE",
"87 12 OFFCURVE",
"31 12 CURVE",
"31 0 LINE"
);
}
);
width = 498;
},
{
anchors = (
{
name = bottomright;
position = "{278, 0}";
},
{
name = top;
position = "{260, 680}";
}
);
associatedMasterId = "1E8F490F-00FE-4BD6-A503-902369003CC3";
hints = (
{
horizontal = 1;
place = "{-15, 21}";
target = up;
type = BottomGhost;
},
{
horizontal = 1;
place = "{325, 20}";
type = Stem;
},
{
horizontal = 1;
place = "{637, 13}";
type = Stem;
},
{
place = "{71, 181}";
type = Stem;
}
);
layerId = "F5264580-8707-4C6E-AF8D-C03999BD6EE0";
name = "May 31 21, 11:58";
paths = (
{
closed = 1;
nodes = (
"355 646 LINE SMOOTH",
"452 646 OFFCURVE",
"468 598 OFFCURVE",
"468 526 CURVE",
"484 526 LINE",
"484 680 LINE",
"11 680 LINE",
"11 664 LINE",
"67 664 OFFCURVE",
"82 646 OFFCURVE",
"82 594 CURVE SMOOTH",
"82 86 LINE SMOOTH",
"82 34 OFFCURVE",
"67 16 OFFCURVE",
"11 16 CURVE",
"11 0 LINE",
"354 0 LINE",
"354 16 LINE",
"293 16 OFFCURVE",
"278 34 OFFCURVE",
"278 86 CURVE SMOOTH",
"278 646 LINE"
);
},
{
closed = 1;
nodes = (
"273 285 LINE",
"283 297 OFFCURVE",
"294 307 OFFCURVE",
"315 307 CURVE SMOOTH",
"351 307 OFFCURVE",
"380 278 OFFCURVE",
"410 278 CURVE SMOOTH",
"440 278 OFFCURVE",
"471 311 OFFCURVE",
"486 380 CURVE",
"474 386 LINE",
"462 369 OFFCURVE",
"446 359 OFFCURVE",
"425 359 CURVE SMOOTH",
"395 359 OFFCURVE",
"372 379 OFFCURVE",
"345 379 CURVE SMOOTH",
"313 379 OFFCURVE",
"287 351 OFFCURVE",
"272 293 CURVE"
);
},
{
closed = 1;
nodes = (
"427 285 OFFCURVE",
"443 306 OFFCURVE",
"469 364 CURVE",
"462 375 LINE",
"450 364 OFFCURVE",
"438 356 OFFCURVE",
"418 356 CURVE SMOOTH",
"385 356 OFFCURVE",
"357 378 OFFCURVE",
"333 378 CURVE SMOOTH",
"308 378 OFFCURVE",
"288 352 OFFCURVE",
"264 303 CURVE",
"276 291 LINE",
"286 300 OFFCURVE",
"299 309 OFFCURVE",
"316 309 CURVE SMOOTH",
"344 309 OFFCURVE",
"372 285 OFFCURVE",
"401 285 CURVE SMOOTH"
);
}
);
width = 507;
}
);
leftKerningGroup = H;
leftMetricsKey = H;
note = F;
rightKerningGroup = F;
},
{
color = 4;
glyphname = H.ss01;
lastChange = "2021-06-22 08:27:48 +0000";
layers = (
{
anchors = (
{
name = bottom;
position = "{366, 0}";
},
{
name = center;
position = "{366, 340}";
},
{
name = top;
position = "{366, 680}";
},
{
name = topleft;
position = "{20, 680}";
}
);
background = {
paths = (
{
closed = 1;
nodes = (
"462 340 LINE",
"462 375 LINE",
"270 375 LINE",
"270 340 LINE"
);
},
{
closed = 1;
nodes = (
"276 313 LINE",
"286 323 OFFCURVE",
"299 332 OFFCURVE",
"317 332 CURVE SMOOTH",
"345 332 OFFCURVE",
"381 308 OFFCURVE",
"410 308 CURVE SMOOTH",
"436 308 OFFCURVE",
"460 324 OFFCURVE",
"474 399 CURVE",
"464 403 LINE",
"452 379 OFFCURVE",
"440 370 OFFCURVE",
"420 370 CURVE SMOOTH",
"387 370 OFFCURVE",
"358 392 OFFCURVE",
"333 392 CURVE SMOOTH",
"308 392 OFFCURVE",
"290 365 OFFCURVE",
"266 316 CURVE"
);
}
);
};
hints = (
{
horizontal = 1;
place = "{-15, 21}";
target = up;
type = BottomGhost;
},
{
horizontal = 1;
place = "{325, 20}";
type = Stem;
},
{
horizontal = 1;
place = "{665, -20}";
target = down;
type = TopGhost;
},
{
place = "{71, 180}";
type = Stem;
},
{
place = "{410, 180}";
type = Stem;
}
);
layerId = "1E8F490F-00FE-4BD6-A503-902369003CC3";
paths = (
{
closed = 1;
nodes = (
"720 680 LINE",
"393 680 LINE",
"393 664 LINE",
"449 664 OFFCURVE",
"453 646 OFFCURVE",
"453 594 CURVE SMOOTH",
"453 375 LINE",
"445 369 OFFCURVE",
"436 366 OFFCURVE",
"421 366 CURVE SMOOTH",
"384 366 OFFCURVE",
"362 386 OFFCURVE",
"337 386 CURVE SMOOTH",
"315 386 OFFCURVE",
"295 374 OFFCURVE",
"278 340 CURVE",
"278 594 LINE SMOOTH",
"278 646 OFFCURVE",
"282 664 OFFCURVE",
"338 664 CURVE",
"338 680 LINE",
"11 680 LINE",
"11 664 LINE",
"67 664 OFFCURVE",
"82 646 OFFCURVE",
"82 594 CURVE SMOOTH",
"82 86 LINE SMOOTH",
"82 34 OFFCURVE",
"67 16 OFFCURVE",
"11 16 CURVE",
"11 0 LINE",
"338 0 LINE",
"338 16 LINE",
"282 16 OFFCURVE",
"278 34 OFFCURVE",
"278 86 CURVE SMOOTH",
"278 319 LINE",
"288 327 OFFCURVE",
"302 331 OFFCURVE",
"317 331 CURVE SMOOTH",
"348 331 OFFCURVE",
"371 311 OFFCURVE",
"397 311 CURVE SMOOTH",
"418 311 OFFCURVE",
"437 321 OFFCURVE",
"453 350 CURVE",
"453 86 LINE SMOOTH",
"453 34 OFFCURVE",
"449 16 OFFCURVE",
"393 16 CURVE",
"393 0 LINE",
"720 0 LINE",
"720 16 LINE",
"664 16 OFFCURVE",
"649 34 OFFCURVE",
"649 86 CURVE SMOOTH",
"649 594 LINE SMOOTH",
"649 646 OFFCURVE",
"664 664 OFFCURVE",
"720 664 CURVE"
);
}
);
width = 731;
},
{
anchors = (
{
name = bottom;
position = "{321, 0}";
},
{
name = center;
position = "{321, 340}";
},
{
name = top;
position = "{321, 680}";
},
{
name = topleft;
position = "{37, 680}";
}
);
hints = (
{
horizontal = 1;
place = "{33, 21}";
target = up;
type = BottomGhost;
},
{
horizontal = 1;
place = "{713, -20}";
target = down;
type = TopGhost;
},
{
place = "{129, 62}";
type = Stem;
},
{
place = "{538, 62}";
type = Stem;
}
);
layerId = "07AD8005-5D45-4A63-B3CF-4E1D9502446D";
paths = (
{
closed = 1;
nodes = (
"591 680 LINE",
"460 680 LINE",
"460 673 LINE",
"506 673 OFFCURVE",
"511 666 OFFCURVE",
"511 614 CURVE SMOOTH",
"511 404 LINE",
"487 371 OFFCURVE",
"459 350 OFFCURVE",
"416 350 CURVE SMOOTH",
"349 350 OFFCURVE",
"294 395 OFFCURVE",
"232 395 CURVE SMOOTH",
"192 395 OFFCURVE",
"159 381 OFFCURVE",
"131 346 CURVE",
"131 614 LINE SMOOTH",
"131 666 OFFCURVE",
"136 673 OFFCURVE",
"182 673 CURVE",
"182 680 LINE",
"51 680 LINE",
"51 673 LINE",
"97 673 OFFCURVE",
"102 666 OFFCURVE",
"102 614 CURVE SMOOTH",
"102 66 LINE SMOOTH",
"102 14 OFFCURVE",
"97 7 OFFCURVE",
"51 7 CURVE",
"51 0 LINE",
"182 0 LINE",
"182 7 LINE",
"136 7 OFFCURVE",
"131 14 OFFCURVE",
"131 66 CURVE SMOOTH",
"131 338 LINE",
"157 370 OFFCURVE",
"182 384 OFFCURVE",
"219 384 CURVE SMOOTH",
"285 384 OFFCURVE",
"342 339 OFFCURVE",
"406 339 CURVE SMOOTH",
"445 339 OFFCURVE",
"481 353 OFFCURVE",
"511 394 CURVE",
"511 66 LINE SMOOTH",
"511 14 OFFCURVE",
"506 7 OFFCURVE",
"460 7 CURVE",
"460 0 LINE",
"591 0 LINE",
"591 7 LINE",
"545 7 OFFCURVE",
"540 14 OFFCURVE",
"540 66 CURVE SMOOTH",
"540 614 LINE SMOOTH",
"540 666 OFFCURVE",
"545 673 OFFCURVE",
"591 673 CURVE"
);
}
);
width = 642;
},
{
anchors = (
{
name = bottom;
position = "{349, 0}";
},
{
name = center;
position = "{349, 340}";
},
{
name = top;
position = "{349, 680}";
},
{
name = topleft;
position = "{25, 680}";
}
);
background = {
components = (
{
name = H;
}
);
};
hints = (
{
horizontal = 1;
place = "{10, 21}";
target = up;
type = BottomGhost;
},
{
horizontal = 1;
place = "{357, 32}";
type = Stem;
},
{
horizontal = 1;
place = "{690, -20}";
target = down;
type = TopGhost;
},
{
place = "{116, 95}";
type = Stem;
},
{
place = "{525, 95}";
type = Stem;
}
);
layerId = "3FA0091B-41E8-4679-8383-4E36DA6A759B";
paths = (
{
closed = 1;
nodes = (
"666 680 LINE",
"439 680 LINE",
"439 668 LINE",
"495 668 OFFCURVE",
"510 658 OFFCURVE",
"510 606 CURVE SMOOTH",
"510 394 LINE",
"483 359 OFFCURVE",
"460 344 OFFCURVE",
"429 344 CURVE SMOOTH",
"376 344 OFFCURVE",
"336 387 OFFCURVE",
"277 387 CURVE SMOOTH",
"249 387 OFFCURVE",
"213 374 OFFCURVE",
"187 329 CURVE",
"187 606 LINE SMOOTH",
"187 658 OFFCURVE",
"202 668 OFFCURVE",
"258 668 CURVE",
"258 680 LINE",
"31 680 LINE",
"31 668 LINE",
"87 668 OFFCURVE",
"102 658 OFFCURVE",
"102 606 CURVE SMOOTH",
"102 74 LINE SMOOTH",
"102 22 OFFCURVE",
"87 12 OFFCURVE",
"31 12 CURVE",
"31 0 LINE",
"258 0 LINE",
"258 12 LINE",
"202 12 OFFCURVE",
"187 22 OFFCURVE",
"187 74 CURVE SMOOTH",
"187 311 LINE",
"213 345 OFFCURVE",
"235 361 OFFCURVE",
"266 361 CURVE SMOOTH",
"318 361 OFFCURVE",
"360 318 OFFCURVE",
"420 318 CURVE SMOOTH",
"448 318 OFFCURVE",
"485 331 OFFCURVE",
"510 380 CURVE",
"510 74 LINE SMOOTH",
"510 22 OFFCURVE",
"495 12 OFFCURVE",
"439 12 CURVE",
"439 0 LINE",
"666 0 LINE",
"666 12 LINE",
"610 12 OFFCURVE",
"595 22 OFFCURVE",
"595 74 CURVE SMOOTH",
"595 606 LINE SMOOTH",
"595 658 OFFCURVE",
"610 668 OFFCURVE",
"666 668 CURVE"
);
}
);
width = 697;
},
{
anchors = (
{
name = bottom;
position = "{304, 0}";
},
{
name = center;
position = "{304, 340}";
},
{
name = top;
position = "{304, 680}";
},
{
name = topleft;
position = "{20, 680}";
}
);
associatedMasterId = "07AD8005-5D45-4A63-B3CF-4E1D9502446D";
components = (
{
name = Serif;
transform = "{1, 0, 0, 1, -7, 0}";
},
{
name = Serif;
transform = "{1, 0, 0, -1, -7, 680}";
},
{
name = Serif;
transform = "{-1, 0, 0, 1, 615, 0}";
},
{
name = Serif;
transform = "{-1, 0, 0, -1, 615, 680}";
}
);
hints = (
{
horizontal = 1;
place = "{16, 21}";
target = up;
type = BottomGhost;
},
{
horizontal = 1;
place = "{696, -20}";
target = down;
type = TopGhost;
},
{
place = "{112, 45}";
type = Stem;
},
{
place = "{521, 45}";
type = Stem;
}
);
layerId = "B638F39A-A2CD-4001-8BAA-20F6F441E88B";
name = "May 31 21, 10:50";
paths = (
{
closed = 1;
nodes = (
"523 66 LINE",
"523 614 LINE",
"494 614 LINE",
"494 66 LINE"
);
},
{
closed = 1;
nodes = (
"114 66 LINE",
"114 614 LINE",
"85 614 LINE",
"85 66 LINE"
);
},
{
closed = 1;
nodes = (
"338 330 OFFCURVE",
"290 398 OFFCURVE",
"227 398 CURVE SMOOTH",
"190 398 OFFCURVE",
"148 374 OFFCURVE",
"107 297 CURVE",
"111 294 LINE",
"143 355 OFFCURVE",
"181 383 OFFCURVE",
"214 383 CURVE SMOOTH",
"270 383 OFFCURVE",
"322 314 OFFCURVE",
"388 314 CURVE SMOOTH",
"427 314 OFFCURVE",
"465 338 OFFCURVE",
"506 415 CURVE",
"502 418 LINE",
"467 357 OFFCURVE",
"438 330 OFFCURVE",
"400 330 CURVE SMOOTH"
);
},
{
closed = 1;
nodes = (
"71 571 LINE",
"76 604 OFFCURVE",
"99 619 OFFCURVE",
"125 619 CURVE SMOOTH",
"171 619 OFFCURVE",
"219 572 OFFCURVE",
"270 572 CURVE SMOOTH",
"302 572 OFFCURVE",
"336 595 OFFCURVE",
"345 650 CURVE",
"337 650 LINE",
"329 612 OFFCURVE",
"306 594 OFFCURVE",
"279 594 CURVE SMOOTH",
"232 594 OFFCURVE",
"182 639 OFFCURVE",
"136 639 CURVE SMOOTH",
"102 639 OFFCURVE",
"68 615 OFFCURVE",
"63 571 CURVE"
);
}
);
width = 608;
}
);
leftKerningGroup = H;
note = H;
rightKerningGroup = H;
rightMetricsKey = "=|";
},
{
glyphname = Aring.ss02;
lastChange = "2021-06-22 08:27:48 +0000";
layers = (
{
anchors = (
{
name = bottom;
position = "{653, 0}";
},
{
name = center;
position = "{650, 340}";
},
{
name = ogonek;
position = "{965, 0}";
},
{
name = top;
position = "{693, 680}";
},
{
name = topleft;
position = "{499, 680}";
}
);
hints = (
{
horizontal = 1;
place = "{181, 17}";
type = Stem;
},
{
horizontal = 1;
place = "{644, 25}";
type = Stem;
},
{
horizontal = 1;
place = "{794, 25}";
type = Stem;
},
{
place = "{13, 27}";
type = Stem;
},
{
place = "{162, 26}";
type = Stem;
},
{
horizontal = 1;
place = "{-15, 213}";
type = Stem;
},
{
horizontal = 1;
place = "{675, -20}";
target = down;
type = TopGhost;
},
{
horizontal = 1;
place = "{-15, 213}";
type = Stem;
},
{
horizontal = 1;
place = "{675, -20}";
target = down;
type = TopGhost;
},
{
horizontal = 1;
place = "{181, 17}";
type = Stem;
},
{
horizontal = 1;
place = "{-15, 213}";
type = Stem;
},
{
horizontal = 1;
place = "{675, -20}";
target = down;
type = TopGhost;
},
{
horizontal = 1;
place = "{181, 17}";
type = Stem;
}
);
layerId = "1E8F490F-00FE-4BD6-A503-902369003CC3";
paths = (
{
closed = 1;
nodes = (
"677 196 LINE",
"671 228 LINE",
"499 228 LINE",
"490 196 LINE"
);
},
{
closed = 1;
nodes = (
"603 524 LINE",
"588 524 LINE",
"683 127 LINE SMOOTH",
"704 39 OFFCURVE",
"696 16 OFFCURVE",
"667 16 CURVE SMOOTH",
"662 16 LINE",
"662 0 LINE",
"977 0 LINE",
"977 16 LINE",
"933 16 OFFCURVE",
"922 35 OFFCURVE",
"911 77 CURVE SMOOTH",
"742 702 LINE",
"723 702 LINE",
"700 626 OFFCURVE",
"648 591 OFFCURVE",
"594 577 CURVE",
"465 185 LINE",
"490 163 LINE"
);
},
{
closed = 1;
nodes = (
"185 0 LINE",
"185 16 LINE",
"174 16 LINE SMOOTH",
"130 16 OFFCURVE",
"113 53 OFFCURVE",
"141 143 CURVE SMOOTH",
"260 524 LINE",
"245 524 LINE",
"340 127 LINE SMOOTH",
"361 39 OFFCURVE",
"353 16 OFFCURVE",
"304 16 CURVE SMOOTH",
"293 16 LINE",
"293 0 LINE",
"618 0 LINE",
"618 16 LINE",
"590 16 OFFCURVE",
"579 35 OFFCURVE",
"568 77 CURVE SMOOTH",
"399 702 LINE",
"380 702 LINE",
"357 626 OFFCURVE",
"305 591 OFFCURVE",
"251 577 CURVE",
"119 177 LINE SMOOTH",
"69 25 OFFCURVE",
"45 16 OFFCURVE",
"9 16 CURVE SMOOTH",
"4 16 LINE",
"4 0 LINE"
);
},
{
closed = 1;
nodes = (
"334 196 LINE",
"328 228 LINE",
"156 228 LINE",
"147 196 LINE"
);
}
);
width = 981;
},
{
anchors = (
{
name = bottom;
position = "{595, 0}";
},
{
name = center;
position = "{592, 340}";
},
{
name = ogonek;
position = "{887, 0}";
},
{
name = top;
position = "{615, 680}";
},
{
name = topleft;
position = "{421, 680}";
}
);
hints = (
{
horizontal = 1;
place = "{33, 21}";
target = up;
type = BottomGhost;
},
{
horizontal = 1;
place = "{723, -20}";
target = down;
type = TopGhost;
},
{
horizontal = 1;
place = "{827, 50}";
type = Stem;
},
{
place = "{262, 51}";
type = Stem;
},
{
place = "{380, 50}";
type = Stem;
},
{
horizontal = 1;
place = "{708, 49}";
type = Stem;
},
{
horizontal = 1;
place = "{33, 21}";
target = up;
type = BottomGhost;
},
{
horizontal = 1;
place = "{723, -20}";
target = down;
type = TopGhost;
},
{
horizontal = 1;
place = "{33, 21}";
target = up;
type = BottomGhost;
},
{
horizontal = 1;
place = "{723, -20}";
target = down;
type = TopGhost;
}
);
layerId = "07AD8005-5D45-4A63-B3CF-4E1D9502446D";
paths = (
{
closed = 1;
nodes = (
"701 220 LINE",
"698 228 LINE",
"393 228 LINE",
"390 220 LINE"
);
},
{
closed = 1;
nodes = (
"548 652 LINE",
"545 652 LINE",
"735 116 LINE SMOOTH",
"765 32 OFFCURVE",
"767 7 OFFCURVE",
"733 7 CURVE SMOOTH",
"717 7 LINE",
"717 0 LINE",
"845 0 LINE",
"845 7 LINE",
"810 7 OFFCURVE",
"803 13 OFFCURVE",
"768 110 CURVE SMOOTH",
"559 692 LINE",
"555 692 LINE",
"555 686 OFFCURVE",
"553 683 OFFCURVE",
"549 681 CURVE",
"424 332 LINE",
"429 321 LINE"
);
},
{
closed = 1;
nodes = (
"130 0 LINE",
"130 7 LINE",
"121 7 LINE SMOOTH",
"86 7 OFFCURVE",
"76 9 OFFCURVE",
"117 124 CURVE SMOOTH",
"307 652 LINE",
"304 652 LINE",
"494 116 LINE SMOOTH",
"524 32 OFFCURVE",
"526 7 OFFCURVE",
"492 7 CURVE SMOOTH",
"476 7 LINE",
"476 0 LINE",
"604 0 LINE",
"604 7 LINE",
"569 7 OFFCURVE",
"562 13 OFFCURVE",
"527 110 CURVE SMOOTH",
"318 692 LINE",
"314 692 LINE",
"314 686 OFFCURVE",
"312 683 OFFCURVE",
"308 681 CURVE",
"108 126 LINE SMOOTH",
"66 9 OFFCURVE",
"54 7 OFFCURVE",
"27 7 CURVE SMOOTH",
"22 7 LINE",
"22 0 LINE"
);
},
{
closed = 1;
nodes = (
"460 220 LINE",
"457 228 LINE",
"152 228 LINE",
"149 220 LINE"
);
}
);
width = 867;
},
{
anchors = (
{
name = bottom;
position = "{621, 0}";
},
{
name = center;
position = "{618, 340}";
},
{
name = ogonek;
position = "{933, 0}";
},
{
name = top;
position = "{656, 680}";
},
{
name = topleft;
position = "{477, 680}";
}
);
hints = (
{
horizontal = 1;
place = "{218, 30}";
type = Stem;
},
{
horizontal = 1;
place = "{678, 21}";
target = up;
type = BottomGhost;
},
{
horizontal = 1;
place = "{831, -20}";
target = down;
type = TopGhost;
},
{
horizontal = 1;
place = "{839, 39}";
type = Stem;
},
{
place = "{38, 41}";
type = Stem;
},
{
place = "{198, 40}";
type = Stem;
},
{
horizontal = 1;
place = "{10, 238}";
type = Stem;
},
{
horizontal = 1;
place = "{700, -20}";
target = down;
type = TopGhost;
},
{
horizontal = 1;
place = "{10, 238}";
type = Stem;
},
{
horizontal = 1;
place = "{700, -20}";
target = down;
type = TopGhost;
},
{
horizontal = 1;
place = "{10, 238}";
type = Stem;
},
{
horizontal = 1;
place = "{700, -20}";
target = down;
type = TopGhost;
}
);
layerId = "3FA0091B-41E8-4679-8383-4E36DA6A759B";
paths = (
{
closed = 1;
nodes = (
"717 238 LINE",
"710 258 LINE",
"446 258 LINE",
"440 238 LINE"
);
},
{
closed = 1;
nodes = (
"583 619 LINE",
"573 619 LINE",
"741 127 LINE SMOOTH",
"772 36 OFFCURVE",
"764 12 OFFCURVE",
"712 12 CURVE SMOOTH",
"701 12 LINE",
"701 0 LINE",
"920 0 LINE",
"920 12 LINE",
"881 12 OFFCURVE",
"868 21 OFFCURVE",
"848 77 CURVE SMOOTH",
"629 695 LINE",
"619 695 LINE",
"612 671 OFFCURVE",
"598 652 OFFCURVE",
"576 643 CURVE",
"459 311 LINE",
"472 294 LINE"
);
},
{
closed = 1;
nodes = (
"176 0 LINE",
"176 12 LINE",
"165 12 LINE SMOOTH",
"121 12 OFFCURVE",
"108 56 OFFCURVE",
"138 143 CURVE SMOOTH",
"300 619 LINE",
"290 619 LINE",
"458 127 LINE SMOOTH",
"489 36 OFFCURVE",
"481 12 OFFCURVE",
"429 12 CURVE SMOOTH",
"418 12 LINE",
"418 0 LINE",
"637 0 LINE",
"637 12 LINE",
"598 12 OFFCURVE",
"585 21 OFFCURVE",
"565 77 CURVE SMOOTH",
"346 695 LINE",
"336 695 LINE",
"329 671 OFFCURVE",
"315 652 OFFCURVE",
"293 643 CURVE",
"128 177 LINE SMOOTH",
"75 28 OFFCURVE",
"56 12 OFFCURVE",
"12 12 CURVE SMOOTH",
"7 12 LINE",
"7 0 LINE"
);
},
{
closed = 1;
nodes = (
"434 238 LINE",
"427 258 LINE",
"163 258 LINE",
"157 238 LINE"
);
}
);
width = 927;
}
);
leftKerningGroup = A;
leftMetricsKey = A;
note = Aring;
rightKerningGroup = A;
rightMetricsKey = A;
},
